<mxfile host="app.diagrams.net" modified="2024-06-19T07:41:36.203Z" agent="Mozilla/5.0 (Macintosh; Intel Mac OS X 10_15_7) AppleWebKit/537.36 (KHTML, like Gecko) Chrome/123.0.0.0 Safari/537.36" etag="ZZTgCUWM5cnQ_Jh7HMmx" version="24.5.5" type="device">
  <diagram name="第 1 页" id="1j0WyxT8V1jV1wo08Fq2">
    <mxGraphModel dx="4458" dy="2858" grid="1" gridSize="10" guides="1" tooltips="1" connect="1" arrows="1" fold="1" page="1" pageScale="1" pageWidth="1169" pageHeight="827" background="none" math="0" shadow="0">
      <root>
        <mxCell id="0" />
        <mxCell id="1" parent="0" />
        <mxCell id="dQ3tJeeBxROogiF2pBiH-28" value="" style="rounded=1;whiteSpace=wrap;html=1;dashed=1;strokeWidth=2;" vertex="1" parent="1">
          <mxGeometry x="-2191" y="-1384" width="510" height="450" as="geometry" />
        </mxCell>
        <mxCell id="dQ3tJeeBxROogiF2pBiH-23" value="" style="rounded=1;whiteSpace=wrap;html=1;dashed=1;strokeWidth=2;" vertex="1" parent="1">
          <mxGeometry x="-1646.4" y="-1374" width="325.03" height="450" as="geometry" />
        </mxCell>
        <mxCell id="dQ3tJeeBxROogiF2pBiH-27" value="" style="rounded=0;whiteSpace=wrap;html=1;" vertex="1" parent="1">
          <mxGeometry x="-1628.88" y="-1339" width="280" height="380" as="geometry" />
        </mxCell>
        <mxCell id="VxqdtVdzdVgu5r6BKbT3-238" value="" style="rounded=1;whiteSpace=wrap;html=1;dashed=1;strokeWidth=2;" parent="1" vertex="1">
          <mxGeometry x="-2191" y="-1558.0000000000002" width="872.51" height="157.39" as="geometry" />
        </mxCell>
        <mxCell id="dQ3tJeeBxROogiF2pBiH-9" value="" style="shape=cube;whiteSpace=wrap;html=1;boundedLbl=1;backgroundOutline=1;darkOpacity=0.05;darkOpacity2=0.1;points=[[0,0,0,0,0],[0,0,0,0,12.5],[0,0,0,0,25],[0,0,0,10,35],[0,0,0,20,45],[0,0,0,50,0],[0,0,0,70,45],[0,0,0,100,0],[0,0,0,110,10],[0,0,0,120,20],[0,0,0,120,32.5],[0.08,0.22,0,0,0],[1,1,0,0,0]];rotation=-90;flipH=0;flipV=1;direction=south;size=17;fillColor=#67AB9F;" vertex="1" parent="1">
          <mxGeometry x="-1842.9300000000003" y="-1106" width="23.78" height="79.33" as="geometry" />
        </mxCell>
        <mxCell id="dQ3tJeeBxROogiF2pBiH-8" value="" style="shape=cube;whiteSpace=wrap;html=1;boundedLbl=1;backgroundOutline=1;darkOpacity=0.05;darkOpacity2=0.1;points=[[0,0,0,0,0],[0,0,0,0,12.5],[0,0,0,0,25],[0,0,0,10,35],[0,0,0,20,45],[0,0,0,50,0],[0,0,0,70,45],[0,0,0,100,0],[0,0,0,110,10],[0,0,0,120,20],[0,0,0,120,32.5],[0.08,0.22,0,0,0],[1,1,0,0,0]];rotation=-90;flipH=0;flipV=1;direction=south;size=17;fillColor=#67AB9F;" vertex="1" parent="1">
          <mxGeometry x="-1842.9300000000003" y="-1112" width="23.78" height="79.33" as="geometry" />
        </mxCell>
        <mxCell id="dQ3tJeeBxROogiF2pBiH-10" value="" style="shape=cube;whiteSpace=wrap;html=1;boundedLbl=1;backgroundOutline=1;darkOpacity=0.05;darkOpacity2=0.1;points=[[0,0,0,0,0],[0,0,0,0,12.5],[0,0,0,0,25],[0,0,0,10,35],[0,0,0,20,45],[0,0,0,50,0],[0,0,0,70,45],[0,0,0,100,0],[0,0,0,110,10],[0,0,0,120,20],[0,0,0,120,32.5],[0.08,0.22,0,0,0],[1,1,0,0,0]];rotation=-90;flipH=0;flipV=1;direction=south;size=17;fillColor=#67AB9F;" vertex="1" parent="1">
          <mxGeometry x="-1859.8900000000003" y="-1088.74" width="23.78" height="79.33" as="geometry" />
        </mxCell>
        <mxCell id="VxqdtVdzdVgu5r6BKbT3-48" value="" style="rounded=1;whiteSpace=wrap;html=1;" parent="1" vertex="1">
          <mxGeometry x="-1933.1200000000003" y="-1290.71" width="106.25" height="80" as="geometry" />
        </mxCell>
        <mxCell id="VxqdtVdzdVgu5r6BKbT3-196" value="" style="rounded=1;whiteSpace=wrap;html=1;" parent="1" vertex="1">
          <mxGeometry x="-1486.8" y="-1073.96" width="53.44" height="105" as="geometry" />
        </mxCell>
        <mxCell id="xEzUvcs4P0c2zD8ZCyot-631" value="" style="rounded=1;whiteSpace=wrap;html=1;strokeWidth=1;" parent="1" vertex="1">
          <mxGeometry x="-1822.95" y="-1526.38" width="447.11" height="110" as="geometry" />
        </mxCell>
        <mxCell id="xEzUvcs4P0c2zD8ZCyot-41" value="Geometry and Chemical Knowledge-Enhanced Graph Transformer" style="rounded=1;absoluteArcSize=1;arcSize=14;whiteSpace=wrap;strokeWidth=1;direction=east;fillColor=#D5E8D4;fontColor=#333333;strokeColor=#000000;fontStyle=1;rotation=0;fontSize=11;labelBackgroundColor=none;" parent="1" vertex="1">
          <mxGeometry x="-1991.6" y="-1509.15" width="124.4" height="75.56" as="geometry" />
        </mxCell>
        <mxCell id="xEzUvcs4P0c2zD8ZCyot-43" value="&lt;i data-sider-select-id=&quot;91ddf611-edc0-4a4c-a84a-07e25220073c&quot; style=&quot;font-size: 11px;&quot;&gt;Molecule&amp;nbsp;&lt;/i&gt;" style="text;html=1;align=center;verticalAlign=middle;resizable=0;points=[];autosize=1;strokeColor=none;fillColor=none;fontFamily=Times New Roman;rotation=0;rounded=1;fontStyle=1;fontSize=11;" parent="1" vertex="1">
          <mxGeometry x="-2116.44" y="-1435" width="70" height="30" as="geometry" />
        </mxCell>
        <mxCell id="xEzUvcs4P0c2zD8ZCyot-46" value="" style="edgeStyle=orthogonalEdgeStyle;rounded=1;orthogonalLoop=1;jettySize=auto;html=1;exitX=0.5;exitY=1;exitDx=0;exitDy=0;" parent="1" source="xEzUvcs4P0c2zD8ZCyot-45" target="xEzUvcs4P0c2zD8ZCyot-41" edge="1">
          <mxGeometry relative="1" as="geometry" />
        </mxCell>
        <mxCell id="xEzUvcs4P0c2zD8ZCyot-45" value="" style="shape=image;verticalLabelPosition=bottom;labelBackgroundColor=default;verticalAlign=top;aspect=fixed;imageAspect=0;image=data:image/png,iVBORw0KGgoAAAANSUhEUgAABc4AAAZyCAYAAAAJkHeyAAAAAXNSR0IArs4c6QAAAARnQU1BAACxjwv8YQUAAAAJcEhZcwAAHYcAAB2HAY/l8WUAANxuSURBVHhe7N09yG13nf7/gwFjIaQRtNLCQhCCdqY7ZTrHbtBmCoWp1DJ2KSzSmUqmUBiwmVSZRhlSWSgMNg5iMRbCaCEDFgYsHLD5/13LXD+/5+Nn7ad7P6y19+sFV5Fz7v1wTu719d7v4N7P/j8AAAAAAOD/Ec4BAAAAAGAgnAMAAAAAwEA4BwAAAACAgXAOAAAAAAAD4RwAAAAAAAbCOQAAAAAADIRzAAAAAAAYCOcAAAAAADAQzgEAAAAAYCCcAwAAAADAQDgHAAAAAICBcA4AAAAAAAPhHAAAAAAABsI5AAAAAAAMhHMAAAAAABgI5wAAAAAAMBDOAQAAAABgIJwDAAAAAMBAOAcAAAAAgIFwDgAAAAAAA+EcAAAAAAAGwjkAAAAAAAyEcwAAAAAAGAjnAAAAAAAwEM4BAAAAAGAgnAMAAAAAwEA4BwAAAACAgXAOAAAAAAAD4RwAAAAAAAbCOQAAAAAADIRzAAAAAAAYCOcAAAAAADAQzgEAAAAAYCCcAwAAAADAQDgHAAAAAICBcA4AAAAAAAPhHAAAgE16/uzZC3v26qvz6q8DABzLTxAAAABsUg3kwjkAcC5+ggAAAGATvvTjH8/78k9/2i6///p778177d135332Bz+Y98nvfnceAMA+wjkAAACbIJwDANcinAMAALBKeauVr/7sZ/O+9ctfzvv2r371wvLr+boE9Oc//OG8pYDurVwAgCV+QgAAAGCVhHMA4Fb8hAAAAMCqJGh//ec/n5dA/r3f/nbeO7/73QvLr+frakBfCucfe+uteQI6AFD5yQAAAIBVEc4BgFvzkwEAAACrkvCdEJ5A/pM//GHeL/74x3n55x/9/vfz3v71r+cluCec5y1bPv/OO/M+/f3vz/vEd74z76NvvDEPACCEcwAAAFZFOAcAbk04BwAAYBUSuvNhn3kLlgTy3/zpT/Pe//Of5+Wf8/v5+tz+yz/96bx94fyVN9+c99JXvjIPAEA4BwAAYBWEcwBgLYRzAAAAViGhu75FS96aJcH81HC+9OGgCecf/trX5gEACOcAAACsgnAOAKyFcA4AAMBNPX/2bN5SOE8YTyjPEtT3fTjoa+++O28pnOfDQRPO83wAgMflJwEAAABuSjgHANbGTwIAAADcVA3neauVvPVKwngCepZfX3qLltffe2/evg8FTTjPh4MK5wCAnwQAAAC4KeEcAFgbPwkAAABwU89efXVe3lrlqz/72by8ZUvegiWBPMuvJ5jndgnm+96iJeH8I9/4xryE8zwfAOBxCecAAADclHAOAKyNcA4AAMBN5a1RErxrQM+HfSaQZ/n1+tYsS8F86S1a8qGgH/riF+d5qxYAwE8CAAAA3JRwDgCsjZ8EAAAAuKmE6gTv5z/84bwE9CyBPMuvJ5gntOf29cNA8xYtCeZ/9xYtz5/PE84BAD8JAAAAcFPCOQCwNn4SAAAAYBXy1ioJ6DWk1+XDQfMhokvhfF8wz1u0JJwDAAjnAAAArIJwDgCshXAOAADAKuRDPBPQs8+/8868vDVLPhz02HCeYF4/DDTBXDgHAEI4BwAAYBWEcwBgLYRzAAAAViUBPUsAz84V0AVzAGCJcA4AAMCqCOcAwK0J5wAAAKzK82fP5iV0f+I733lh5w7neTwAgPCTAQAAAKsinAMAt+YnAwAAAFYpQfujb7wx75U335x3rnAumAMAS/yEAAAAwCoJ5wDArfgJAQAAgE146StfmXeucA4AsEQ4BwAAYBOEcwDgWoRzAAAANkU4BwAuTTgHAABgU4RzAODShHMAAAA2RTgHAC5NOAcAAGBThHMA4NKEcwAAADZFOAcALk04BwAAYFOEcwDg0oRzAAAANkU4BwAuTTgHAABgU4RzAODShHMAAAA2SUAHAC5FOAcAAGCThHMA4FKEcwAAADZJOAcALkU4BwAAYJOEcwDgUoRzAAAANkk4BwAuRTgHAABgk4RzAOBShHMAAAA2STgHAC5FOAcAAGCThHMA4FKEcwAAADZJOAcALkU4BwAAYJOEcwDgUoRzAAAANkk4BwAuRTgHAABgk4RzAOBShHMAAAA2STgHAC5FOAcAAGCThHMA4FKEcwAAAI7y/NmzF/bs1Vfn1V+/NOEcALgU4RwAAICj1EAunAMA90Y4BwAAYKcE6i//9Kft8vuvv/fevNfefXfeZ3/wg3mf/O53551bHlc4BwDOTTgHAABgpwTqLppPy+8L5wDAvRDOAQAAeEHeaiXhOWE6QTrLr+frErITqpcC+rnfykVABwDOTTgHAADgBcI5APDohHMAAABmCdpf//nP5yU8f++3v533zu9+98Ly6zVQJ2QvhfME63MFdOEcADg34RwAAICZcA4A8FfCOQAAALME5gTnBPKf/OEP837xxz/Oyz//6Pe/n5dQneCekJ1Q/fl33pmXYP2J73xn3kffeGPeUwnnAMC5CecAAADMhHMAgL8SzgEAAB5cDc95C5YE8t/86U/z3v/zn+fln/P7+frc/ss//em8feH8lTffnPfSV74y71TCOQBwbsI5AADAgxPOhXMA4EXCOQAAwINL6E5ozlu05K1ZEsxPDedLHw6acP7hr31t3qmEcwDg3IRzAACAByecC+cAwIuEcwAAgAf1/NmzeUvhPGE8oTxLUN/34aCvvfvuvKVwng8HTTjP8zmWcA4AnJtwDgAA8KCEc+EcAOgJ5wAAAA+qhvOE57z1SsJ4AnqWX196i5bX33tv3r4PBU04z4eDCucAwFoI5wAAAA9KOBfOAYCecA4AAPCgnr366ryE5wTmBOcE6ATyLL+eUJ3bJZjve4uWhPME64TzPJ9jCecAwLkJ5wAAAA9KOBfOAYCecA4AAPCg8tYoCd41oOfDPhOks/x6fWuWpWC+9BYt+VDQD33xi/O8VQsAsBbCOQAAwIMSzoVzAKAnnAMAADyohOoE74TlhOgsgTzLry8F84TpBPME6gTzhOr/9xYtz5/POzWcR56XgA4APJVwDgAA8KCEc+EcAOgJ5wAAAA8uwTsBPEtgrsvvf/6dd+bl9vWtWfYF87xFS8L5UwnnAMC5COcAAAAPTjgXzgGAFwnnAAAADy7BOwE8SxivgTxLeD40mNcPA00wF84BgLURzgEAAB6ccC6cAwAvEs4BAACYJYBnCctZ/f0ayl958815xwbzfP1TCecAwLkI5wAAAMxqGB+j+bT6+8I5AHCvhHMAAABmz589m5eQnDBeA3mWUL4UzJc+BDTL4wnnAMDaCOcAAADMhHPhHAD4K+EcAACAF9SgvRTIswTnvCXLocE84TphPvd3KuEcADgX4RwAAIAXCOcAwKMTzgEAANgpITxhvAbybCmUZwnbr7377jzhHABYK+EcAACAnRLGhXMA4FEI5wAAABwlb7WSPXv11Xn11xOqv/7zn8/LP18qoAvnAMC5COcAAAAcpQZy4RwAuDfCOQAAAE/y2R/8YF5CeAJ2QvW1wnnk/gV0AOBUwjkAAABPIpwDAPdGOAcAAOAs1hLQc7/COQBwKuEcAACAsxDOAYB7IZwDAABwFsI5AHAvhHMAAADOQjgHAO6FcA4AAMBZ3Tqg5/6EcwDgVMI5AAAAZyWcAwBbJ5wDAABwEbcK6Lkf4RwAOJVwDgAAwEUI5wDAVgnnAAAAXIRwDgBslXAOAADARQjnAMBWCecAAABc1LUDem4vnAMApxLOAQAAuCjhHADYGuEcAACAixLOAYCtEc4BAAC4KOEcANga4RwAAICruFZAz+2EcwDgVMI5AAAAVyGcAwBbIZwDAABwFdcK55HbC+gAwLGEcwAAAK5COAcAtkI4BwAA4KquFdBzO+EcADiWcA4AAMBVCecAwNoJ5wAAAFyVcA4ArJ1wDgAAwFUJ5wDA2gnnAAAA3MSlA3q+XjgHAI4lnAMAAHATwjkAsFbCOQAAADchnAMAayWcAwAAcBPCOQCwVsI5AAAAN3WpgJ6vE84BgGMJ5wAAANyUcA4ArI1wDgAAwE0J5wDA2gjnAAAA3JRwDgCsjXAOAADAKlwqoCecP3v2/IW98Zff27VvfvOb8+rtAID7J5wDAACwCsI5ALAWwjkAAACrcKlw/tZbbx21N99884UtBfV//ud/nieoA8D9Ec4BAABYBeEcAFgL4RwAAIBVuVRA/5d/+ZcX9vbbb7dbCun7Anr2T//0T/MEdQDYLuEcAACAVRHOAYBbE84BAABYlUuF83/91399YftC+rkC+j/8wz/MAwC2QzgHAABgVYRzAODWhHMAAABW6VIB/d/+7d9e2L6Qvi+gJ5zXgJ5w/o//+I/zEtC9hQsArJ9wDgAAwCoJ5wDArQjnAAAArFIC86UC+r//+7/PqwG9hvQa0BPOlwJ6wvm+gP7yyy/PAwDWRzgHAABglYRzAOBWhHMAAABWJaE6AftS4fw//uM/5tWAXkP6voBew3kN6DWc14D+/PnzeQDAegjnAAAArIpwDgDcmnAOAADAKtRgnoCdsH3tgL4UzrOE86WAXsN5DegJ56+//vo8AR0A1kM4BwAAYBUSpIVzAODWhHMAAABuKh8CuhTME7YvFc5//JevmXZsQN/3li0J5zWg7wvnPjQUAG5POAcAAOCmhHPhHADWRjgHAADgJhLME6SXgvl//ud/zvuv//qvedcO6JcO5zWgf+ELX5iXvx8A4PqEcwAAAG5COBfOAWCthHMAAABuIiE6YboG84TsBPP//u//nnftcJ6gXwP6vnBeA/qh4Txv2fK5z31uHgBwfcI5AAAANyGcC+cAsFbCOQAAAFeVD79MiE6YrsE8b9GSYP4///M/8/73f/933qUD+q3Ded6y5TOf+cw8AOB6hHMAAACuSjgXzgFg7YRzAAAArqJ+GGhCdAJ1wnmCeX2LlmuH8zyfpXCeDwm9dDjPW7b4sFAAuB7hHAAAgKsQzoVzANgK4RwAAICryFu0JDwnSCecJ1gnnC8F8/fff3/e//3f/807d0A/NJzve6uWBPN94TzBfF84/9SnPjUPALg84RwAAICrEM6FcwDYCuEcAACAq8hbmyRAJ0gnUCdY73uLlkuF8wT7c4fzBPOnhnMfEgoA1yOcAwAAcBXCuXAOAFshnAMAAHBR+VDLS4XzcwX0Gs7zFjLnCucJ5kvhPMF8Xzj3IaEAcHnCOQAAABclnAvnALA1wjkAAAAXlcCc4HyucF4D+rHhPPefx0s4z/Op4TzPP/8B4NRwnmC+FM4TzJfC+cc//vF5AMDlCOcAAABclHAunAPA1gjnAAAAXNSx4TwBeymcLwX0pSWg536WgnkeP88nzy/PdymcLwXzfeE8wXwpnCeYC+cAcH3COQAAABclnAvnALA1wjkAAAAXkQ+x3BfO85YoNZwnbO8L6PuW22VL4TzBvL5FS55vDebHvkXLqeE8wfxTn/rUvIRzHxIKAJcjnAMAAHARwrlwDgBbJZwDAABwETWcJzwvhfOE6xrOsxrQs0NDeZb7y+Mk2OfxazBP8H9qOE8wr+E8wVw4B4D1EM4BAAC4COFcOAeArRLOAQAAuIilcJ4QnTBdw3lC9r6Ani0F8qzefimY53nUcH5qMF8K5wnmNZwnmB8azl9++eV5AMD5CecAAABchHAunAPAVgnnAAAAXMSh4Tyhel9Az2oI37d6+0ODeZ7nqeG8BvMazhPMazivwbyG81deeWWecA4AlyOcAwAAcBHCuXAOAFslnAMAAHARCbsJzU8N6FkN4fuW2+X+sksF86VwnmBew3mC+VI4TzDPW7QknGcAwPkJ5wAAAFyEcC6cA8BWCecAAABcRN6q5dBwni0F9GyM6LtWb1dDeZbHPTWY13Beg3kN5wnmNZwnmB8azvMfJgCA8xPOAQAAuAjhXDgHgK0SzgEAALiIGs6zUwN6XQ3jWfe102ooz44N5jWc12Bew3mCeQ3nCeY1nNdgvi+cf/YHP5gHAJyPcA4AAMBFCOfCOQBslXAOAADARSScJzzXcJ7VgJ7VwJ3wfezq/eT+87hZnk8N5tm5gnkN5wnmS+G8BvMsf7/Pf/jDeQnoSwMADiecAwAAcBHCuXAOAFslnAMAAHARCbsJzgnQ+wJ6Nkb0aTWA71u9fZb7r49fg3med1aDeQ3nCeY1nJ8azPeF86/+7GcvLAF9aV1MnwYA/D3hHAAAgIsQzoVzANgq4RwAAICLSnhOkM4SqrMasseIPq2L4LtWb1/vvz5+ntcYy6edGsxrOE8wr+E8wbyG86Vgnn3rl798YTWk13UxfVoX06cBwCMTzgEAALioBOgxmk+r4bqG7Rq+uzi+a/X29f7r4+d5jdF8mnAOAI9HOAcAAOCiEp4Tosd4Pq0G7KyG7rqlIL60ev/1edRQnl0qmNdwXoP5seF837qYPq2L6dO6mD4NAB6BcA4AAMBFJUAL58I5AGyFcA4AAMBF5UNCE6ITqLMasGvgfurq/Wf1eYyxfFoN5ZcO5jWcd7F8Whe/p3Wx/JB19zWti+nTupg+DQDuiXAOAADARQnnwjkAbI1wDgAAwFUkRCdM13CddZH7KeseY9oYyafl+WWnBvMazpeCeQ3n+4J59vp777Xr4ve4LprvWncf07qYPq2L6eMAYEuEcwAAAK4iQTqhuovZ07r4/ZR1jzFtjObTxmg+TTjv76eL5tO6WD4OALZEOAcAAOAqXn755XkJ0zVcd3H7nKuPN0bycbcK5oeG8y5KT+ti+rgugk/rovmudfcxrYvp47rnPA0A1kg4BwAA4CqEc+G8GwCskXAOAADARSWs5kNCa6iuQXtpXQyf1n1tt/q42bGhPKuh/NhgXsN5F8lf2JtvzvvEd77TrovS47qYPm2M3+O6aL5r3X2M62L6tO65TgOAWxLOAQAAuKiEU+FcOO/WPddpAHBLwjkAAAAXlXCawJq3bEmo7mL2tC5+71p3H93GSD5uXzBPKL96MP9gH/riF+cloNd1MX1cF6endTF92hi9x42x/Jh19zWti+nTuuc6DQCuQTgHAADgohJIE1CFc+F8XBfNp3XPdRoAXINwDgAAwEUkjCacfu+3v533o9//fl4CdQ3YXew+ZvX+6sY4Pq6G8uzWwbxKQK/rYvq4LqZP6+L0tC6mTxuj97gxkh+z7r6mdTF9WvdcpwHAOQnnAAAAXEQCaAKpcC6cd+vua1oXzad1z3UaAJyTcA4AAMBZJXwmjNZg/os//nFePiw04bqL3E/ZGMW7dZF8Wg3l2bWDef5+DtXF9HFdTJ/WxfRpXZye1sX0aWP07jbG8kPW3ce0LqZP657rNAA4hXAOAADAWSVwJoAK58L5tDGKH7LuPqZ10Xxa91ynAcAphHMAAADOImEz4XMpmP/mT3+a9/6f/zyvBvRLrYvk07pIPm1fKM/OHczz4ann1sX0aV1Mn9bF9GldnJ7WxfRxY/weN8byQ9bdx7Qupk/rnus4AOgI5wAAAJxFAmYCp3AunI8bI/e4MYofsu4+pnXRfFr3XMcBQEc4BwAA4CwSMBM4Dw3nWYJ1F7endTF8Wve1uzbG8XE1lGenhvJjg3l2bV1Mn9bF9GldTJ/WRelxXUyfNsbvcWMsP2TdfUzrYvq47rlOA+CxCecAAACcRUJlQqZwLpyP66L5tDFyjxuj+CHr7mNaF8vHdc91GgCPTTgHAADgSRIoEzCPDeb59XxdgnWCdhe/d22M4bs2xvFxNZRn9xbM9+li+rQupk/rYvq4Lk5P62L6tDF+jxtj+SHr7mNcF9Ondc91GgCPQTgHAADgSRIgEyqFc+G8Wxehp3XRfNoYt8eNUfyQdfcxrovm07rnOg2AxyCcAwAAcJKExwTKpwbzn/zhD/Pe+d3v5uVDQxO0u/i9a2MM37Uukk+7dCi/1IeAXloX06d1MX1cF9OndXF6WhfTp43Re9wYy49Zd1/Tupg+rXuu0wC4L8I5AAAAJ0lgTIAUzvtAvjThXDgHYL2EcwAAAI6SsJjweO5g/vavfz0v95+AnqDdxe9dG2N4txrIsxrKs6cG8/x57k0X08d1MX1aF9OndXF6WhfTp43Re1y+j45dd1/Tupg+rXuu0wDYJuEcAACAoyQgJjAK530gX5pwLpwDsH7COQAAAAdJOExYvHQwz+N96cc/npdAmbDdRfBdG6N4ty6ST3tqKM8eXRfTp3UxfVoX06d1cXpaF9On5ftoafl+O3TdfUwbI/q47rlOA2DdhHMAAAAOkkCYgCicH7dH10XzaV00n9ZF82ldhJ7WRfNp+T5aWr7fDl13H9PGWD6ue67TAFg34RwAAICDJBAmIN4qnH/+nXfm5S1Paujuovi0+nV1NZBnXQQ/ZPf6lizn1sX0aV1Mn9bF9GldnJ7WxfRx+T6ry/fhoevuY9oY0cd1z3UcALclnAMAAHCQhMCEQuF894Tzw3TRfFoXzad10XxaF5+ndbF8XL7P6vJ9eOi6+5g2xvJx3XMdB8BtCecAAADslACYQHjrYJ6w+MnvfndewunH3nprXoJ1F8F3rYvfh0wgv4wupk/rYvq0MaKPG2N0ty6mT8v3YV2+Tw9ddx/TxojerXuu0wC4DuEcAACAnRL6EgKF8xcnnF9GF82nddF82hjLx43RuVsXzafl+7Au36eHrruPaWMk79Y912kAXIdwDgAAQCuBLwFw7cH8o2+8Me8j3/jGvA9/7WvzXvrKV+YlcGddBO9Wb8dtdTF9WhfTp40RvdsYpcd1MX1avk/r8n186Lr7GDdG9HHdc50GwHkJ5wAAALQS8BL6hPO/jtvqovm0LppPGyN5tzE+j+ui+bR8n9bl+/jQdfcxbozl47rnOg2A8xLOAQAAeEHCXQLf1oN5wuqz589fGPdljOjjupg+bozo48YoPa6L6dPyfVyX7/Nj193XtDGij+ue6zQATiOcAwAA8IIEugQ84ZwtGGP5uC6Wjxtj+bgxPo/rovm0fB/X5fv82HX3NW2M5eO65zoNgNMI5wAAAMwS5hLuBHPuwRjRu3UxfdoY0ceNUXpcF9On5fu8LtfBsevua9oY0cd1z3XauT1/9uyFPXv11Xn11wG2wokFAADALAEugU445x6MkbxbF82njbF83Bifx3XRfFq+z+tyHRy77r6mjbF8XPdcp51bDeTCObB1TiwAAABmCXAJdMI5j2CM6OO6mD5tjOjjxig9rovp0/L9v7RcJ4euu49pY0Qf1z3Xcfvkuv3yT3/aLr+fP+9r7747L/ef6xpgrYRzAAAAZgltCXHCOY9gjOXjumg+bYzl4/L9WjfG8nH5/l9arpND193HtDGWj+ue67h9ct120Xxafj9/XuEc2BrhHAAA4MElsCXACeZwu6Ce5Tqpy3V06Lr7mDZG9G71+eatVnL73P+3f/WrF1Yft17nSwHdW7kAa+NEAgAAeHA1hAnnIJzX5yucA4/GiQQAAPCgagATzGG/MaKP62L6tDGij8v3+9K6mD4t11FdrrND193HuFyfCdpf//nP5yWQ57zI9Z7l1/N1ub9c90vhPNe5gA6shZMIAADgQSVoJaQleAnnsGyM5eO6aD5tjOXj8v2+tC6aT8t1VJfr7NB19zFOOAcenZMIAADgwSRkJaAldAnmcLoxoo/rYvq0MaJ3y3VR18X0abnO6nIdHrt6Pwnhuc5z3ddzIOdIzoEE96Xr/9Pf//68/LlzvQPcmnAOAADwYBLCEsiEc3i6MZaP66L5tHyfL22M5eO6aD4t11ldrsNjV+9HOAcejXAOAADwYBLCEsiEc7icMaKP62L6uFwHdWNEH9fF9Gm5/upyfS4t12v+OedErvd6PuSf8/v5+tz+yz/96bx94Tx//lzfALcinAMAADyYGs4SuIRzOL8xlo8bI3m3XAd1Yywf10Xzabn+6nJ9Lk04Bx6dcA4AAPAgajBL2BLM4frGiN5tjOjjcp3UjRF9XBfTp+X6XFpCd32Lllz/S+fDoeE8zy/Xf677/DlzvQPcinAOAADwIBLEErKEc7idMZJ3G2P5uDGWj8v1VNdF82m5PpcmnAOPTjgHAAC4cwlhCViCOazfGNHHjRF93BjRx+V6q+ti+rTnz57NWwrnuf5zLtTzIedKzoX64aCvvfvuvDyPGs5z/ee6z/MBuDYnDwAAwJ0TzmF7xlg+rovm08ZYPi7XW10XzacJ5wB/5eQBAAC4U4I53J8xoo/rYvq0MaKPy/VYV8P50vmR8yDLr+frcrvcT8J8zoOlDwXNOZDrXjgHbsXJAwAAcKeEc7g/YywfN8bycbnO6sZYPk44B/grJw8AAMCdEczh8YwRfdwY0cflOqx79uqr83I95/rOW7bk+s+5ki2dCwnm+96iJc8r50Cu/zwfgGsTzgEAAO5MglUCVsKWcA73a4zl48ZYPm6M5eOEc4C/Es4BAADuTIJVAlbClnAOj2eM6OPGiD4ub42S4F0Dej7sM9d/ll+vb82yFMxzDuRxcw7k+s/z9FYtwK04eQAAAO5MAleClnAOjyvXT90Yy8cJ5wB/5eQBAAC4EwlbCVmCObAk11ddQnWCd67rXOdZAnmWX18K5vXDQJfOgVz/ud6Fc+BWnDwAAAB3QjgHDjXG8nHCOcBfOXkAAAA2TjAHzi3XcQJ4luu9Lr9/6jmwdP0D3IpwDgAAsHHCOXBuuY7HaD5tjOXj8vvCOXAvhHMAAICNEsyBS8l1nOs6y/Ver/ssb8ly7Dng+gfWRjgHAADYKOEcuJRcx2MUnzZG8/G6z4Rz4F4I5wAAABsjmAPXkus6SxivgTyr1/8rb745TzAHtkY4BwAA2BjhHLiWMYpPE86BRyGcAwAAbIxwDlzL82fP5uV6zvVdr/MsoXwpmO+77vN4ALfmJAIAANgY4Ry4FuEceFROIgAAgI0QzIFbSdDOdb0UyLNjr3vBHFgbJxIAAMBGCOfArQjnwKNxIgEAAKycYA6sTa7nXN/1Os+WrvcMYK2EcwAAgJUTzoG1yfU8RvPxOs+Ec2CrhHMAAICVEsyBrchbrWTPXn11Xv11gK1wYgEAAKyUcA5sRQ3kwjmwdU4sAACAlRLOAQBuQzgHAABYKeEcAOA2hHMAAICVEcwBAG5LOAcAAFgZ4RwA4LaEcwAAgJUQzAEA1kE4BwAAWAnhHABgHYRzAACAGxPMAQDWRTgHAAC4MeEcAGBdhHMAAIAbEcwBANZJOAcAALgR4RwAYJ2EcwAAgBsRzgEA1kk4BwAAuBHhHABgnYRzAACAKxPMAQDWTTgHAAC4MuEcAGDdhHMAAIArEcwBALZBOAcAALgS4RwAYBuEcwAAgAsTzAEAtkU4BwAAuDDhHABgW4RzAACACxHMAQC2STgHAAC4EOEcAGCbhHMAAIALEc4BALZJOAcAALgQ4RwAYJuEcwAAgDMTzAEAtk04BwAAODPhHABg24RzAACAMxHMAQDug3AOAABwJsI5AMB9EM4BAACeSDAHALgvwjkAAMATCecAAPdFOAcAAHgi4RwA4L4I5wAAAE8knAMA3BfhHAAA4ESCOQDAfRLOAQAATiScAwDcJ+EcAADgSII5AMB9E84BAACOJJwDANw34RwAAOBAgjkAwGMQzgEAAA4knAMAPAbhHAAAYA/BHADgsQjnAAAAewjnAACPRTgHAADYQzgHAHgswjkAAMAewjkAwGMRzgEAABYI5gAAj0k4BwAAWCCcAwA8JuEcAACgEMwBAB6bcA4AAFAI5wAAj004BwAA+IBgDgDARDgHAAD4gHAOAMBEOAcAAB6eYA4AwEg4BwAAHp5wDgDASDgHAAAennAOAMBIOAcAAB6ecA4AwEg4BwAAHpZgDgBARzgHAAAelnAOAEBHOAcAAB6OYA4AwC7COQAA8HCEcwAAdhHOAQCAhyGYAwBwCOEcAAB4GMI5AACHEM4BAICHIZwDAHAI4RwAAHgYwjkAAIcQzgEAgLsnmAMAcAzhHAAAuHvCOQAAxxDOAQCAuyWYAwBwCuEcAAC4W8I5AACnEM4BAIC7I5gDAPAUwjkAAHB3hHMAAJ5COAcAAO6GYA4AwDkI5wAAwN0QzgEAOAfhHAAAuBvCOQAA5yCcAwAAd0M4BwDgHIRzAIDi2fNnL+y1197duc9//p159XbA9QjmAACck1d0AABFDeBdLB8nnMPtCecAAJyTV3QAwMNK4H799fdO2vPnP3xhS0H9s5/9wTxBHc5PMAcA4BK8cgMAHpZwDtsnnAMAcAleuQEAdy/B+ktf+vEL+/KXf3rQ6u2ypZC+L6Bnn/709+cJ6nA8wRwAgEvyCg0AuHvCOdwf4RwAgEvyCg0AuFsJ3DWEf/WrPztq9fZjPJ92roD+iU98Zx6wTDAHAOAahHMA4G4lbNfw3cXxXau3H6P5NOEcrkc4BwDgGoRzAOBu5C1PErhrAP/613/e7lvf+uW87vfG5X7GiD7t0ICecF4DesL5Jz/53XkJ6N7CBf6ecA4AwDV4JQYA3A3hHO6fcA4AwDV4JQYAbN5SME/wThjPvv3tXx20ersa0LOlgJ5wvhTQE873BvRnr86DRyaYAwBwTcI5ALB5wjncP+EcAIBrEs4BgM1KqE7ArqG8hvC33/51u+9977fzut+bltvXgJ4dGtBrOK8BvYbzGtBfeeXNefBIBHMAAG5BOAcANks4h/snnAMAcAvCOQCwOYcG84TvhPHsnXd+t3P16/cF9KVwniWcLwX0Gs5rQE84/9jH3ponoPMIBHMAAG5JOAcANidBWjiH+yWcAwBwS8I5ALAZ+RDQY4N5gviPfvT7gzZG9GlPDej73rIl4bwG9H3h3IeGcs+EcwAAbkk4BwA2QzgXznkcwjkAALcknAMAq5dgniC9FMz3hfKf/OQPB63e7tCAfulwXgP6Rz/6xrz8/cA9EMwBAFgDr7AAgNUTzoVzHodwDgDAGniFBQCsXkJ0wnQN5gnZNZjXIP6LX/zxoOXrx3g+Lfe/FM4T9GtA3xfOa0A/NJznLVs+8pFvzIMtE8wBAFgT4RwAWD3hXDjn/gnnAACsiXAOAKxWPvwyITphugbzvIVKAvdSKP/Nb/500PL1NaAnnNe3bLl1OM9btnz4w1+bB1simAMAsEbCOQCwWsK5cM79E84BAFgj4RwAWJ36YaAJ0QnUCecJ2AnaS+E8Qfz99/+8c0vhPFsK53k+S+E8HxJ66XCet2zxYaFsgWAOAMCaeUUFAKyOcC6cc/+EcwAA1swrKgBgdfIWLQnPCdIJ5wnWCdhPDeZZvj6rAT2Pc2w43/dWLQnm+8J5gvm+cP7SS1+ZB2smnAMAsGbCOQCwOsK5cM79E84BAFgz4RwAWJ28tUkCdIJ0AnWC9bneoiUbo/m0Gs5PfauWQ8N5gvlTw7kPCWXNBHMAALZAOAcAVkc4F865X8I5AABbIJwDAKuRD7W8dTivwTz3vxTO8xYy5wrnCeZL4TzB/N3XXmuXcO5DQlkTwRwAgC3xSgoAWA3hXDjnfgnnAABsiVdSAMBqJDAnOJ8rnGddLJ9Wv+7QcJ7nU8N5nn/+A8Cp4TzBvIbzHz5/vnNdTO8G1yCYAwCwRcI5ALAawrlwzv0RzgEA2CLhHABYjWPDeQL2UjjPahhfWr5+XzDP4+f55Pnl+S6F86Vgvi+c//TLX5734y996aB1Mb1bF9O7wSkEcwAAtkw4BwBWQzgXzrkfwjkAAFsmnAMAN5cPsdwXzvOWKDWcJ2zvC+j7lttlS+E8wby+RUuebw3mx75FS/bzr3/9hSWg71sX07t1Mb1bF9O7wUg4BwBgy4RzAODmhHPhnPsjnAMAsGXCOQBwczWcJzwvhfOE6xrOsxrQs0NDeZb7y+Mk2OfxazBP8H9qOM9btPzyW996YTWkL62L6d26mN6ti+ndupi+a6zTs2fPX9gbb7yxc9/85jfn5esFcwAA7oFwDgDcnHAunLMeYzSf1sXyccI5AAD3SDgHAG5uKZwnRCdM13CekL0voGdLgTyrt18K5nkeNZyfGsxrOP/Vt7/drob0pXUxvVsX07t1Mb1bF9N3rYvp3biMhO633nrrpL355psvLCFdMAcA4B4I5wDAzQnnwvmucRnCuXAOAMAy4RwAuLlDw3lC9b6AntUQvm/19ocG8zzPU8N5gnneoqWL5sesi+ndupjerYvp3bqYvmtdTO/WxfRu9BLI33777Rf2L//yLwet3i5bCukJ6II5AABbJpwDADcnnAvnu9ZF8m70hHPhHACA4wnnAMDNPXv26ryE5qcG9KyG8H3L7XJ/2aWC+aXC+aHrYnq3LqZ362L6rnUxvVsX07t1Mb3bo0jgriH8X//1X49avf0Yz6ftC+iZcA4AwJYI5wDAzQnnwvmudZG8WxfJuz2KhO0avrs4vmv19mM0nyacAwBwj4RzAODm8lYth4bzbCmgZ2NE37V6uxrKszzuqcG8hvMazLtoPa6L39dY91y6dTF917qY3q2L6d26mN6ti+m7thV5S5YE7hrA/+3f/q3dv//7v8/rfm9c7if3nx0a0AVzAAC2RDgHAG5OOBfOd62L5N26SN6ti+O7thXCuXAOAMD5COcAwM3VcJ6dGtDrahjPuq+dVkN5dmwwr+G8BvMazru4PK6L1d26+H2Ndc9l17o/Y7cupnfrYnq3LqbvWhfTu93KUjBP8E4Yz/7jP/7joNXb1YCeLQX0hPMa0AVzAAC2QDgHAG5OOBfOd62L5N26SN6ti+O71kXybrcinAvnAACcn3AOANxcwnnCcw3nWQ3oWQ3cCd/Hrt5P7j+Pm+X51GCeHRvMP/axt+b97Ktf3bkuKnfrInW3Ln5fc91z6tb9Gbt1Mb1bF9N3rYvp3bqY3u1cEqoTsGsoryH8xz/+cbv//M//nNf93rTcvgb07NCAnnD+zW9+c55gDgDAmgnnAMDNCefC+a51f8ZuXSTv1sXxXesiebcuknc7F+FcOAcA4HKEcwDg5hLOE5wToPcF9GyM6NNqAN+3evss918fvwbzPO+sBvMazhPMazjvou24LqZ366Jyty5Sd+ui9zXXPadu3Z+xWxfTd637d9Gti+ndupjebcmhwTzhO2E8+6//+q+dq1+/L6AvhfMs4XwpoAvmAACskXAOANyccC6c71r3nLp1f8ZuXRzfte7fRbcuknfrInm3JQnSwrlwDgDA5QjnAMBqJDwnSGcJ1VkN2WNEn9ZF8F2rt6/3Xx8/z2uM5dNODebZe6+/vnNdrO3WxfRuXVTu1kXqbl30vua659St+zPuWhfTu3X/Lrp1Mb1bDen5ENBjg3mC+H//938ftDGiT3tqQN/3li3//M///MKEcwAA1kA4BwBWIwF6jObTariuYbuG7y6O71q9fb3/+vh5XmM0nyac90H7WuueU7fuz7hrXSTv1v276NZF8m7C+V+ux79MOAcA4BaEcwBgNRKeE6LHeD6tBuyshu66pSC+tHr/9XnUUJ6dGsxrIF1aF9O7dbG2WxfTu3UxuVsXqXeti9/XWPdcdq37s3brYnq37t9FtwT0BPME6aVgvi+U/8///M9Bq7c7NKCfK5z/0z/90zzBHACAWxLOAYDVSIAWzvt1kbxbF2G7dZG8WxeJu3XRede6qH2Ndc9l17o/a7cuknfr/l10E87/cv0J5wAA3IhwDgCsRj4kNCE6gTqrAbsG7qeu3n9Wn8cYy6fVUH5oMH/llTfn/eCznz1oXUzv1sX0bl2s7dbF9G5dTN61LlJ36+L3Ndc9p27dn7FbF9O75e8/ITphugbzhOwazGsQ/9///d+Dlq8f4/m03P9SOE/QrwF9XzivAT3h/B//8R/nCeYAANyCcA4ArIZwvntdJO/WRfJuYxzftS6Sd+si8a518blbF7Ovue45dev+jN26SN4tf//CuXAOAMD1CecAwOokRCdM13CddZH7KeseY9oYyafl+WWnBvPs+5/+9EHrYnq3LqZ362J6tzGi71oX03eti8rdukjdrYve11z3nLp1f8ZuL7/88ryE6ITpGszzFioJ3Euh/P333z9o+foa0BPO61u2XDqc/8M//MM8wRwAgGsSzgGA1UmQTqjuYva0Ln4/Zd1jTBuj+bQxmk8Tzv+6Lo7vWheLu3XxuVsXs6+57jl16/6M3YRz4RwAgNsRzgGA1Xn27NV5CdM1XHdx+5yrjzdG8nFPDeYf/egb8z7ykW/M++4nP7lzXUzv1sX0bl1M79bF9G5dTN+1LqZ366Jyty5Sd+ui9zXXPadx9cNAE6ITqBPOE7ATtJfCeYL4//3f/+3cUjjPlsJ5ns9SOM+HhD41nGev/+V7bZpgDgDAJQnnAMDqCOf9ukjerYvk3bpI3q2L5N26OL5rXSTv1kXybl2E7tbF7Guue07jhHPhHACA2xPOAYDVyYeE1lBdg/bSuhg+rfvabvVxs2NDeVZDeQ3m2Vsf+9jOdTG9WxfTu3UxvVsX07t1MX3XupjerYvp3bqY3q2L1bvWxe9LLm/RkvCcIJ1wnmCdgP3UYJ7l67Ma0PM4x4bzfW/VkmC+L5wnmGfPnz+f94UvfGGecA4AwDkJ5wDA6gjn/bpI3q2L5N26SN6ti+Tduji+a10k79ZF8m5dJO/WxfFd6+L2JSecC+cAANyecA4ArFbesiWhuovZ07r4vWvdfXQbI/m4fcE8ofzQYP7hD39t3puvvLJzXUzv1sX0bl1M79bF9G5dTN+1LqZ362J6ty6md+ti+q51Mb1bF8FPWd7aJAE6QTqBOsH6XG/Rko3RfFoN56e+Vcuh4TzB/NRw/rnPfW7eZz7zmXkAAPAUwjkAsFrC+YvrInm3LpJ36yJ5ty6Sd+vi+K51kbxbF8m7dZG8WxfHd62L5N26CH7KhHPhHACA2xPOAYDVS6CuAbuL3ces3l/dGMfH1VCenRrMszc++tGd62J6ty6md+tiercupnfrYvqudTG9WxfTu3UxvVsX03eti+ndupjerYvl0/KhoLcO5zWY5/6XwnneQuZc4TzBfCmcJ5jvC+f5+wQAgFMI5wDA6iVY17DdxfBjVu+vbozl47poPk047wP50rpI3q2L5N26SN6ti+O71kXybl0k79ZF82nCuXAOAMB6COcAwOrlw0ITrrvI/ZSNUbxbF8mn1VCeHRvMX3rpKy/sax/+cLsupnfrYnq3LqZ362J6ty6m71oX07t1Mb1bF9O7dTF917qY3q2L6d26mD4tgTnB+VzhPOti+bT6dYeG8zyfGs7z/PMfAE4N5wnmS+E8wXwpnH/84x+fBwAApxDOAYDVE86F80PWRfJuXRzftS6Sd+siebcumk8TzoVzAADWQzgHADajBvRLrYvk07pIPm1fKM/2BfMPfeiL8/IWE1/80IdeWBfTu3UxvVsX07t1Mb1bF9N3rYvp3bqY3q2L6d26mL5rXUzv1sX0bl1Mn3ZsOE/AXgrnWQ3jS8vX7wvmefw8nzy/PN+lcL4UzPeF8wTzpXCeYC6cAwBwTsI5ALAZwnkfyuu6SN6ti+TdukjerYvju9ZF8m5dJO/WRfJuXRzftS6Sd+siebcumk8TzoVzAADWQzgHADYnwbqL29O6GD6t+9pdG+P4uBrKs1NDeQ3mS6shfWldTO/WxfRuXUzv1sX0XetiercupnfrYnq3LqbvWhfTu3UxvVsN6fn3uy+c5y1RajhP2N4X0Pctt8uWwnmCeX2LljzfGsyPfYuWU8N5gvmnPvWpeQnn+fsFAIBjCOcAwOYkYHexe1oXzad1X7trYywf10XzacJ5H8iX1kXybl0k79ZF8m5dHN+1LpJ36yJ5N+FcOAcAYP2EcwBgsxKsE7S7+L1rYwzftTGOj6uhPDt3MK/bp4vp3bqY3q2L6d26mL5rXUzv1sX0bl1M79bF9F3rYnq3LqZ3qyE9/14TmhOel8J5wnUN51kN6NmhoTzL/eVxEuzz+DWYJ/g/NZwnmNdwnmAunAMAcA3COQCwWQnYCdxdHN+1MY7v2hjLx3XRfJpwfti6SN6ti+TdukjerYvju9ZF8m5dJO8mnAvnAACsn3AOAGxePjQ0QbuL37s2xvBd6yL5tEuH8mfPXp13bl1M79bF9G5dTN+1LqZ362J6ty6md+ti+q51Mb1bF9O71ZCef881nCdEJ0zXcJ6QvS+gZ0uBPKu3XwrmeR41nJ8azJfCeYJ5DecJ5oeG85dffnkeAAAcQzgHADZPOD9NF8m7dZG8WxfHd62L5N26SN6ti+Tduji+a10k79ZF8m7CuXAOAMD6CecAwN1IQE/Q7uL3ro0xvFsN5FkN5dmTg/kHf55b62J6ty6m71oX07t1Mb1bF9O7dTF917qY3q2L6d1qSM+/733hPKF6X0DPagjft3r7Q4N5nuep4bwG8xrOE8xrOK/BvIbzV/7yPTFNOAcA4BTCOQBwN4Tzy+giebcuju9aF8m7dZG8WxfJu3VxfNe6SN6ti+TdhHPhHACA9RPOAYC7lbDdRfBdG6N4ty6ST3tyKP9gW9XF9F3rYnq3LqZ362J6ty6m71oX07t1Mb1bDekJuwnNTw3oWQ3h+5bb5f6ySwXzpXCeYF7DeYL5UjhPMM9btCScZwAAcAzhHAC4WwndXRzftTGSd+ui+TThvA/kS+siebcuknfrInm3Lo7vWhfJu3WRvJtwLpwDALB+wjkAcPfylic1dHdRfFr9uroayLMugh+0lbwly7V1Mb1bF9O7dTG9WxfTd62L6d26mN6thvR8HxwazrOlgJ6NEX3X6u1qKM/yuKcG8xrOazCv4TzBvIbzBPNDw3n+wwQAABxDOAcA7p5wvk5dJO/WRfJuXSTv1sXxXesiebcukncTzoVzAADWTzgHAB5WgnUXwXftheh9zB40kD9VF9O7dTG9WxfTd62L6d26mN6thvR8fyQ8Z6cG9LoaxrPua6fVUJ4dG8xrOK/BvIbzBPMazhPMazivwVw4BwDgnLxyAwAelnC+DV0k79ZF8m5dHN+1LpJ36yJ5N+FcOAcAYP28cgMAKBK4/9/G+L1r5XZcVxfTu3Uxfde6mN6ti+ndakjP90/Ccw3nWQ3oWQ3cCd/Hrt5P7j+Pm+X51GCenSuY13CeYL4Uzmswz/L3CwAAx/CKDgCgqAE84W3vyu24ri6Sd+vi+K51kbxbF8m7CefCOQAA6+cVHQAAD6WL6bvWxfRuXUzvVkN6wm6CcwL0voCejRF9Wg3g+1Zvn+X+6+PXYJ7nndVgXsN5gnkN56cGc+EcAIBLEM4BAHgoXRzftS6Sd+sieTfhXDgHAGD9hHMAANihi+ndupjerYvp0xKeE6SzhOqshuwxok/rIviu1dvX+6+Pn+c1xvJppwbzGs4TzGs4TzCv4XwpmGcAAHAK4RwAAHboInm3LpJ366L5tAToMZpPq+G6hu0avrs4vmv19vX+6+PneY3RfJpwDgDAPRHOAQDgDLqY3q2L6dMSnhOix3g+rQbsrIbuuqUgvrR6//V51FCeXSqY13Beg7lwDgDAJQjnAABwBl0k79ZF82kJ0MK5cA4AwO0J5wAAcEVdTJ+WD7FMiE6gzmrAroH7qav3n9XnMcbyaTWUXzqY13DexfJpPhQUAICnEM4BAOCKumg+TTgXzgEAWA/hHAAAViQhOmG6huusi9xPWfcY08ZIPi3PLzs1mNdwvhTMazjfF8wzAAB4CuEcAABWJEE6obqL2dO6+P2UdY8xbYzm08ZoPk04BwDgHgnnAACwIi+//PK8hOkarru4fc7Vxxsj+bhbBXPhHACAaxDOAQBgRYRz4RwAgNsTzgEAYEXyoZY1VNegvbQuhk/rvrZbfdzs2FCe1VB+bDCv4byL5ON8KCgAAOcgnAMAwIoI58I5AAC3J5wDAMAK5S1bEqq7mD2ti9+71t1HtzGSj9sXzL/6s5/N+9KPfzzv9ffem/f8hz+c9/l33pn32R/8YN4nv/vdeZ/4znfmfeytt+a98uab8z7yjW/M6yJ5NwAAOAfhHAAAVkg4F84BALgd4RwAAFYsgboG7C52H7N6f3VjHB+XQP6tX/7yhX395z+fd6lw/uGvfW1eF8unAQDAOQnnAACwYgnWNWx3MfyY1furG2P5OOEcAIBHIJwDAMCK5cMuE667yP2UjVG821Ior7tVOPdhoAAAXIJwDgAAKyacC+cAAFyfcA4AABtQA/qlllCeJYQnjHfRfNy1Ano+PBUAAC5BOAcAgA0QzoVzAACuRzgHAIANef78+bwauLMuhk/rvnbXErzXGs4BAOCShHMAANgQ4Vw4BwDg8oRzAADYoC984Qvz9oX0peV2dQncwjkAAI9MOAcAgA0SzgEA4HKEcwAA2LB8aGgN6Yfu/93ug6AtnAMAgHAOAACbJpwDAMD5CecAAHAHEtA/97nPzUsQP3QJ2QI6AAAI5wAAcBeEcwAAOB/hHAAA7tBnPvOZeQnp+yacAwDA3wjnAABwh4RzAAA4nXAOAAB3LG/h8qlPfeqFJaxnwjkAAPyNcA4AAHdMOAcAgOMJ5wAA8IAS1D/+8Y+/MAEdAACEcwAAeEjCOQAALBPOAQCA/0c4BwAA4RwAABgI5wAAIJwDAAAD4RwAAIRzAABgIJwDAIBwDgAADIRzAAAQzgEAgIFwDgAAwjkAANAQ0AEAeGTCOQAA8HeEcwAAHplwDgAA/B3hHACARyacAwAAf0c4BwDgkQnnAADA3xHOAQB4ZMI5AADwd4RzAAAemXAOAAAsEtABAHhEwjkAALBIOAcA4BEJ5wAAwCLhHACARyScAwAAi4RzAAAekXAOAAAsEs4BAHhEwjkAALBIOAcA4BEJ5wAAwF4COgAAj0Q4BwAA9hLOAQB4JMI5AACwl3AOAMAjEc4BAIC9hHMAAB6JcA4AAOwlnAMA8EiEcwAAYC/hHACARyKcAwAAewnnAAA8EuEcAADYSzgHAOCRCOcAAMDBBHQAAB6BcA4AABxMOAcA4BEI5wAAwMGEcwAAHoFwDgAAHEw4BwDgEQjnAADAwYRzAAAegXAOAAAcTDgHAOARCOcAAMDRBHQAAO6ZcA4AABxNOAcA4J4J5wAAwNGEcwAA7plwDgAAHE04BwDgngnnAADA0YRzAADumXAOAAAcTTgHAOCeCecAAMDRhHMAAO6ZcA4AABxNOAcA4J4J5wAAwMkEdAAA7pFwDgAAnEw4BwDgHgnnAADAyYRzAADukXAOAACcTDgHAOAeCecAAMDJhHMAAO6RcA4AAJxMOAcA4B4J5wAAwJMJ6AAA3BPhHAAAeDLhHACAeyKcAwAATyacAwBwT4RzAADgyYRzAADuiXAOAAA8mXAOAMA9Ec4BAIAnE84BALgnwjkAAHA2AjoAAPdAOAcAAM5GOAcA4B4I5wAAwNkI5wAA3APhHAAAOBvhHACAeyCcAwAAZyOcAwBwD4RzAADgbIRzAADugXAOAACcjXAOAMA9EM4BAICzEc4BALgHwjkAAHB2AjoAAFsmnAMAAGcnnAMAsGXCOQAAcHbCOQAAWyacAwAAZyecAwCwZcI5AABwdsI5AABbJpwDAABnJ5wDALBlwjkAAHAxAjoAAFsknAMAABcjnAMAsEXCOQAAcDHCOQAAWyScAwAAFyOcAwCwRcI5AABwMcI5AABbJJwDAAAXI5wDALBFwjkAAHAxwjkAAFsknAMAABcjnAMAsEXCOQAAcHECOgAAWyKcAwAAFyecAwCwJcI5AABwccI5AABbIpwDAAAXJ5wDALAlwjkAAHBxwjkAAFsinAMAABcnnAMAsCXCOQAAcDUCOgAAWyCcAwAAVyOcAwCwBcI5AABwNcI5AABbIJwDAABXI5wDALAFwjkAAHA1wjkAAFsgnAMAAFcjnAMAsAXCOQAAcHUCOgAAayacAwAAVyecAwCwZsI5AABwdcI5AABrJpwDAABXJ5wDALBmwjkAAHB1wjkAAGsmnAMAAFcnnAMAsGbCOQAAcHXCOQAAayacAwAAVyecAwCwZsI5AABwMwI6AABrJJwDAAA3I5wDALBGwjkAAHAzwjkAAGsknAMAADcjnAMAsEbCOQAAcDPCOQAAayScAwAANyOcAwCwRsI5AABwcwI6AABrIpwDAAA3J5wDALAmwjkAAHBzwjkAAGsinAMAADcnnAMAsCbCOQAAcHPCOQAAayKcAwAANyecAwCwJsI5AABwc8I5AABrIpwDAAA3J5wDALAmwjkAALAaAjoAAGsgnAMAAKshnAMAsAbCOQAAsBrCOQAAayCcAwAAqyGcAwCwBsI5AACwGsI5AABrIJwDAACrIZwDALAGwjkAALA6AjoAALcknAMAAKsjnAMAcEvCOQAAsDrCOQAAtyScAwAAqyOcAwBwS8I5AACwOsI5AAC3JJwDAACrI5wDAHBLwjkAALBaAjoAALcgnAMAAKslnAMAcAvCOQAAsFrCOQAAtyCcAwAAqyWcAwBwC8I5AACwWsI5AAC3IJwDAACrJZwDAHALwjkAALBawjkAALcgnAMAAKslnAMAcAvCOQAAsHoCOgAA1yScAwAAqyecAwBwTcI5AACwesI5AADXJJwDAACrJ5wDAHBNwjkAALB6wjkAANcknAMAAKsnnAMAcE3COQAAsBkCOgAA1yCcAwAAmyGcAwBwDcI5AACwGcI5AADXIJwDAACbIZwDAHANwjkAALAZwjkAANcgnAMAAJshnAMAcA3COQAAsBnCOQAA1yCcAwAAmyGcAwBwDcI5AACwOQI6AACXJJwDAACbI5wDAHBJwjkAALA5wjkAAJcknAMAAJsjnAMAcEnCOQAAsDnCOQAAlyScAwAAmyOcAwBwScI5AACwWQI6AACXIJwDAACbJZwDAHAJwjkAALBZwjkAAJcgnAMAAJslnAMAcAnCOQAAsFnCOQAAlyCcAwAAmyWcAwBwCcI5AACweQI6AADnJJwDAACbJ5wDAHBOwjkAALB51wrnz54/e2Gvvfbuzn3+8395Xn9ZvZ1wDgCwbsI5AACwecI5AADnJJwDAACbd+5wnsD9+ut/uZ8T9vz5X57HsKWg/tnP/mBeHg8AgHXwkxkAALB5wjkAAOfkJzMAAGDzTg3nCdZf+tJfvm7Yl7/804NWb5cthfR9AT379Ke/P09QBwC4DT+BAQAAmyecAwBwTn4CAwAA7sahAT2Bu4bwr371L79/xOrtx3g+7VwB/ROf+M48AACuQzgHAADuhnAOAMA5COcAAMDdWArnecuTBO4awL/+9Z+3+9a3fjmv+71xuZ8xok87NKAnnNeAnnD+yU9+d14CurdwAQC4LD9pAQAAd0M4BwDgHPykBQAA3I0azpeCeYJ3wnj27W//6qDV29WAni0F9ITzpYCecL43oD97dR4AAOclnAMAAHdDOAcA4ByEcwAA4O4kVCdg11BeQ/jbb/+63fe+99t53e9Ny+1rQM8ODeg1nNeAXsN5DeivvPLmPAAAzkM4BwAA7o5wDgDAUwjnAADA3Tg0mCd8J4xn77zzu52rX78voC+F8yzhfCmg13BeA3rC+cc+9tY8AR0A4DyEcwAA4G4kSAvnAAA8hXAOAABsXj4E9NhgniD+ox/9/qCNEX3aUwP6vrdsSTivAX1fOPehoQAATyOcAwAAmyecC+cAAOcknAMAAJuVYJ4gvRTM94Xyn/zkDwet3u7QgH7pcF4D+kc/+sa8/P0AAHAcP0EBAACbJZwL5wAAl+AnKAAAYLMSohOmazBPyK7BvAbxX/zijwctXz/G82m5/6VwnqBfA/q+cF4D+qHhPG/Z8pGPfGMeAADHEc4BAIDNEs6FcwCASxDOAQCAzcmHXyZEJ0zXYJ63UEngXgrlv/nNnw5avr4G9ITz+pYttw7necuWD3/4a/MAADiMcA4AAGyOcC6cAwBcknAOAABsRv0w0IToBOqE8wTsBO2lcJ4g/v77f965pXCeLYXzPJ+lcJ4PCb10OM9btviwUACAw/iJCQAA2AzhXDgHALgGPzEBAACbkbdoSXhOkE44T7BOwH5qMM/y9VkN6HmcY8P5vrdqSTDfF84TzPeF85de+so8AAB2E84BAIDNEM6FcwCAaxDOAQCAzchbmyRAJ0gnUCdYn+stWrIxmk+r4fzUt2o5NJwnmD81nPuQUACAwwjnAADAZgjnwjkAwDUI5wAAwOrlQy1vHc5rMM/9L4XzvIXMucJ5gvlSOE8w3xfOfUgoAMBuflICAABWTzgXzgEArslPSgAAwOolMCc4nyucZ10sn1a/7tBwnudTw3mef/4DwKnhPMF8KZwnmC+F8w996IvzAADoCecAAMDqCefCOQDANQnnAADA6h0bzhOwl8J5VsP40vL1+4J5Hj/PJ88vz3cpnC8F833hPMF8KZwnmAvnAADHEc4BAIDVE86FcwCAaxLOAQCA1cqHWO4L53lLlBrOE7b3BfR9y+2ypXCeYF7foiXPtwbzY9+i5dRwnmD+0ktfmZdw7kNCAQB6fkICAABWSzgXzgEAbsFPSAAAwGrVcJ7wvBTOE65rOM9qQM8ODeVZ7i+Pk2Cfx6/BPMH/qeE8wbyG8wRz4RwA4Dz8hAQAAKyWcC6cAwDcgp+QAACA1VoK5wnRCdM1nCdk7wvo2VIgz+rtl4J5nkcN56cG86VwnmBew3mC+cHh/Nmr8wAAeJFwDgAArJZwLpwDANyCcA4AAKzWoeE8oXpfQM9qCN+3evtDg3me56nhvAbzGs4TzGs4r8G8hvNnz55/MOEcAKAjnAMAAKslnAvnAAC3IJwDAACrlbCb0PzUgJ7VEL5vuV3uL7tUMF8K5wnmNZwnmC+F8wTzv71FS8L5XwcAwIuEcwAAYLWEc+EcAOAWhHMAAGC18lYth4bzbCmgZ2NE37V6uxrKszzuqcG8hvMazGs4TzCv4TzB/PBw7q1aAAA6wjkAALBawrlwDgBwC8I5AACwWjWcZ6cG9LoaxrPua6fVUJ4dG8xrOK/BvIbzBPMazhPMazivwVw4BwA4jnAOAACslnAunAMA3IJwDgAArFbCecJzDedZDehZDdwJ38eu3k/uP4+b5fnUYJ6dK5jXcJ5gvhTO/z6Yf7AP/n4BAHiRn5AAAIDVEs6FcwCAW/ATEgAAsFoJuwnOCdD7Ano2RvRpNYDvW719lvuvj1+DeZ53VoN5DecJ5jWcnxrMhXMAgNP4CQkAAFgt4Vw4BwC4BT8hAQAAq5fwnCCdJVRnNWSPEX1aF8F3rd6+3n99/DyvMZZPOzWY13CeYF7DeYJ5DeeLwfyDAQDQE84BAIDVS4Aeo/m0Gq5r2K7hu4vju1ZvX++/Pn6e1xjNpwnnAADbIpwDAACrl/CcED3G82k1YGc1dNctBfGl1fuvz6OG8uxSwbyG8xrMhXMAgNMI5wAAwOolQAvnwjkAwDUI5wAAwOrlQywTohOosxqwa+B+6ur9Z/V5jLF8Wg3llw7mNZx3sXyeDwUFANjJT0oAAMDqCefCOQDANflJCQAA2IyE6ITpGq6zLnI/Zd1jTBsj+bQ8v+zUYF7D+VIwr+F8bzD/YAAA7CacAwAAm5EgnVDdxexpXfx+yrrHmDZG82ljNJ8mnAMAbJNwDgAAbMazZ6/OS5iu4bqL2+dcfbwxko+7VTAXzgEAzkM4BwAANkM4F84BAK5BOAcAADYjH2pZQ3UN2kvrYvi07mu71cfNjg3lWQ3lxwbzGs67SP7CfCgoAMBB/MQEAABshnAunAMAXIOfmAAAgM3JW7YkVHcxe1oXv3etu49uYyQfty+YJ5RfPZh/MAAADiOcAwAAmyOcC+cAAJcknAMAAJvx5Z/+dN7Xf/7zeQnUNWB3sfuY1furG+P4uBrKM8EcAGBbhHMAAGAzhHPhHADgGoRzAABgM2o4z4ddJlx3kfspG6N4ty6ST6uhPLt2MPdhoAAAp/ETFAAAsBnCuXAOAHANfoICAABWrwbzt3/963k/+v3v59WAfql1kXxaF8mn7Qvl2dmD+QcfngoAwGmEcwAAYPWEc+EcAOCahHMAAGC19gXzX/zxj/N+86c/zUuw7uL2tC6GT+u+dtfGOD6uhvLs1FB+fDD/6wAAeBrhHAAAWC3hXDgHALgF4RwAAFitY8P5+3/+87wE6wTtLn7v2hjDd22M4+NqKM8EcwCAbRDOAQCA1RLO+0C+NAAAzkM4BwAAVufUYJ5/zvKhoQnaXfzetTGG71oXyaddOpT7EFAAgMsQzgEAgNURzg+dcA4AcAnCOQAAsBrnCuY/+cMf5r3zu9/NS0BP0O7i966NMbxbDeRZDeXZk4P5B38eAAAuw09aAADAagjnB044BwC4KD9pAQAAq3GpcJ77+dYvfzkvYbuL4Ls2RvFuXSSf9uRQ/sEAALgO4RwAAFgN4Xz3AAC4DuEcAAC4uWsF86/+7GfzvvTjH8/LW57U0N1F8Wn16+pqIM+6CH7QvCULAMBN+AkMAAC4OeF8YcI5AMBN+AkMAAC4uVuF8+c//OG8z7/zzrxPf//78xKsuwi+a238PmQCOQDAqvjJDAAAuDnhXDgHAFgTP5kBm/X82bMX9uzVV+fVXwcA1mttwfyT3/3uvI+99da8V958c95H33hjXgL3/1sXwbuV2wEAsG5+YgM2qwZy4RwAtkc4BwBgjfzEBmxGXujmBXZdfv/1996b99q778777A9+MC8vhAGA28v/fm8lmH/4a1+b99JXvjLvQ1/84rxnz6co/rcBAHAfhHNgM/KCd4zl4/L7wjkArF/+91s4BwBgjYRzYLXyVit5wZsXwN/+1a9e2L4XxksB3Vu5AMDtCOcAAKyZYgSslnAOAPdLOAcAYM0UI2B1ErTzQjqB/Hu//e28vDDO8uv5uvoCeSmc54WxgA4A1yOYAwCwBUoRsDrCOQDcL+EcAIAtUIqA1ckL3YTwvCDOC+S8oM4/54V2XjDnhfi+F8qf+M535uWFMQBwOYI5AABbIpwDqyOcA8D9Ec4BANgS4RxYjbzAzQvfvAVLXiDnBXN9IZ3fz9fn9nmBvi+c54VyXhgDAOcnnAMAsCXCObAawjkA3C/hHACALRHOgdXIC+r6Fi15IZ0X0PWF9KHhfOnDQfNCOS+QAYDzyf8eC+YAAGyJcA6sRl5YC+cAcD/yv8fCOQAAWyKcAzf3/NmzeXlhXcN5XijXF9B5oZ0X3nkBnRfmeeH82rvvzlsK5/WFcp4PAHA6wRwAgC1ThoCbE84B4P4I5wAAbJkyBNxcDed5IZy3XskL7LxwzvLrS2/R8vp7782rL5zrh4LmBXNeKAvnAPB0+d9j4RwAgC1ShoCbE84B4P7kf4+FcwAAtkgZAm7u2auvzssL3rwAzlu25AVyAnm29MI5wXzfW7TkBfNHvvGNeXmhnOcDABxPMAcA4B4I58DNCecAcD+EcwAA7oFwDtxc3holwbsG9LzwzgvlLL+eF+j7gvnSW7TkBXNeKHurFgA4nXAOAMA9UIaAmxPOAeB+COcAANwDZQi4uYTqBO+88M0L4SwvxLP8+lIwzwvmBPO8YM4L5b97i5YPXhgL5wBwvPzvs2AOAMA9UIaAmxPOAWD78r/PwjkAAPdAGQJWI8E7ATzLC+K6/H5eKOf2eaF8aDCvL5QBgMMJ5gAA3CPhHFgN4RwAtkc4BwDgHgnnwGrkhW4CeJYXxFn9/fpCeV8wzwtmL5QB4OmEcwAA7pFwDqxGXujWMD5G82n194VzALgd4RwAgHsknAOrkxe8WV4I1xfEWQ3l9QWyYA4A5yeYAwBwz4RzYHXGKD5tjObjC+NMOAeA6xPOAQC4Z8I5sDrPnz2blxe+CeM1kGd5YVxfICeY73uBnMfL7QGAZYI5AACPQDgHVkc4B4D1Es4BAHgEwjmwWgnaeeGbF8L1BXGWUH7oC+Tcfz5kNC+8c/8AwN8TzgEAeATCObBawjkArI9wDgDAIxDOgc3IC968AK4vhLOlF8RZfSH+2rvvzhPQAWCZYA4AwCMRzoHNyAvfMZqPL4gz4RwAzk84BwDgkQjnwGblrVayZ6++Oq/+el7o54V4fUEunAPAMsEcAIBHJJwDm1UDuXAOAOcnnAMA8IiEc+DuJIAniL/+3nvzBHQAOJ5wDgDAIxLOgbsjnAPA+QjnAAA8IuEcuDvCOQA8nWAOAMAjE86BuyOcA8DTCecAADwy4Ry4WwI6AJxOOAcA4JEJ58DdEs4B4HTCOQAAj0w4B+6egA4AhxPMAQBAOAcegHAOAIcTzgEAQDgHHoBwDgD7CeYAAPA3wjlw94RzANhPOAcAgL8RzoGHIaADwDLhHAAA/kY4Bx6GcA4Ay4RzAAD4G+EceDgCOgD8jWAOAAB/TzgHHo5wDgB/I5wDAMDfE86BhyOcA4BgDgAAuwjnwMMRzgFAOAcAgF2Ec+BhCegAPDLhHAAAlgnnwMMSzgF4ZMI5AAAsE86BhyWcA/CIBHMAANhPOAcelnAOwCMSzgEAYD/hHHh4AjoAj0AwBwCAwwnnwMMTzgF4BMI5AAAcTjgH+ICADsA9E84BAOBwwjnAB4RzAO6ZcA4AAIcTzgE+IJwDcI8EcwAAOJ5wDvAB4RyAeyScAwDA8YRzgEJAB+CeCOcAAHA84RygEM4BuCfCOQAAHE84ByiEcwDugWAOAACnE84BCuEcgHsgnAMAwOmEc4AFAjoAWySYAwDA0wnnAAuEcwC2SDgHAICnE84B9hDQAdgS4RwAAJ5OOAfYQzgHYEuEcwAAeDrhHGAP4RyALRDMAQDgfIRzgD2EcwC2QDgHAIDzEc4BDiSgA7BGgjkAAJyfcA5wIOEcgDUSzgEA4PyEc4ADCecArJFwDgAA5yecAxxIOAdgjYRzAAA4P+Ec4EgCOgBrIJgDAMDlCOcARxLOAVgD4RwAAC5HOAc4kYAOwC0I5gAAcHnCOcCJhHMAbkE4BwCAyxPOAU4knANwC8I5AABcnnAOcCLhHIBbEM4BAODyhHOAJxLQAbgGwRwAAK5HOAd4IuEcgGsQzgEA4HqEc4AzEdABuATBHAAArk84BzgT4RyASxDOAQDg+oRzgDMRzgG4BOEcAACuTzgHOBPhHIBLEM4BAOD6hHOAMxPQATgHwRwAAG5HOAc4M+EcgHMQzgEA4HaEc4AzE84BOAfhHAAAbkc4Bzgz4RyAcxDOAQDgdoRzgAsR0AE4hWAOAAC3J5wDXIhwDsAphHMAALg94RzgwgR0AA4hmAMAwHoI5wAXJpwDcAjhHAAA1kM4B7gw4RyAQwjnAACwHsI5wIUJ5wAcQjgHAID1EM4BrkRAB6AjmAMAwPoI5wBXIpwD0BHOAQBgfYRzgCsRzgEYCeYAALBewjnAlQjnAIyEcwAAWC/hHODKBHQAJsI5AACsl3AOcGXCOQAT4RwAANZLOAe4EQEd4DEJ5gAAsH7COcCNCOcAj0k4BwCA9RPOAW5EOAd4LII5AABsh3AOcCPCOcBjEc4BAGA7hHOAGxPQAR6DcA4AANshnAPcmHAO8BiEcwAA2A7hHODGhHOA+yaYAwDA9gjnADcmnAPcN+EcAAC2RzgHWAkBHeA+CecAALA9wjnASgjnAPdJOAcAgO0RzgFWRkAHuA+COQAAbJdwDrAywjnAfRDOAQBgu4RzgJURzgG2TTAHAIDtE84BVkY4B9g24RwAALZPOAdYKQEdYJuEcwAA2D7hHGClhHOAbRLOAQBg+4RzgJUT0AG2QTAHAID7IZwDrJxwDrANwjkAANwP4Rxg5YRzgHUTzAEA4P4I5wArJ5wDrJtwDgAA90c4B9gIAR1gnYRzAAC4P8I5wEYI5wDrJJwDAMD9Ec4BNkI4B1gXwRwAAO6XcA6wEcI5wLoI5wAAcL+Ec4CNEdABbkswBwCA+yecA2yMcA5wW8I5AADcP+EcYKMEdIDbEM4BAOD+CecAGyWcA9yGcA4AAPdPOAfYKOEc4LoEcwAAeBzCOcBGCecA1yWcAwDA4xDOATZOQAe4DuEcAAAeh3AOsHHCOcB1COcAAPA4hHOAjRPOAS5LMAcAgMcjnANsnHAOcFnCOQAAPB7hHOBOCOgA5yWYAwDA4xLOAe6EcA5wXsI5AAA8LuEc4M4I6ADnIZwDAMDjEs4B7oxwDnAewjkAADwu4RzgzgjnAE8jmAMAAMI5wJ0RzgGeRjgHAACEc4A7JaADHEcwBwAAQjgHuFPCOcBxhHMAACCEc4A7JZwDHEc4BwAAQjgHuFPCOcBxhHMAACCEc4A7J6ADj+bZs+cv7I033tg5wRwAAKiEc4A7J5wDj0Y4/+sAAIDTCecAD0JAB+5Nwvhbb7110t78yxk2TTAHAAAq4RzgQQjnwL0RzoVzAAC4FOEc4EEI58BWJZC//fbbL+xf/uVfDlq9XVZDunAOAACEcA7wIIRzYKuEc+EcAACuTTgHeDC3CugJX1n3AX3jvvnNb86rtwMeRwJ3DeH/+q//etTq7cd4Pq0GdMEcAAAQzgEejHAObEXCdg3fXRzftXr7MZpPE84BAIBKOAd4UJcK6AncNUQdunxYX7YU1P/5n/95nqAO9yPXcwJ3DeD/9m//1u7f//3f53W/Ny73M0b0aUsBPeeQcA4AAI9HOAd4UMI5sDa5nhO0x2g+rYvh04Tzvw4AADgf4RzgQV0qnNcgtbSEqrqlcLUvoGf/9E//NE9Qh+1YCuYJ3gnj2X/8x38ctHq7GtCzei7V8ycTzAEA4HEI5wAPSjgH1kI4F84BAGBthHOAB3eugF5D1L4lVNVgVcNVDVjHBvR/+Id/mAesT673nAs1lNcQ/uO/nD3d/vM//3Ne93vTcvsa0LN6LtVzqJ4/gjkAANw/4RzgwQnnwK3kes+5kJAtnAvnAABwa8I5wIM7NZzX0FW3FKjqarBaCldLASvhvAb0hPN//Md/nJeA7i1c4PZyfddzJOdGDeUJ49l//dd/7Vz9+n0BvZ5DeX5Zzp2l80c4BwCA+yOcAzw44Ry4tlzf9RzJuSGcC+cAAHBrwjkAs0MDeg1cWYLUvtXb1XC1FLBqOF8KWAnn+wL6yy+/PA+4nvyHq1zn9TzJOVGDeYL4f//3fx+0MaJPe2pA3/cf7nLeCOYAAHA/hHMAZsI5cGnCuXAOAABbIZwD8IKlgF7DVpYQVVdDVV1uX8PVUwNWDVk1nNeA/vz583nA5SSY53rOdV7PlZwbCd41iP/P//zPQau3OzSgPzWcZ4I5AABsn3AOwAuEc+DchHPhHAAAtkY4B2CWQJRwtBS2EpwSoLKEqaXVr18KV3ncpYCVJWDtC1kJ5zWgJ5y//vrr8wR0uJxcx7mul86VnBcJ3jWI/+///u9By9eP8Xxa7v/Y8+ep/8FOOAcAgO0RzgGYJUgnGCUgLQWuGsITpJZWv/7YcDVG82ljNO9ClnAO65HrONf10rmS8yKhe4zm07pI3i1fP0bzabn/Y88f4RwAAB6PcA7w4PIWCglFCUdLYSvhuwaufcvXZ08N6PtCVgLWUshaCuc+NBTOJ9dTPV+WzpWcF0uh/P333z9o+foa0JfOn33nzlPDec6bTDAHAID1E84BHpxwLpzDpQjnwjkAAGyVcA7woBLME4YSjBKQErYSmBKcEqCyhKl9q7dbClh53DyPGrDOHc6zBPQvfOEL8/L3A/zND58/P2q5bnMdH3q+5Nyowfz//u//dm4pnGf7zp2lcJ5z51zhvP4HO8EcAADWRzgHeFDCeR+yhHNY1sXxXct1m+v40PMl54ZwDgAA3IpwDvCg9gWtBKWloJUlUO1bvj73k+X+a8DK81kKWfvC+VND1uc+97l5bEMXbe38+/GXvnTUcr3mOs51nes9ATvnQT1XDg3mWb4+Wzp/jg3n5/oPdTln6nmT/2CXc+dTn/rUPAAA4HaEc4AHlSCUQJSglYCUoCScswVd5LXzr4vju5brNddxrutc78K5cA4AAGslnAM8GB/Wd1g4T8j6zGc+M+9UXXy086+Ltnb+/eyrXz1q+86ZXP9L50zOjy6SdxvPnGn13Fk6b/K8Tj1v6jmzdN6M0bw7bxLOn3ruAAAATyecAzwY4Vw4v8d1kdfOvy6O79q+cybX/9I5k/Oji+TdxjNnWj13ls6bPK9TzxvhHAAA7o9wDvAg6oeBJgwlUCccJSidK2gtBazs1JB16Q/rqyErf39dtN21Lj7a+ddFWzv/fvmtb520XMe5rnOdn+ucyZbOm9z/0nnz1P9Qt3TO1POmnjNL503Cec4dAADg+oRzgAeRAJMQlDAknAvn97Au8tr510XxQ5brONd1rvNznTPZ0nmT+186b4RzAACgEs4BHkTeoiUhKIEowSgBKUHp3CErWwpaNWTtC+eHhqyloFVDVg1aNWTlw/q6aLtrXXy086+LtXb+/frtt09aruNTw3nWnTHT6tctnTM1nOf51HCecyb/ge7UcJ5zpp439Zyp503C+cc//vF5AADA9QnnAA9COBfO73ld5LXzr4vihyzXca7rXOfCuXAOAABrJZwDPIgEoATop4asLl51G2PWtBq0asjK88jzyvM8NZwnZC0FrTGad0Grhqwu2u5aFx/t/OtirZ1/v/3e907a0nmT637pvMnqObK0fH3uJ/d76jlTw/nSOVPPm1PPmXreCOcAAHA7wjnAgxDOhfN7Xhd57fzrovghWzpvct0vnTdZPUeWlq/P/eR+Tz1nhHMAAHhcwjnAncuHy906nB8btOpbJ9SgdWw4T8haCloJWUtBKyErf59dvO3WxUc7/7pYa+tZruNc17nOc93vO3cOXW6XLZ0zOfeWzpkazM91ztTzZumcyVtDJZzn3AEAAK5HOAe4cwkuwvnuoDVG811BK3+fXSTv1kVeO/+6WGvrWa7jXNe5znPd7zt3Dl1uly2dM8I5AACwj3AOcOcSfhKcE4YSik4N51kXy6fVr6th69iglef/1KCVkFWDVg1ZS0ErIauLt926iGj2aMt1nOs613mu+5wDWT1/spwj9TzJcrss95fHyTmXx8/zyrl4rXOmnjfCOQAArI9wDnDnEn4ShITz3UFrjOZd0BLOzY5frmPhXDgHAICtEM4B7lzCT4LQvnCewJTwlCBVg1UN40vL19ewda6gtRSy9gWthKwatGrIqkErIauLg2bWL9dxDef13Mm5kOW8yOo5Uldvv3S+5HnUc+bUYH7qOVPPm6Vw/vLLL88DAACuRzgHuHMJQMK5cG52q+U6Fs6FcwAA2ArhHOBO5f/anwC0FM4TkJYCVoJUgtUYzw9ZbpfVwJXHu1TQSsg6NmjtC1n5++0iodm97lff/vZJWzp3ct3X8yfLOXHo6u1zv/vOl6X/MHfsOZPzpZ4zOV/2nTP1vHnllVfmCecAAHB9wjnAnRLOhXOzc6+L4ods6dzJdV/PnyznxKGrt8/97jtfhHMAAKASzgHuVA3nCUL7AlaCUw1SNaBnh4byLPe3FLbWGrSE83Wvi7V2/v3yW986abmO950/OQ+ynBOHLrfL/WV5nHOfL0vnTM6Xes7kfDn0nEk4zwAAgOsRzgHulHAunD/Sushr518XxQ9ZruN950/OgyznxKHL7XJ/WR7n3OfL0jkzRvPxnBmj+SHnjHAOAAC3I5wD3KmlcF4D1lK4Soga4/m0GsKXAnlWb78UuJbC1lqDVt46oYu447r4aOdfF2vt/PvZV7960uq5k+V6r+dQlnNi3+rt6nmS5XHzfI49X+o5U8+Xes7kfKnnTM6XfedMgrm3agEAgOsTzgHulHAunD/Sushr518XxQ9ZPXeyXO/1HMpyTuxbvV09T7I8bp7PsedLPWeEcwAAuF/COcCdOjScJyjVcJUgldCd1RC+b/X2NXTVwPXUsHWuoJWQVYNWDVldxB3XxUc7/7pYa+ffj7/0pZO2dP5k9Ryqy3lR133ttHqeZMeeK/vOl3rO5Hyp50zOl6VzJudLJpwDAMDtCecAd0o4F84faV3ktfOvi+KHbOn8yeo5VJfzoq772mn1PMmOPVf2nS/1nBmj+XjOjNG8O2fGaD5NOAcAgNsTzgHuVEJLglAC0VLAquEqYSqhO6shfN9yuzF2TVsKXMeGrRq0atg6V9CqISvrIu64Lj7a+dfFWjv/fviXa+aULZ0/Wa7/LOfCsav3k/vP42ZL58q+82WM5YecL/Wcyfly7DmT/xAKAABcj3AOcKeEc+H8kdZFXjv/uih+yJbOnyzXf5Zz4djV+8n953GzpXNl3/kyRvNDzpd6zozR/JhzRjgHAIDrE84B7lRCS8LQUriqoSkBqgb0bIzou1ZvV0N5lsetgWspbNWgtRS2ErRq2DpX0Mp/mOgi7rguPtr518VaO//e+fznT1qu5yzXeZbrPxvPpENWb5/l/uvjL50r9XzJuXLp82XpnMmEcwAAuD7hHOBOCefnDVvC+brXRV47/7oofshyPWe5zrNc/9l4Jh2yevss918ff+lcqefLGM0veb4snTOZcA4AANcnnAPcqRrOs4SjGqxqiErYTvCuq2E86752Wg3l2VLgyvM9NGwlaNWwlaBVw1aCVg1bhwathPMu4o7r4qOdf12stfPv+5/+9Ekbz6Bpuc6zXP9ZzoVDV29f778+/rmD+bHnSz1nloJ5BgAAXJ9wDnCnhHPh/JHWRV47/7oofsjGM2harvMs13+Wc+HQ1dvX+6+PL5wDAAD7COcAdyrhPIEowagGpYSmGqJq4E74Pnb1fnL/Y+SaludTw1a2FLbGWD6GraWgVcNWglYNW/uCVv5+u4g7rouPdv51sdbOv+9+8pMnLddxru+68UzqVs+Jfav3P54l0+p5Us+Ver6MsXzX+TLG8mPOl6VzJgMAePb82Qt77bV3d+7zn39nXr0dcDhXDMCdEs77sFUD16Fhq4Ys4Xxd6yKvnX9dFD9kuY5zfdeNZ1K3ek7sW73/8SyZJpwDAFtTA3gXy8cJ5/B0rhiAO5Wwm0CUYJSQVEPTGLGnjRF9Wg3g+1Zvn+X+6+PXwJXnnZ0atsZYPoatfUGrhq0asvL320XccV18tPOvi7V2/n3nE584abmOc31nue7PtXr/2XiWTBtj+Xiu5DzZd67U82WM5ec4X7KcMwDA40jgfv31907a8+c/fGFLQf2zn/3BPEEdlrkyAO5UgktCUQJSAlMN12M0n1aDdxfHd63ePsv918ev4WuMXNNq4KqhaylwjdF8DFxPDVv5++1i+bgu8tr510VeO/+6KH7Ich3n+s5y3Z9r9f6z8SyZNkbz8VwZo/muc6WeL2M0P8f5kuWcAQAeh3AO6+HKALhzCUU1JNXgVEP2GNGndRF81+rt6/3Xx8/zGuPWtBq2auB6athK0Kpha1/Q6uJtty4+2vnXxVo7/978y/f+KavXdTaeSedY9xjTxki+6zw59lyp58sYy59yvmQAwP1KsP7Sl378wr785Z8etHq7bCmk7wvo2ac//f15gjoI5wB3L+GoBqYarmvYruG7i+O7Vm9f778+fp7XGLum7QtdhwauMZqPgevUsNVF8m5d5LXzr4u8dv51UfyQ1es6G8+kc6x7jGljNN91nhx7rtTzZYzmTzlfMgDgfgnnsH6uAIA7l1CUgFRDUw3YWQ3ddUtBfGn1/uvzODZwHRq2xli+K2zVoLUvbHXxtlsXH+3862KtnX9vfPSjJ61e17neL7X6ePUcycZYfsy5Us+XpXPl1PMlAwDuTwJ3DeFf/erPjlq9/RjPp50roH/iE9+ZB49IOAe4cwlHCUo1WNegnXXxe5xw3ofyui7y2vnXRV47/7oofsjqdZ3r/VKrj1fPkWyM5secK/V8WTpXTj1fMgDg/iRs1/DdxfFdq7cfo/k04RyeTjgHuHP5cLkEpBqYasCugfupq/ef1ecxRq5pTw1bYyzfFbYStGrY6iLWtPx9dvG2Wxcf7fzrYq2df9/4yEdOWq7nep0vrZ4PWfe13fJ4dceeJ9mx58qp50uWcwYA2L685UkCdw3gX//6z9t961u/nNf93rjczxjRpx0a0BPOa0BPOP/kJ787LwHdW7jwSHynA9y5BJgEpRqiatDu4vdTVu8/q89jjF7TTg1dwvljrou8dv51UfyQ5Xqu1/nS6vmQdV/bLY9Xd+x5kgnnAMCphHPYLt/pAA8i4ShhqYtS07rI/ZR1jzFtjFzTxrg17djAlbBVA9ehYevQoNVF213r4qOdf12stfPvKy+9dNJyHdfrPKvnwb5199FtPEPGnXqeHHuuHHu+ZADA9i0F8wTvhPHs29/+1UGrt6sBPVsK6AnnSwE94XxvQH/26jy4Z8I5wINISEp46mL2tC5+P2XdY0wbI9i0MXZNO1foOjRwCefbXhd57fzrovghy3Vcr/Osngf71t1Ht/EMGXfqeXLsuXLs+ZIBANsnnMP2CecAD+Lll1+el6BUQ1QXt8+5+nhj3Bp3rsB1aNhK0Do0bHXRdte6+GjnXxdr7fx7/uzZScv1W6/v7gw4ZvX+6sazY1w9R7Kl8+TYc6WeL91Z0i3yfQ0AbE9CdQJ2DeU1hL/99q/bfe97v53X/d603L4G9OzQgF7DeQ3oNZzXgP7KK2/Og3sknAM8COG8D1xjND8kcHVxfNfGuGuXWxd57fzrovghy/Vbr+/uDDhm9f7qxrNjXD1HsqXz5NhzpZ4v3VnSLfJ9DQBsj3AO90M4B3gQ+bC5Gp5q0F5aF8OndV/brT5uti90dXFr2rXDVv7+xlh7yLr4aOdfF2vt/DtVrp9c1/W6f+rGM6Nbd4ZMGyP5uGudK1n+fvIWTzk/AIDtODSYJ3wnjGfvvPO7natfvy+gL4XzLOF8KaDXcF4DesL5xz721jwBnXsknAM8iISZGq67yN2ti+bTuq/tVh832xfAutg17dqBK39/YxQ/ZF3ktfOvi7x2/p0q10+u63rdP3XjmdGtO0OmjbF83LXOlSx/P8I5AGxXgrRwDvdDOAd4MHnLlgSnLmZP6+L3rnX30W2MXeP2ha5bh60u1h6yLj7a+cc21IB+qdXzI6vnSLbvPMnOfa7kPP7OJz4x762PfWyegA4A25EPAT02mCeI/+hHvz9oY0Sf9tSAvu8tWxLOa0DfF859aCj3xCtNgAcjnJ8WuLoofsi6yGvnH9sgnL844RwAtk84F865X15pAjyYn375y/MSmGrA7mL3Mav3VzfGrXFd5Jp2bOA6d9iKLtYeMuDv5Xrurvlp3RkxrfvaXRvPjnH1HMlOPU+OPVey737yk/OEcwDYngTzBOmlYL4vlP/kJ384aPV2hwb0S4fzGtA/+tE35uXvB7bMdzDAgxHOhXO4tVzP3TU/rTsjpnVfu2vj2TGuniPZqefJsedKJpwDwHYJ58I59893MMCDSTivb5nQRe6nbIxd3brINa2LXNPOFbi6eNUtfz/A5eR6znXenQm7Np4RuzaeHePqOZIdep4ce65kP/jsZ+d9/9OfniegA8D2JEQnTNdgnpBdg3kN4r/4xR8PWr5+jOfTcv9L4TxBvwb0feG8BvRDw3nesuUjH/nGPNgy4RzgwQjnfciqE87h8nI95zrvzoRdG8+IXRvPjnH1HMkOPU+OPVcy4RwAtk84F865f8I5wINIMP/lt74179dvvz2vBvRLrYte07rINe3cgauLV93yYX3A9eQcyvXenQm7Np4Vu9adIdMOPUeOPU+ynCvvvvbavHc+//l5AjoAbE8+/DIhOmG6BvO8hUoC91Io/81v/nTQ8vU1oCec17dsuXU4z1u2fPjDX5sHWyScAzwI4bwPWnXCOVyfcC6cA8BWCOfCOY9DOAe4c0vB/Pc/+tG8P/7iF/MSoLq4Pa2L4dO6r921MXaN6yLXtGsHLuB2EtBzvXdnwq6NZ0W3en5k9RzJnnqe5M/zw7+ccdOEcwDYrvphoAnRCdQJ5wnYCdpL4TxB/P33/7xzS+E8WwrneT5L4TwfEnrpcJ63bPFhoWyR71iAOyec90FracDtCOfCOQCslXAunPN4fMcC3LlDw/mffvObeQlQCdpd/N61MYbv2hi7xnWxa9q+0PXUwAWsT6737kzYtfGs6FbPj+yp50iWc/fHX/rSvPf+cjZOE9ABYLvyFi0JzwnSCecJ1gnYTw3mWb4+qwE9j3NsON/3Vi0J5vvCeYL5vnD+0ktfmQdbIpwD3Dnh/LAB65PrvTsTdm08K7rV8yN76jmSCecAcH+Ec+GcxyOcA9ypY4N5Xd5iIEG7i9+7NsbwXeui17R9oeupgcuHgMJ25Dyq50A9J7L6dXX1/Mi6s+KQ5fn97KtfnSecA8D9yVubJEAnSCdQJ1if6y1asjGaT6vh/NS3ajk0nCeYPzWc+5BQtkg4B7hTwvnuCeewHTmP6jlQz4msfl1dPT+y7qw4ZHl+wjkA3C/hXDjn8QjnAHfqqeE8v58glKDdxe9dG2N4ty56Teti17Snhq78eYDty/Vcz4V9686GQ5bHSyDfNwEdALYvH2p563Beg3nufymc5y1kzhXOE8yXwnmC+b5w7kNC2RLfqQB3Sjjvlz8PsH25nuu5sG/d2XDI8nhdJO8mnAPA9gnnwjmPy3cqwJ05VzD/w09+Mu9377wzL/eTsN1F8F0bo3i3LpJPO1fwAh5HAnfWnQnd6u0SuhO+c75mXSzvlq8X0AFgexKYE5zPFc6zLpZPq193aDjP86nhPM8//wHg1HCeYL4UzhPMl8L5hz70xXmwBcI5wJ1JoBHOXxzwOGoA786EbvV2wjkAIJwL5zwu4RzgTiTMXCqY534TghKWaujuovi0+nV1NZBnXdw6ZHl+AFVCdAJ1gnUCdoK2cA4AHBvOE7CXwnlWw/jS8vX7gnkeP88nzy/PdymcLwXzfeE8wXwpnCeYC+dsmXAOcCcSZoTzv044B5YI5wDAoYRz4ZzHJZwD3ImEmWuF8wSghJ8EnwTrLoLvWhe/D5lADpxKQAcAluRDLPeF87wlSg3nCdv7Avq+5XbZUjhPMK9v0ZLnW4P5sW/Rcmo4TzB/6aWvzEs49yGhbIHvUIA7kSAjnAMcRjgHAJYI58I5+A4F2LiEmFsH8xp2atBJ4M66CN6t3g7gXHJeCecAQFXDecLzUjhPuK7hPKsBPTs0lGe5vzxOgn0evwbzBP+nhvME8xrOE8yFc+6R71CAjUuIEc4BjpPzSjgHACrhXDgH36EAG5cQs/Zw/sZHPzovYecrL70074sf+tC858+evTCAa8m5JaADALEUzhOiE6ZrOE/I3hfQs6VAntXbLwXzPI8azk8N5kvhPMG8hvME84PD+bNX58GaKRMAG5cAI5wDnCbnlnAOAIRwLpyDMgGwUQkvgjnAeeQcE9ABgEPDeUL1voCe1RC+b/X2hwbzPM9Tw3kN5jWcJ5jXcF6DeQ3nf3sbTuGc9VMoADYqwUU4BziPnGPCOQAgnAvnoFAAbExCi2AOcF45z4RzACBhN6H5qQE9qyF833K73F92qWC+FM4TzGs4TzBfCucJ5n97i5aE878O1kypANiYhBbhHOC8cp4J5wCAcC6cg1IBsDEJLcI5wGXkXBPQAeBx5a1aDg3n2VJAz8aIvmv1djWUZ3ncU4N5Dec1mNdwnmBew3mC+eHh3Fu1sH5KBcDGJLAI5wCXkXNNOAeAxyWcC+egVABsRMKKYA5wWTnfhHMAeFw1nGenBvS6Gsaz7mun1VCeHRvMazivwbyG8wTzGs4TzGs4r8FcOGfLFAuAjUhYEc4BLivnm3AOAI9LOBfOQbEA2IiEFeEc4DpyzgnoAPB4Es4Tnms4z2pAz2rgTvg+dvV+cv953CzPpwbz7FzBvIbzBPOlcP73wfyDffD3C2vmOxRgIxJUhHOA68g5J5wDwOMRzoVz8B0KsHIJKYI5wG3k3BPQAeBxJOwmOCdA7wvo2RjRp9UAvm/19lnuvz5+DeZ53lkN5jWcJ5jXcH5qMBfOuQe+QwFWLgFFOAe4jZx7wjkAPA7hXDgH36EAK5VwIpgD3FbOP+EcAB5PwnOCdJZQndWQPUb0aV0E37V6+3r/9fHzvMZYPu3UYF7DeYJ5DecJ5jWcLwbzDwZboGAArFTCiXAOcFs5/4RzAHg8CdBjNJ9Ww3UN2zV8d3F81+rt6/3Xx8/zGqP5NOEcTqdgAKxUwolwDrAOOQcFdAB4HAnPCdFjPJ9WA3ZWQ3fdUhBfWr3/+jxqKM8uFcxrOK/BXDjnHigYACuVYCKcA6xDzkHhHAAeRwK0cC6c83gUDICVSSgRzAHWJeehcM7/3979g9qW1vcfPzjgWAjTCLHSwiIgDLGL3ZTTGbugTYoRUmlK7Sws7LSSFAoBm0xlGiXcykIhTGMQi1gI0UICFg5YGLD5/fbaM5/cdb73Wfvv2nuvZ63XC76QzNzzx3v3edb3eV89B4DtyA+xTIhOoM7UgF0D97VT33+mfh7jWD5MDeW3DuY1nLdi+X78UFA64pUKsDAJJcI5wLLkPBTOAWA7hHPhnO3ySgVYmIQS4RxgmXIuCugAsB0J0QnTNVxnWpH7mml9jGHGkXyYfH6ZS4N5DedTwbyG86PB/MOBnigZAAuTQCKcAyxTzkXhHAC2I0E6oboVs4dpxe9rpvUxhhlH82HG0XwY4Ryup2QALETCiGAOsGw5H4VzANiOp6c395MwXcN1K27POfXjjSP5eB4VzIVz1kjRAFiIhBHhHGDZcj4K5wCwHcK5cM72KBoAD5YgIpgD9CXnpYAOAOuXH2pZQ3UN2lPTiuHDtH5ta+rHzZwbyjM1lJ8bzGs4b0XyZ+OHgtIhr1iAB0sIEc4B+pLzUjgHgPUTzoVztscrFuDBEkKEc4A+5dwU0AFgvfL8zbdsSahuxexhWvH70LTeR2vGkXw8x4J5Qvndg/mHAz1SNgAeLAuYcA7Qp5ybwjkArFeev8K5cM52KBsAD5LFSzAH6FvOT+EcANYnz93cr373/e/vJ4G6BuxW7D5n6vurM47j46mhPCOYw+UUDoAHqQuYcA7Qp5yfwjkArE+eu7lfCefCOduhcAA8SF3AhHOAvuUcFdABoH95zuZelWCe+1p+2GXCdStyXzPjKN6aViQfpobyzL2DuR8Gyhp4BQM8SF3EhHOAvuUcFc4BoH95zuZeJZwL52yPVzDAndUFTDAHWIecp8I5APQvz9ncr2o4z72sBvRbTSuSD9OK5MMcC+WZ2YP5hz88FdZA6QC4s7qACecA65DzVDgHgP7lOZv7lXDeiuStEc5ZD6UD4E7q4iWYA6xTzlcBHQD6k+dq7ldTwTz3tL+8//5+EqxbcXuYVgwfpvVrD804jo+nhvLMpaH8/GD+wcCaKB4Ad1IXMOEcYJ1yvgrnANCfPFdzvxLO24F8amBNFA+AO6kLmHAOsG45ZwV0AFi+PEdzrzo1mGfyzxOsE7Rb8fvQjGP4oRnH8fHUUJ4RzOF8igfAndRFTDgHWLecs8I5ACxfnqO5Vwnn7UA+NbBGigfAjdUFTDAH2Iact8I5ACxfnqO5X10aznNvyw8NTdBuxe9DM47hh6YVyYe5dSj3Q0DZAuUD4MbqAiacA2xDzlvhHACWL8/R3K+E82MjnLN+ygfAjdUFTDgH2JacuwI6ACxPnpu5V10bzOt9LQE9QbsVvw/NOIa3pgbyTA3lmauD+Yf/eWALvNIBbqwuYlmghHOAbci5K5wDwPLkuZl7lXB+ZIRzNsQrHeBG6gKWxUkwB9iWnL/COQAsR56XuVfNHcyn7msJ260IfmjGUbw1rUg+zNWh/MOBLVJAAG6kLmJZoIRzgG3J+SucA8By5HmZe5VwfnhgixQQgJnVBSyLk2AOsG05jwV0AHi8PCdzv7pXOM9zON/ypIbuVhQfpv66OjWQZ1oRfDxvv3ixn1f+nW/JAsI5wNzqApbFSTgH2Lacx8I5ADxenpO5Xwnn5d8J5yCcA8ytLmBZnIRzAAY5lwV0ALi/PBdzr7p3MM/zduq+lmDdiuCH5pXwffLsPp77HjT5ygCYWV3EskAJ5wAMci4L5wBwf3ku5l4lnAvnMMVXBsBM6gKWxUkwB2As57NwDgD3k+dh7lVLC+bH7msJ6v83zQjemPJ2VcJ5vmUL8JIiAjCTuohlgRLOARjL+SycA8D95HmYe5Vw/gHhHKYpIgAzqYtYFijhHICWnNMCOgDcXp6DuVf1Fs5vfV9LQAde8hUBMJO6iGWBEs4BaMk5LZwDwO3lOZh7lXD+nHAOr/IVAXCluoBlcRLMATgk57VwDgC3k+df7lWCeZtwDq/yFQFwpbqIZYESzgE4JOe1cA4At5PnX+5VwnmbcA6v8hUBcKG6gGVxEswBOEfObwEdAOaT513uVYI5cC5fcQAXqotYFijhHIBz5PwWzgFgPnne5V4lnAPn8hUHcKG6iGWBEs4BOEfOb+EcAOaT513uVcI5cC5fcQAXqotYFijhHIBz5PwWzgFgPnne5V4lnAPn8hUHcKa6gGVxEswBuEbOcwEdAC6X51vuVYI5cClfeQBnqotYFijhHIBr5DwXzgHgcnm+5V4lnAOX8pUHcKa6iGWBEs4BmEPOdQEdAE6X51nuU4L5dd5+8WI/sGVKCcCZ6kKWRUo4B2AOOdeFcwA4XZ5nuU8J59cRzkE4BzhZXcSyQAnmAMwp57twDgCny/Ms9yrh/DpPu489DGyZrwCAE9VFLAuUcA7AnHK+C+cAcLo8z3KvEs6vI5yDcA5wVF3AsjgJ5gDcUs57AR0ApuX5lXuVYD6PhHPfsoUtU04AjqiLWBYo4RyAW8p5L5wDwLQ8v3KvEs7nIZyDcA5wVF3EskAJ5wDcUs574RwAXpXnVu5TgvltJKDDFnnlAxxRF7IsUsI5ALeU8144B4BX5bmV+5RwfhvCOVvmlQ8woS5iWaAEcwDuKee/gA4AL+V5lXuVcH4bwjlb5pUPMKEuYlmghHMA7innv3AOAC/leZV7lXB+G8I5W+aVDzChLmJZoIRzAB4hzwEBHYAty/Mp9ynBHLgVX5kAE+pClkVKOAfgEfIcEM4B2LI8n3KfEs6BW/GVCVDURSwLlGAOwCPleSCcA7BFeS7lPiWYA7fmKxSgqAtZFinhHIBHyvNAOAdgi/Jcyn1KOAduzVcowIfqIpYFSjAHYEnyfBDQAdiSPI9yrxLOgVvzFQrwobqIZYESzgFYkjwfhHMAtiTPo9yrhHPg1nyFAnyoLmJZoIRzAJYkzwfhHIAtyHMo9ynB/LHefvFiP7AFigrAh+pClkVKOAdgSfJ8EM4B2II8h3KfEs4fSzhnSxQVYPPqIpYFSjAHYMnyvBDQAVijPHdynxLMl+Fp959hGNgCr3Rg8+pClkVKOAdgyfK8EM4BWKM8d3KfEs6XQThnS7zSgc2rC1kWKeEcgB7kuSGgA7Amed7kPiWcL4NwzpZ4pQObVxeyLFLCOQA9yHNDOAdgTfK8yX1KOF8G4Zwt8UoHNqsuYlmgBHMAepLnh3AOwBrkOZP7lGC+LAnnfkgoW6CwAJtVF7IsUsI5AD3J80M4B2AN8pzJfUo4XxbhnC1RWIDNqYtYFijBHICe5XkioAPQozxXcp8SzJctAR3WzCsc2Jy6kGWREs4B6FmeJ8I5AD3KcyX3KeF82YRztsArHNicupBlkRLOAehZnifCOQA9ynMl9ynhHHg0X8HA5tSFLIuUcA5Az/I8Ec4B6FGeK7lPCefAo/kKBjajLmJZoARzANYkzxcBHYAe5DmS+5RgDiyFr2RgM+pClkVKOAdgTfJ8Ec4B6EGeI7lPCefAUvhKBjajLmRZpIRzANYozxkBHYAlynMj9yjBHFgaX9HAZtTFLAuVcA7AGuU5I5wDsER5buQeJZwDS+MrGli9upBlkRLMAVizPG+EcwCWKM+N3KeE8z69/eLFfmCNlBdg9epClkVKOAdgzfK8Ec4BWKI8N3KfEs77JJyzZsoLsFp1EcsCJZgDsCV5/gjoACxBnhO5TwnmfXva/WcfRkBnjRQYYLXqQpZFSjgHYEvy/BHOAViCPCdynxLO+yacs2YKDLBadSHLIiWcA7Alef4I5wA8Up4PuUcJ5uuSgA5r4hUNrFZdzLJQCecAbEmeP8I5AI+U50PuUcL5ugjnrJFXNLA6dSHLIiWYA7BleR4J6AA8Qp4LuU8J5+uScO5btrAmvsKB1akLWRYp4RyALcvzSDgH4BHyXMh9SjhfF+GcNfIVDqxOXciySAnnAGxZnkfCOQD3lOdB7lGC+boloMMaeCUDq1MXsyxUwjkAW5bnkXAOwD3leZB7lHC+bsI5a+KVDKxGXciySAnmAPBSnk8COgC3lPM/9yjBHOiNr3hgNepiloVKOAeAl/J8Es4BuKWc/7lHCedAb3zFA92rC1kWKcEcAKbleSWgA3ALOfdznxLOgd74ige6VxeyLFLCOQBMy/NKOAfgFnLu5z4lnAO98RUPdK8uZFmkhHMAmJbnlXAOwJxy3uceJZgDvfKVD3SvLmZZqIRzAJiW55VwDsCcct7nHiWcA73ylQ90qy5kWaQEcwA4XZ5fAjoA18j5nnuUYL5tb794sR/omRMA6FZdzLJQCecAcLo8v4RzAK6R8z33KOF824Rz1sAJAHSrLmZZqIRzADhdnl/COQDXyPmee5Rwvm1Pu9+7YQR0euYEALpVF7MsVMI5AJwuzy/hHIBr5HzPPUo43zbhnDVwAgDdqQtZFinBHAAul+eZgA7AOXKe5x4lmDOWgA498soFulMXsyxUwjkAXC7PM+EcgHPkPM89SjhnTDinZ165QDfqQpZFSjAHgPnk+SagA3BIzu/cowRzWoRzeuaVC3SjLmZZqIRzAJhPnm/COQCH5PzOPUo4p0U4p2deuUA36mKWhUo4B4D55PkmnANwSM7v3KOEc1qEc3rmlQt0oy5mWaiEcwCYT55vwjkAh+T8zj1KOKdFOKdnXrnA4tWFLIuUYA4At5PnnYAOwFjO69yjBHNgrZwMwOLVxSwLlXAOALeT551wDsBYzuvco4RzYK2cDMDi1cUsC5VwDgC3k+edcA7AIOd07k+CObB2Tghg8eqClsVKOAeA28nzTjgHYJBzOvcn4RxYOycEsFh1MctCJZgDwP3k+SegA2xbzufco4RzYO2cEMBi1cUsC5VwDgD3k+efcA6wbTmfc48SzoG1c0IAi1MXsixSgjkAPE6ehwI6wLbkPM49SjDnGm+/eLEf6IGTAlicuphloRLOAeBx8jwUzgG2Jedx7lHCOdcQzumJkwJYnLqYZaESzgHgcfI8FM4BtiHncO5PgjlzeNr9GQwDPfBKBRanLmhZrIRzAHicPA+Fc4BtyDmc+5NwzhyEc3rilQosRl3MslAJ5gCwHHk+CugA65bzN/co4Zw5JJz7li30wIkBLEZdzLJQCecAsBx5PgrnAOuW8zf3KOGcOQjn9MSJASxGXcyyUAnnALAceT4K5wDrlHM39yfBnFtIQIcl8woFFqMuaFmshHMAWI48H4VzgHXKuZv7k3DOLQjn9MArFHi4uphloRLMAWC58rwU0AHWIeds7k+CObcknNMDr1Dg4eqClsVKOAeA5crzUjgHWIecs7k/CefcknBOD7xCgYepi1kWKsEcAJYvz03hHGAdcs7mHiWcA1vnBAEepi5mWaiEcwBYvjw3hXOAdcg5m3uUcA5snRMEeJi6mGWhEs4BoB95fgroAH3KuZr7k2AO8AEnCfAwdUHLYiWcA0A/8vwUzgH6lHM19yfhHOADThLg7upiloVKMAeAfuV5KqAD9CHnaO5PgjnAc04U4O7qgpbFSjgHgH7leSqcA/Qh52juT8I5wHNOFODu6oKWxUo4B4B+5XkqnAP0Iedo7k/COY/09osX+4ElcaIAd1cXtCxWwjkA9CvPU+EcoA85R3N/Es55JOGcJXKiAHdTF7MsVII5AKxHnq8COsAy5dzM/UkwZwmedn+Gw8CSeEUCd1MXtCxWwjkArEeer8I5wDLl3Mz9SThnCYRzlsgrEri5uphloRLMAWB98pwVzgGWJedl7k+COUuScO5btrAkThjg5uqClsVKOAeA9clzVjgHWJacl7k/CecsiXDOEjlhgJurC1oWK+EcANYrz1sBHWAZck7m/iScs0QJ6LAEXonAzdUFLYuVcA4A65XnrXAOsAw5J3N/Es5ZIuGcJfFKBG6mLmZZqARzANiOPH8FdIDHyLmY+5NgzpIJ5yyJVyJwM3VBy2IlnAPAduT5K5wDPEbOxdyfhHOWTDhnSbwSgZupC1oWK+EcALYjz1/hHOC+ch7m3iSYA5zHiQPcTF3UsmAJ5wCwHXn+CucA95XzMPcm4RzgPE4c4GRPT289m69//evNqQtaFivBHAC2K8/jtQT07D3/9E//tJ+6JwE8Ws7B3J+Ec4DzOHGAk9UL4TiWj6cuaFmshHMA2K48j4VzgPvIOZj7k3AOcB4nDvCKXPi+/e1vXzRZoLJQCeYAQJ7LvYfz7Dvf/OY3n834v0QwDur/+I//uB9BHbiXnH+5PwnmAJdx8gCvEM4taAAwtzyXhXOA28r5l/uTcA5wGScPbFgucN/dLT/j+ed//ueTpr5dZhzRhxHOAYDI87m3gH5s3zk1oGf+4R/+YT+COjCXnHe5NwnmrMHbL17sBx7BCQQbJpxb1ADg3vJ8Fs6Fc2BeOe9ybxLOWQPhnEdyAsEG5cJXQ/i//Mu/nDX17ceXyWHqhTKLWB3BHAC2J8/rXgL6qfvOpQH97/7u7/YDkL9Qy9TzpE7Ol5xzuT8J56zB0+41MAw8glcebFAueuPoPUwrjh+a+vbjS+Qw9SKZRayOcA4A25PntXAunAPPCefuZbwknPNIXnmwAVm4cuGrAfxf//Vfm/Nv//Zv+2n9u/Hk/eT9Z45dKLOYCecAsD15Xi81nM+179Swlanh/O///u/3k4Ce/Q1Yr3yd1/Pj1Mk5k8m9STBnTRLOfcsWHsFJBBuQhSwXvFz8MvVimBHOAYBbyfNaOBfOYavydV7Pj1Mn50wm9ybhnDURznkkJxGsWBaxXOxy4csFMGE88+///u8nTX27eqHMTF0o64JnQQOA7crzeykB/Vb7Tg3oCefHAvrrr7++H6BfuZflnMjk/Dg29e0yOW/quSOYs0YJ6HBPXnGwYsK5RQ0Ali7Pb+FcOIe1Es7dx7iecM4jeMXBCmWRyoUuF71c/MYRfJif/vSnzfmP//iP/bT+3TB5+3qhzJx6ocxF0oIGANuT5/jdw/mH+8y9952E8xrQazivAf2t3e/BMEA/ch7kfMjk3Dh16tvn/WZy3kydO8I5ayCc8whecbBCWaCyaOVilwtfLoCZ1iVxGOEcALi1PMeFc+Ec1ibnQc6HTM6NU6e+fd5vJufN1LkjnLMGwjmP4BUHK5LFKQtWLnS56OXil4tgLoqZ//zP/zw49dcfu1DWRW+83A2Tha4udrlIWtAAYDvyPL91QG/tOOO5975Tw3kN6Annb+/+Mw8joMNyTX2rzEzOjTr1XJmavJ+8/0zOm2MBXTAHOI+TCVYkC1NdzLKI5cKXC2C9GLYuj+Opv/7WF0mLGgBsR57nwrlwDr0Szt3HgHVxMsEKZEGrC1kWsFz0cvHLRTAXxP/6r/86acaXymGuvVBOLXT1IpmxoAHA+uX5PndAb+02rXn0vnNqOPdDQ2E5poJ5zoecF5mcI8emvl09bzLHzp16/gjmAKdxQsEKCOcWNQBYizzfhXPhHHohnLuPAevkhIKO1QWtLmZZuHLhywWwXhD/+7//+6Spb3fqhfLUhe7ci6RFDQDWJ8/3S8P52vadhPMa0P/2b/92P9kHgfvL13m+/qfuY5mcH3Xq+VInb5/3m4+TufT8yQjnAG1OKOiYcG5RA4C1yfNdOBfOYenydZ6v/6n7WCbnR516vtTJ2+f95uNkLj1/MsI5QJsTCjqWxSiLUl3QsmjVC2S9IP7P//zPSZNfP75MDpP3f2yxqwvdqYvcsYukBQ0A1ufUgL6VfSeTcJ5v2fI3f/M3+wHu59RgnvMiYTyT82Rq6q8/99zJ55fJ+TN1DuX8EczpydsvXuwHbslJBR3LYpRFaWpRywKWi9/4EjlM69LYmvz68SVymLz/cxc64RwAmCKcC+ewVAnS+XrP13/Og5wPOS9qCM95MjX115977oyj+TA5f6bOoZw/wjk9Ec65BycVdCg/DKoualMLWi58UxfH999//6TJr68Xyrrg5eMfW+hudZG0oAFA/2o4t+8833cSzvMtW/76r/96P2/9+MfPBphPvjVSvs7zdZ9zYOp8yvmR8+TY5Ndn6rmTj3Ps/Ek4P3YO5fzJCOb04Gn3WhoGbskrDDoknAvnALB2wrlwDksjnAvnLIdwzj14hUFHsqhlEcpiVBe1qQWtXiRzQfzf//3fgzN1kcwcW+iOLXK3vkjmf8Kc3z8AYLnsO/PsO1/cfW7D1JC+9YFL1HMpX++nnkv1fDo29e2OnT/5PKbOn3PDeT2HhHOWSDjnHrzCoCN1YctidOrClkVs6xdJAGC57DvC+S0HLlHPpXy9n3ou1fPp2NS3O3b+5POYOn+Ec9ZIOOceVvsKqwfz05tv7qf+c+hJvkXL1MKWBSoLVRatLGDnXiAz+fWZeqHMx5la5PJ51kXu2gWuXiCPXSQ//elP7wcAWC77zjz7zjvvvbefBHTzwbRiuvEXCsfk6zlf3zmP8vWf86AG85wfmZwrxya/Pu8nk/dfz598PpeeQ/U8mjqHMoI5S5Bw7oeEckvCOXTERVI4B4C1s+8I57ecVjQ2wvkx+XrO13fOo3z95zwQzoVz7kc45x5Wc3JlEfrSz3/enPz7fEF9/kc/2s9nf/jD/Xzqe9/bDyxZ/qd2WYSyGJ26sGURy4WwdWlszfgSOUxd6PLxbnWRzOI2tcCdepHMD80CAJbLvjPPvvONX/1qPwno5oPJvdA8n1ZM3/JE/iLv2HmUc2HqPMrUc2Zq8uvzfvJ+p86he4fznEOCOUuQgA63IJwL53TERXKeiyQAsFz2nXn2HeG8PbkXmufTisdbnhDOhXOWTzjnlrp9ZeUAzgKUxfBbv/71s6kLY10MpgK6A54lyQ+jefRF8t4L3NTiVhe4eoE8dpHM7ycAsBz2ndvsO7kPmQ8m90LzfMYR3bz6Fwn5us7Xe86jnAdznUdT51Bm6hzK5zN1DuVcnTqHjp1HOYemzqN6DqWn6CpA74Rz4ZwOuEgK5wCwdvYd4fwek3uheT7jaGyE83oe5RyaOo/qOZSeoqsAvevuBMvB+9Vf/GI/CeTf/93v9vPu73//bPLP8+vqYjAVzj+xW26HcdCzBLlwZfHJIpTFKItSFqdTF7dMa2kbpv66usDl/dcFLp9PvUjWxe3Si+Spi1td4HKR/Ku/+qv9AADLYd+5zb6Te5D5YFox3fgLhTrjiD5Mvr7z9Z5zKOfBsXOodfa0ZnwWDTN1HuXj5vPIeZTPM+dnzqNTz6Fj51HOoanzKOdQfkgxQO+Ec+GcDmTRyeLjIjnPRRIAWA77jnB+j2lFYyOc1xlH82Hy9Z2v95xDOQ+OnUOts6c147NomKnzKB83n0fOo3yeOT9zHp16Dh07j3IOTZ1HOYeEc2AtuivCeZBl8Ukg/9kf/7ifX/7pT/vJ//+TP/xhP9/9zW/2k+CeB2D+p1efe/fd/XzmBz/Yzye/8539fHz3MBkGHimLThafYxfJYwtcpi5mU5NfXxe2eoE8dXGrF8lbL24Z4RwAlsu+c5t9J/cg88GMI7p5Oa2YvuUZR/Rhps6hnA9T51DOl1Ykb834TBqmnkuXnkc5h079C7xrz6OcQwC9E86FczqQRSeLTxahqQUui9TUApepi9nU5Nfn/eT9Xrq4CecAQGXfEc7vMeNYbF5OKx5vecbRfJipcyjnw9Q5lPOlFclbMz6Thqnn0qXnUc4h4RzgPN2E84TuPMjyLVgSyH/75z/v5/2//GU/+f/z7/Pr8/Zf+vnP93MsnL+xe6gM89qXv7yfvJ0x95wsOll8sghlMZr6nwweW+ROnbxdJu+vLm5Z2PL51MWtXiBPXdyysF27uOV/MpiLZH5oFgDwOHke23duu+/kPrT1acV04y8U6qQbZPJ1nq//nEPHzp8E8FYkb81UMJ86j/J5TJ1HOU/nPo9yDh07j3L+wD28/eLFfmBOwrlwbjqYLDouku3FrS5w514kAYDHyfPYvnPbfSf3oa1PKxob4bxOukEmX+f5+s85dOz8Ec7dt7gf4Zxb6CacJyDmQZZv0ZJvzZJgfmk4n/rhoAnnH/3KV/Yzfpgac6/JopOLWBahLEZZlLLIZZHKYpWpC10mi1ld0DJ5u0zeX13Y8vGnFrZrL5JZ2C5d3IRzAFiePI/tO7fdd8bx2Jg6rZi+5an3sXy95+s/58HUuZNzJiE804rlw9RfV8+pqXMpn0/Ox3ye9zqPcg5NnUc5h+Aenp6e9iOgMyfhXDg3HUwWnSw+LpLtxa0ucKdeJAGAx8nz2L4jnJvHTSseb3nqfSxf7/n6z3kwde7knKlBvBXNh6m/rp5TU+dSPp+cj/k873Ue5RyaOo9yDsE9COfcwuLD+Vu7F/0wU+E8YTyhPJOgfuyHg37+Rz/az1Q4zw8HTTjP59NaNoy51WTRyeKTRSgXtXqRzCKXhSoLViaLV6YuZHXq2+f95uNMLWz5/C5d2KYWtyxs5y5u9SL5+uuv7wcAeJypcG7fmXffGUfBLU9r1zamTn3d5Ot96vzJOZJzJuE7U8P41OTX1/Pq2LlUz6Ocn/VcmjqP6rl07nmUc6ieRzmH4J4S0GEOwrlwbjqYLDpZfFwkDy9udYE7dpEEAB5HOL/PvjOOgFue1q5tTJ36usnX+9T5k3Mk58w4mg/TiuStya+v59Wxc6meRzk/67k0dR7Vc+nc8yjnUD2Pcg7BPQnnzKm7cJ5vtZIHWsJ4Anom/zy/rn6LlvxPN479UNCE8/xw0Hw+9UFqzC0ni04Wn3qRzKJ07EKZGV8KT5n69nVRm7pATi1sp14k68JWF7csbFOLWxa2TC6Sb7zxxn6EcwB4vFPDuX3nun0n/wWkrU9r1zb+QuHY1POnnjs5R44F9GOTt8tMhfNj59K151E9l3Ie1XNp6jzKOZRwnnMe7iHh3LdsYQ7CuXBuOpgsPFmAXCSFcwBYC+FcOL/ntHZtI5wfm3r+1HMn54hw/vwcEs55BOGcOS0+nD+9+eZ+8q1V3nnvvf3Uxac+2PLPE8zzdvnCOfYtWhLOP/a1r+0n4TyfT96fMfeYLDpZfLIInXuhrAveqZO3y/vLTC1q114g6+J26sJ26uKWi2QGAHichF37zm33ndyLtj7jiG5eTu7P5oOpfWHq3Mn5kbCdqQE9c2ooz+T9TZ1Tc59L9Tyq51LOo3ouHTuPhHMeIQEdriGcC+emg8mik8Uni1AWoyxKUwtdFqxMFq9TJ2+X95fJx5l7YZta3MaXyPHiNr5EnrK41YskAPA4wrlwfs8Zx2LzcnJ/Nh9M7QtT507Oj3E0Hybhu4Zx4RzuRzhnDt18q5YE7xrQ88M+60KUf16/NctUMJ/6Fi35oaAf+cIX9pPPJ+/HmHtMFp0sPlmEshhlUcpMLXaZLFzHpr5d3l/efyYf99JFbe6F7djilgtkLuoAwOMkqNh3brvvjP9LGVueem80H0wrpm95akjP1389b3KOHAvomalAnqlvPxXM6zmVz+/ccynn0dS5lPOonks5j+q5NHUeuXcBvRLOhXPTwWThyQKUhchFcp6LJADwOML5ffadcTze8tR7o/lgWvF4yyOcPz+P6rmU86ieS1PnkXsX0KtuwnkC4ls//vF+EtAzCeSZ/POpYF5/GGi+RUuC+SvfomX3cBgmn0+CuzH3mCw8mSxCWYxOvVDWyeJVp/Vrh6mLWebcC+TUwpZFbe6FrS5uwjkALEcN5xn7zrz7zvjutOVpxXTjLxTq1JCec6CeNzlPakDP1BB+bOrbnxrMzz2fps6lnEf1XMp5VM+leh7Vc8m9C+idcC6cmw4mC08mi1AWoyxKWZwydbGrkwWsTuvXDlMXtMy5i9qxha0ubuNL5HhxG18iW4vb+BI5jHAOAMsjnAvn95xWNDbCeR3hXDgHGHTzXfITvBPAMwnpdfLvP/fuu/vJ2ydEnhrM8y1aEs7zrVyMuedk0cnik0UokwUpC1Mmi1QmC9a5U99P3n8+biafT13QMnNdIKcWtrq4TV0gM7moAwCPk+dx9gX7zm32ndadaYvTiunGXyjUqSG9njc5N6YCeqaG8GOTt8v7y9wqmNfz6di5lPOonkunnkcAvRHOdw8V4dwsfbLwZAHKQpTJopTFKZOFKpNF69yp7yfvPx83k8+nLmqZpV4kAYDHyfM4+4J95zb7TuvOtMVpRWMjnNcRztvnUs6jei6deh4B9KabcJ7gnQCeSRivgTyTb8lyajCvPww0wTyTf2/MPSeLThafLEJZjDLjS90wWaQyWbBOnfr2mbz/+vGnFrTMqYtaXdjGl8fxwja+PLYWtmOLWy6SAMDj5HmcfcG+c5t9p96btjqtmG78hUKdGtJzLtTzYyqgZ8YR/dDUt6uhPJOPO3VOTZ1POZfq+XSrc6meR75VC4+Ub+EMlxDOdw8T4dwsfbLwZAHKQjS+xA2TxSmThSozXvJOmfr2mbz/+vGnFrVMXdRuvbBNLW6ZXCQBgMfJ8zj7gn3nNvtOvTdtdVrR2AjndYRz4Zz1EM65RjfhPBLAMwnjNZBnaijPt744N5jDI2XhyQKUyWKUGV/qhskilcmCderUt6/vv378fF75fDN1QTt1UasLWxa1urBlUTu2sNUBAJYje8N41xmm7ht1H6n7SmunOTT17ev7rx8/n9d41xlmqftO/S8WbX1aMd34C4U6NaTnfMi5MY7nwyRsJ3jXqWE80/q1w9RQnqnnVj2nTj2fci7V8+nScynn0dS5JJzzSE9PT/sR0LmEcC6c04EsPFmEMuNL3DDjS94wWagyWbROnfr29f3Xj5/Pa7ykDbPUiyQAsBzZG8a7zjB136j7SN1XWjvNoalvX99//fj5vMa7zjBL3Xda8XjL04rGRjivI5yfdy7lPJo6l4RzHkk45xrdhfO3di/2YRLCE8ZrIM8klE8F86kfAprJx4NHyqKTxScLUWZ8mRvP+NLXmrpwHZv6/uvnURezzPjyOF7UxpfHSxa1qYUti1pd2OoAAMuRvcG+M+++U/+LRVufVkw3/kKhTg3pOR9yniRgZ2rgTvg+d+r7yfvPx83U8+rYOVXPpXo+TZ1L9Xw69Vyq51C+ZRQ8UgI6nEM4F87pQBaeLEB1MRpf7saThWpq6uJ1bOr7r59HXdAy40vkeGEbXyIPLWzjS+Q5C9vU4pYBAJYje4N9Z959pxWPtzytaGyE8zrC+ctoPj6fTj2X6jkknLMEwjmX6PYVk6CdED4VyDMJ5fmWLII5PcmikcUni1CmLkrjy94cU99/pn4e+fwyxxa0Y4va+PJ4yqJ2bGHLWNwAYHnsO7fZd+p/0Wjr04rpxl8o1KkhPaE6U0P2OKIPUwP4salvn8n7rx+/nltT51TOp3pOTZ1POZfq+XTtuZTzCB5JOOcSwrlwTgeyaGQBqovR+HI3zPgSOMfU95+pn0c+v0xd0I4tanVhG18i51jYMhY3AFge+85t9p1WPN7ytKKxEc7rCOfPz6drz6WcR/BIwjmXWM0rJiE8YbwG8sxUKM/AkmXhySJUF6TM+LI3x7Q+xjD5PDLjpWyY8eXx0IJ26aJWF7ZjF8gMALBc2SOyX7R2kGFaO8s10/oYw4x3nWHGu84wS9138l8gqv8Fo61PK6Ybf6FQp4b08V+yDVND9jiiD9OK4Iemvn19//XjT51bx86pU8+nnEv1fLr0XIIlEM65hHBeBpYsi08WorooZcaXwDmm9TGGyeeRGS9nw4wvkecsanVhG18ir1nYMgDAcmWPyH7R2kGGae0s10zrYwwz3nWGGe86wyx13xHO29OKxkY4ryOcC+esj3DOJVb7ism3Wsk8vfnmfuo/h568/vrr+8kCNL7EDVMXp7mnfrzxMjae8eXxnAWtLmrjy+Mpi9qxhS0DACyXfWeefSffqjIB3XwwrZhu/IVCnQT08V+uDVMDdqaG7jpTQXxq6vuvn8ep59W551POpWPn07nnEkCvhHPoiIvkPBdJAGC57Dvz7DvCeXta0dgI53WEc+EcYKAcQ0fyQ1XqQlQXpqkZXwrH0/q1rakfNzO+NJ6ymGXOXdDqolYXttaSNh4/lAYAls++M8++k29VmYBuPphWTDf+QqFOAno9R2rAroH72qnvP1M/j6lz69xz6tzz6dxzKecRQK+Ec+hIFo/xJW6YujhNTV24Mq1f25r6cTPnLmiZR10kAYDlsu/Ms+8I5+1pRWMjnNcRztvn07nnUs4jgF4J59Ch/E+YsxCNL3XjqQvVsWm9j9aMl7HxnLqYnbugXbqo1QEA+mHfuWzfedp9zPEkoJsPphXTjb9QqJOAnnOjhutMK3JfM62PMcz4DBvm2Hl16Tl16vl06rkE0DvhHDrkInnZRRIA6Id957J9Rzg/PK1obITzOsL54fPp1HMJoHfCOXQsi1BdlOoide7U91dnvISNpy5kmanF7NwF7dxFLRNf+ehH9wMALNfPv/Sl/fzqG9/YT/aMuo+0dphzpr6/OuMdZzytXWeYpew7VQ3pW59WTDf+QqFOAnrOixquW3F7zqkfb3x2jefYuXXqOXXq+ZRz6dTzCZbs7Rcv9gOHCOfQsSxEdWFqLVXnTH1/dcbL2HjqYpaZWtDOXdTqwtZazloTwjkALJ9wft2+U7Xi8ZanFY2NcF5HOG+fTzmXTj2fYMmEc04hnEPH8sNWshjVxenaGS9dramLWKYuZJnx5fGcBa0uaq2lrDX5/fn6xz++H+EcAJavhnP7zuHJ7w+nacV04y8U6iSg11Bdg/bUtGL4MK1f25r6cTPHzq/WWTXMvc8n5xI9eHp62g8c4hUCHctCkkWpLlLXzngJa01rKRtmfHkcz70WtUx+f4RzAOiHcC6c31IrGhvhvI5wft355FyiB8I5p/AKgRXIYlIXp7mntYQNM74sjufYYpaZa0HL5IeJfeeTn9zPtz/xif0I6ACwXDWY/+7739/PH37yk/3Yd55P9h2YQyumb3kS0PN1llDditnDtOL3oWm9j9aMI/l4jp1b555Tc59P0IOEc9+yhUOEc1gBF8nnkwVXOAeAfgjnwjmP04rHWx7h/LrzCXognHMK4RxWJItRXZwydcHKtH7toRkvYeOpC1nm0sXs3AUt871PfWo/wjkA9ONYOP/TL3+5n+wdrR1lmNauM0zr1x6a8Y4zntauM8y99x3gdhLQI+dIDdit2H3O1PdXZ3yGjad1Zg1z7Ly69JxqnUGtgR4loEOLVwasSBak1hI1TGvpGqb1aw/NeBkbT13MMpcuaOcuahnhHAD6I5y395qpAW5HOH9+TrXOoNZAj4RzDvHKgBXKYpSFqbVUHZrxsnVoxkvYeOpCljl1MTt3Qcv88LOf3c8PPvOZ/QjoALB8pwbzP//2t/v5y/vv7yd7R/aS1k5zaMY7zaEZ7zjjae06w9x63wHur36rqFbkvmbGUbw1rTNsmNaZNcyx8+rUc6p1BrUmvz/x8a9/fT/QA+GcQ7wyYIWyIGVxai1Zh2a8dB2a8TI2nrqYZU5d0M5d1DLCOQD0Rzhv7zVTA9yfcH54hHN6JpxziFcGrFgWmCxMraXq0IyXrUNTF7HMqQvZuYtZJj+s593PfW4/wjkA9OPSYJ7/P7OVfQd4vJw3rbg957Qi+TCtM2yYuc+r1lnUmno+feLb397PG9/85n4EdKB3wjms2FYuksI5APRHOD9tapgCHifnTSt2zzmtaD5M6wwbZu7zqnUWtaaeT8I5sDbCOWxAFrwsTHWxOjbjZas1dQHL1EUsM748nrOYZfKf58e7JXGYH33+8/sR0AGgH3OF8z/+7Gf7Weu+AyxPgnUrbg/TiuHDtH7toRnH8fG0zrBhjp1bc59Tn/re9/bzye98Zz/CObA2wjlswFovksI5APRLOD88+c8DLE8Cdit2D9OK5sO0fu2hGcfy8bTOsGGOnVtzn1PCObB2wjlsUBanulgdm/HS1Zq6iGWuXcgyuWD/9Itf3M+L3TI5jIAOAP2YO5j//t139/Ob7353P3m/2U9aO82hGe82rWntOsPMte8A/UiwTtBuxe9DM47hh2Ycx8fTOsOGOXZuXXtefW535g7zmR/8YD8COrBWwjlsUBao1pJ1aMbLV2vqQpa5djHLCOcA0D/h/PAA/UjATuBuxfFDM47jh2Ycy8fTOsOGOXZuXXteCefAVgjnsGH5nwDXRaouWpn66+rUBSzTWrZOmXx+773zzn6EcwDo172CefaG7Au97DtAv/J1nKDdit+HZhzDD00rkg9z7By79rzKDwH9/I9+tB/hnDV7+8WL/cBAOIcNy4JXF6u6eGXqr6tTF7JMa/k6ZfL5CecA0D/hvD35/IB+5es4gbsVxw/NOI4fmlY0H+bYOXbteSWcsyXCOWPCOfCKLH51wTo2rSXrlMnHy0U384uvfnU/9Z8L6ADQn0eF8+wH2QuyDzxq3wHWK1/nCdqt+H1oxjG8NTWQZ2ooz1x7fuU/T0LiWz/+8X4EdNbs6elpPzDwSgBekQWpLlrHprVsnTL5eOM4PoxwDgDrIZx/8PGA9crXeUJ3K44fmnEkb00rmg/TiubDXHt+5T+PcM6WCOeMeSUAJ8vilGktV62pb5eLbC7QmXEcH0Y4B4D+5bm9lGCePSDP/2/udpVhsgfUvaW127Smvh1AwnYrgh+acRRvTSuSD3NtKM986ec/388Xf/rT/QjnbEnCeV73bJtwDpysXghbS1Zr6tvlQpuLdGYcx4cRzgGgf3luC+fA1iR0t+L4oRlH8ta0ovkwwjlcTzhnTDgHZpOLaEJ1LqoJ2bnAJnTnYpsLdWYcyYcR0AGgX3le9xLOv/axj+3ny6+9tp8vfOQj+3lrd4keD8Cp8hdqNXS3ovgw9dfVqYE804rgp0w+v3fee+/ZCOhsWQI62+YVAMwmF1HhHACIPK+Fc2CrhHPhnP4I5wy8AoDZ5CIqnAMAeU4L5gBtCdatCH5oWvH7lMnHSxCvofyrv/jFfuo/F9DZIuGcgVcAMJtcSIVzACDPaeEcoE04F85ZLuGcgVcAMLtcTAV0ANiePJcFc4DLJHBnWhG8NfXtErgTvBPAMzWQC+cAz9kAgdnlgiqcA8D25LksnANcpgbwViRvTX074RzgOjZA4GZyURXQAWA78jwWzgHuI6H6sz/84X4SsBO0BXSAy9gAgZvJRVU4B4DtyPNYOAe4D+Ec4DZsgMDN5KIqnAPA+uU5LJgD3JdwDnAbNkHgZnJhFc4BYP3yHBbOAe5LOAe4DZsgcHO5uAroALA+ee4K5gCPJaDD7eR1zrbYCIGbywVWOAeA9clzVzgHeCzhHG4nr3O2xUYI3FwusMI5AKxPnrvCOcBjCedwO0+73WAYtsWfOHBzucAK5wCwPnnuCucAjyWcw+0I59vkTxy4m1xkBXQA6F+es4I5wLII6DA/4Xyb/IkDd5MLrXAOAP3Lc1Y4B1gW4RzmJ5xvkz9x4G5yoRXOAaB/ec4K5wDLJKDDfBLO8/pmG2yGwN3kQiucA0D/8pwVzgGWSTiH+Qjn22QzBO4uF1sBHQD6k+eqYA6wbMI5zC8BnW3wJw3cXS64wjkA9CfPVeEcYNmEc5ifcL4t/qSBh8lFV0AHgOXLc1QwB+iLgA5wGZsi8DC58ArnALB8eY4K5wB9Ec4BLmNTBB4mF17hHACWL89R4RygL8I5wGVsisDD5MIrnAPA8uU5KpwD9EU4B7iMTRF4uFx8BXQAWJ48NwVzgL4J6ADnsTECD5cLsHAOAMuT56ZwDtA34RzgPDZG4OFyARbOAWB58twUzgH6JpzD/PL6Zp1sjMDD5QIsnAPA8uS5KZwD9E04h/nl9c062RiBxchFWEAHgMfLc1IwB1gXAR3m87TbLYZhnfzJAouRC7FwDgCPl+ekcA6wLsI5zEc4Xzd/ssDi5GIsoAPA/eW5KJgDrJNwDvMRztfNnyywOLkgC+cAcH95LgrnAOsknMN8hPN18ycLLE4uyMI5ANxfnovCOcC6CehwvYTzvK5ZFxsksDi5IAvnAHB/eS4K5wDrJpzD9YTzdbNBAouVi7KADgC3l+egYA6wLQI6XC8BnXXxJwosVi7MwjkA3F6eg8I5wLYI53A94Xyd/IkCi5ULs3AOALeT559gDrBNwjlAm40SWKxcnIVzALidPP+Ec4BtEs4B2myUwOLlAi2gA8D88twTzgG2TUAHeM5GCSxeLtDCOQDML8894Rxg24RzgOdslMDi5QItnAPAfPK8E8wBGAjnAM/ZLIHFy0VaOAeA+eR5J5wDMBDOAZ6zWQLdyIVaQAeA6+U5J5wDMCagw+XyOmYdbJZAN3KhFs4B4Hp5zgnnAIwJ53C5vI5ZB5sl0J1crAV0ADhfnmuCOQAtwjlc7mm3kwyT1zN9s2EC3ckFWzgHgPPluSacA9AinMPlhPN1sWEC3ckFWzgHgNPleSaYA3AKAR0ul4BO3/wJAt3JRVs4B4DT5XkmnANwCuEcLiecr4M/QaBbuXAL6ABwXJ5jwjkA5xDQ4XzC+Tr4EwS6lQu3cA4Ax+U5JpwDcA7hHM4nnK+DP0GgW7lwC+cAMC3PL8EcgEsI53A+4Xwd/AkC3crFWzgHgGl5fgnnAFxCOIfzCefr4E8Q6F4u4AI6ALyU55VgDsAcBHRga2yeQPdyERfOAeClPK+EcwDmIJwDW2PzBLqXi7hwDgAv5XklnAMwB+Ec2BqbJ9C9XMSFcwB4Kc8r4RyAOQjnwNbYPIHVyIVcQAdgy/J8EswBuAUBHdgKGyiwGrmYC+cAbFmeT8I5ALcgnANbYQMFVicXdAEdgC3Kc0k4B+AWhHM4X16/9MUGCqxOLujCOQBblOeScA7ALQjncL68fumLDRRYnVzQhXMAtiTPI8EcgHsQ0OF0T7udZpi8fumDTRRYnVzUhXMAtiTPI+EcgHsQzuF0wnmfbKLAauXCLqADsGZ5/gjmADyCgA6nS0CnD/6kgNXKxV04B2DN8vwRzgF4BOEcTiec98WfFLBaubgL5wCsWZ4/wjkAjyCcw+mE8774kwJWKxd34RyANcvzRzgH4BGEczidcN4Xf1LA6uUCL6ADsCZ53gjmACyBgA7HCed98ScFrF4u8sI5AGuS541wDsASCOdwnHDeF39SwOrlIi+cA7AGec4I5gAsiXAOrI0NFVi9XOiFcwDWIM8Z4RyAJRHOgbWxoQKbkYu9gA5Az/J8Ec4BWCIBHVgLGyqwGbnYC+cA9CzPF+EcgCUSzoG1sKECm5MLvoAOQE/yPBHMAVgy4RxYC5sqsDm56AvnAPQkzxPhHIAlE86BtbCpApuTi75wDkBP8jwRzgHogYAOx+X1yjLZVIHNyUVfOAegJ3meCOcA9EA4h+PyemWZbKrAZuXCL6ADsGR5fgjmAPREOIfjnnY70TAskz8ZYLNy8RfOAViyPD+EcwB6IpzDccL5svmTATYrF3/hHIAlynNDMAegZwI6TEs4z+uVZbG5ApuVACCcA7BEeW4I5wD0TDiHacL5stlcgc1LCBDQAViSPC+EcwDWQECHaQnoLIs/EWDzEgKEcwCWJM8L4RyANRDOYZpwvkz+RIDNSwgQzgFYgjwnBHMA1kQ4h2nC+TL5EwE2L0FAOAdgCfKcEM4BWBPhHKYJ58vkTwTgQwkDAjoAj5Tng3AOwBoJ6EAvbLAAH0oYEM4BeKQ8H4RzANZIOAd6YYMFKBIIBHQA7inPA8EcgDUTzoFe2GQBioQC4RyAe8rzQDgHYM2Ec6AXNlmAIqFAOAfgHvIcEMwB2BIBHVg6Gy1AkWAgnANwD3kOCOcAbIlwDiydjRZgQsKBgA7ALeX8F84B2BLhHKbldcpj2WgBJiQcCOcA3FLOf+EcgC0RzmFaXqc8lo0WYELCgXAOwC3k3BfMAdgyAR1e9bTbqYbhsfwJAExIQBDOAbiFnPvCOQBbJpzDq4TzZfAnAHBEQoKADsAccs4L5gDwkoAOLyWc5/XJY9hwAY5IUBDOAZhDznnhHABeEs7hJeF8GWy4AEckKAjnAMwh57xwDgAvCefwqgR0HsPvPMARCQrCOQBzyDkvnAPAS8I5vEo4fyy/8wAnSlgQ0AG4RM51wRwApgno8JJw/lh+5wFOlMAgnANwiZzrwjkATBPO4SXh/LH8zgOcKaFBQAfgHDnPhXMAmCacA0th0wU4U0KDcA7AOXKeC+cAME04B5bCpgtwpoQG4RyAU+QcF8wB4HQCOvBoNl6AMyU4COcAnCLnuHAOAKcTzoFHs/ECXCjhQUAHoCXntmAOAOcTzoFHs/kCXCgBQjgHoCXntnAOAOcTzoFHs/kCXCgBQjgHoCXntnAOAJcT0OGlvC65D5svwIUSIIRzAFpybgvnAHA54RxeyuuS+7D5AlwpIUJAB2CQc1owB4DrCefw0tNuJxuG+/A7DXClBAnhHIBBzmnhHACuJ5zDS8L5ffmdBrhSgoRwDrBtOZ8FcwCYn4AOwvm9+Z0GuFLChHAOsG05n4VzAJifcA7C+b35nQaYSQKFgA6wTTmXhXMAuB0BnS1LOM/rkduyCQPMJIFCOAfYppzLwjkA3I5wzpYJ5/dlEwaYWUKFgA6wDTmHBXMAuD3hHF4GdG7L7zDAzBIshHOAbcg5LJwDwO0J5yCc34vfYYCZJVgI5wDbkHNYOAeA+xHQgVuzEQPMLMFCOAfYhpzDwjkA3I9wDtyajRjgRhIuBHSAdcq5K5gDwP0J58Ct2YwBbiQBQzgHWKecu8I5ANyfcA7cms0Y4EYSMIRzgHXJeSuYA8DjCejArdiQAW4kIUM4B1iXnLfCOQA8nnAO3IoNGeDGEjQEdIB1yDkrnAPA4wnn8P/+7/XIvGzIADeWoCGcA6xDzlnhHAAeTzgH4fxWbMgAN5agIZwD9C3nq2AOAMsjoLNlT7udbhjm5XcU4MYSNoRzgL7lfBXOAWB5hHO2TDi/Db+jAHeSwCGgA/Ql56lgDgDLJ6CzRcL5bfgdBbiThA7hHKAvOU+FcwBYPuGcLRLOb8PvKMCdJXgI6AB9yDkqnAPA8gnnbFHCeV6HzMPGDHBnCR7COUAfco4K5wCwfMI5WySc34aNGeDOEjyEc4Bly/kpmANAfwR0tigBnXn4nQS4s4QP4Rxg2XJ+CucA0B/hnC0SzufldxLgQRJABHSAZcq5KZwDQH+Ec+BaNmeAB0kAEc4BlinnpnAOAP0RzoFr2ZwBHiQBRDgHWJacl4I5APRPQAcuZYMGeJCEEOEcYFlyXgrnANA/4Ry4lA0a4MESRAR0gMfK+SiYA8B6COfApWzSAA+WMCKcAzxWzkfhHADWQzgHLmWTBliIBBIBHeAxci4K5wCwPgI6W5LXHdexSQMsRAKJcA7wGDkXhXMAWB/hnC3J647r2KQBFiKBRDgHuK+ch4I5AKyfgM4WPO12wWHyuuMyNmqAhUgoEc4B7ivnoXAOAOsnnLMFwvk8bNQAC5NgIqAD3EfOQeEcANZPOGdLEtC5jN85gIVJMBHOAe4j56BwDgDrJ5yzJcL5dfzOASxMgolwDnBbOf8EcwDYHgGdLRDOr+N3DmBhEk6Ec4DbyvknnAPA9gjnbIFwfh2/cwALlYAioAPMK+edYA4A2yWcswXC+XX8zgEsVEKKcA4wr5x3wjkAbJdwzhYI59fxOwewUAkpwjnAvHLeCecAgIAOTLFhAyxUQopwDjCvnHfCOQAgnANTbNgAC5egIqADXCfnm2AOAIRwDkyxaQMsXMKKcA5wnZxvwjkAEMI5MMWmDdCJBBYBHeA8Oc8EcwBgioAOVDZugE4ktAjnAOfJeSacAwBThHOgsnEDdCKhZS3h/Ou7pW6Yf/qnf9rP09NbzwbgmHpu5Fypk/NMOAcApgjnbEFeb5zGxg3QiYQW4RzgA/XcGMfy8eQ8E84BgCnCOVuQ1xunsXEDdCbBpfeA/s3dcjeeGroS1P/xH/9xPwljwPbk6//bu8vhJZNzRjAHAI4R0Fmzp90uOUxebxxm8wboTMKLcA5shXAunAPAvQjnrJlwfh6bN0BnEl56C+ff/e53n81U2DoW0DP/8A//sB9BHdYjX8/1vPjnf/7nk6a+XWbqvBHOAYApAjprloDOYX6HADqT8CKcC+ewNsK5cA4ASyGcs2bC+Wn8DgF0KgGml4A+Fbamgta5Af3v/u7v9gP0J+fBOIIP8y//8i9nTX378VkzzNR5I5gDAJVwzpoJ56fxOwTQKeFcOIe1yHkwjt7DtOL4oalvPz5rhpk6b4RzAKASzlkz4fw0focAOrX0cP6v//qvz+ZY2JoKWjWc14CecP73f//3+0lA9y1cYLny9ZlzYBy/h6nnR+bf/u3f9tP6d+PJ+xmfNcMcO28EcwCgWktA//znd2+/m899bvf2u3l66+nZsC3C+Wn8DgF0SjgXzqFXwrlwDgC9EM5ZI+H8NH6HADq3tID+7//+7/tJ4KqhaxzHxmGrBq2ErEwN6AnnxwL666+/vh/g8aaCec6Hem7kPDk29e3mOm+EcwBgLeH8rbd272c0Cek1qH/2s7v/nLsR1EE4B+iecC6cQy+Ec+EcAHojnMN2+QoAWIlHBfT/+I//2M9Pd8tda2rYStCqYetY0KrhvAb0Gs5rQH9r9599GOD+8nWdr/d8/edcGEfwYVpnyTCPOm8EcwCg94D+9tu79zOaUwN65jOf2X2c3QjqbIlXOsBKCOfCOSxVvq7z9Z6v/5wLOScyrbNkGOEcAHgU4Vw4Z3u80gFW4l7h/D//8z8PTsJWDVxTQWsqZGUSsqaCVg3nNaAnnL+9+888jIAO95Ov43yd5+s+50DOhZwT9fxonTHjqb/+1ueNYA4A29VbOP/Sl3bvZzdf/OLu/YxmroD+yU/uPs5uYM1s5gArIZwL57A0+TrO13m+7nMO5FzIOVHPj9YZM57662993gjnALBdwrlwzvbYzAFW5lYB/b/+679OmqmwdWnQOvYtFBLOa0A/Fs790FC4nfwQ0Hxd5+s8X/c5B3Iu5JzIudE6W1ozPmuGedR5I5wDwHYsPaB/9au797ebd97ZvZ/dJKDXkH4soCec14CecP6pT31vPwnovoVL3/L64jmvaICVEc6Fc3g04Vw4B4C1Es6F8zXK64vnvKIBVubacJ4AVQPVf//3f5809e1ODVpzh6wazmtA/9u//dv9JPAB18vXU76Op4J5zoO1nTeCOQBsx9IC+je+8atnUwN6Dek1oCecTwX0hPOjAf3pzf3Ql6fdLjoMz/kdAVgZ4Vw4h0cRzoVzANgK4Vw4XxPhvM3vCMBKnRrQE5ZqwKqB6n/+539Omvz6ccwaJu9/KmQlsNWgdSxk1aB1ajjPt2z5m7/5m/0A18vXbb6O8/Wdr/etnTfCOQCs16PD+Xe/+5vmfOtbv95PDeg1pB8L6DWc14Bew3kN6G+88c390IeE87y++IANHWClhHPhHO4tX7f5Os7Xd77et3beCOcAsF7CuXC+JsJ5mw0dYKVqOE8oqgEr39IgwWkqXL3//vsnTX59DVoJWfVbKNw7ZNVwnm/Z8td//df7yV8oGGNOn/yw3Xz9Om/a541gDgDrc++A/u67v3823//+757NsYA+Fc4zCedTAb2G8xrQE84/8Ylv70dA70sCOh/wOwGwUsK5cG7MvUY4F84BYKuEc+F8TYTz5/xOAKxM/eF8CUMJRglZCUoJTFMhK4Hqf//3fw/OVMjKTIWsfD5TISs/tO/W4TzfsiW/f/mhqcaY4+O8ue68AQD6detw/pOf/OHgTIX0SwP6sW/ZknBeA/qxcO6HhvZBOH/O7wTAyiTECFnCuTH3GueNcA4AWyWcC+drIpw/53cCYGXyLRMSghKIErISkBKUrg1Ymfz6TA1a+Tjnhqxj3zohAetYyErAOhayPv3pT+/nvXfeMcacOM6b684bAKB/cwX0BPGf/eyPJ804og9zakC/dTivAf3jH//6fp7eetoP9MArFWBlhHPh3Jh7j/NGOAeArRPOhXPWxysVYGXyrQYShBKIEowSkOb6lgmZccQapoasS791wqkhKwHr2pCVHxL6q298wxhz4jhvrjtvAID+XRrOE7xrEP/lL/900uTXj+P5MAnoU+F86lu2HAvnNaCfGs7zLVs+9rGv7Qd6IJwDrIxwPk/IasVBY0x7nDfCOQBsnXAunLM+wjnASuSHzD06nNeAlfc/FbLyLR3mClkJWFMhKwHrWMjK7+evv/UtY8yRcd7Mc94AAP3KD788FtDzLVQSuKdC+W9/++eTJr++BvSE8/otWx4dzvMtWz760a/sB5ZMOAdYiYQX4XzekNWKhMaY5+O8mee8AQD6JZwL56yPcA6wEgk+CUBzhaxMK14NU3/dqSErn08NWfn88xcAl4asBKypkJWANRWy/uqv/mo/v/v+940xJ47z5rrzBgDoT37YZcJzQnQCdb5FSgJ2gvZUOE8Qf//9vxycqXCemQrn+Xymwnl+SOitw3m+ZYsfFrps+RZDW+WVCbASCT4JQcL5PCGrFQeNMe1x3lx33gAA/RHOhfM1E84BWIUEn4SgY+E8QWkqZGVqqJqa/PpjASsfP59PPr98vlMhaypgHQtZCVhTISsBaypkteKgMaY9zpvrzhsAoD/5Fi0JzwnSCecJ1gnY1wbzTH59pgb0fJxzw/mxb9WSYH4snCeYHwvnr7325f2wTE9PT/vZKuEcYCUSfBKCEoaErOtCVisOGmPa47y57rwBAPojnAvnayacA9C1/FC5BJ+EoIShhKJ8i4IashKajgWtY5O3y0yFrASs+i0T8vnWgHXut0y4NGQlYH3605/eT0JWfn9bkdAY83ycN/OcNwBAP/KtTRKgE6QTqBOs5/oWLZlxNB+mhvNLv1XLqeE8wfzacO6HhC5bwvlWv2WLcA7QuYSWhB/h/DYhqxUJjTHPx3kzz3kDAPRDOBfO10w4B6BrCS0JPwlBCUM1ZCUk1ZCVqUErc2q4yuT95eMkoOXj14CV4H9tyErAqiErAevSkPWb3edkjDk8zpt5zhsAYPnyQy0fHc5rMM/7nwrn+RYyc4XzBPOpcJ5gfiyc+yGhy5aAvjVekQCdS2hJ+EkISiASsoRzY+41zhvhHAC2QjgXzrdEOAegSwktCT8JQQlDCUU1ZCUsHQtamalglalvPxWw8nnUkHVpwJoKWQlYNWQlYJ0asl5//fX9/Ppb3zLGHBnnzTznDQCwfAnMCc5zhfNMK5YPU3/dqeE8n08N5/n88xcAl4bzBPOpcJ5gPhXOP/KRL+yHZRLOAeiScH6fkNWKhMaY5+O8mee8AQCWTzgXzrdEOAegS6eG84SjY0ErU8PUsalvf2rAyud5aciqAauGrASsGrJqwKoh64033thPQtavvvENY8yRcd7Mc94AAMt3bjhPwJ4K55kaxqcmv/5YMM/Hz+eTzy+f71Q4nwrmx8J5gvlUOE8wF87pgXAO0DnhXDg3ZinjvJnnvAEAlk84F85ZP+EcoHMJLQk/CUEJQwlFpwatTA1TxyZvl/eXuVXAmgpZCVg1ZCVgTYWsBKx8y4SErMx777xjjDkyzpt5zhsAYLnyQyyPhfN8S5QazhO2jwX0Y5O3y0yF8wTz+i1a8vnWYH7ut2i5NJwnmL/22pf3k3Duh4T24a2np2fz9Oab+6n/vHdeiQCdE86Fc2OWMs4b4RwA1k44F84RzgHoRL5VSwJQglACUQ1ZmamglRlHrUNT366Gq0w+7qUBq4asGrBqyErAqiErAevUkJW/mPjpF79ojDkyzpt5zhsAYLlqOE94ngrnCdc1nGdqQM+cGsozeX/5OAn2+fg1mCf4XxvOE8xrOP/Sz3fv/8AI53354m4XH6b1ZzlM/v3bL3avo918/ke7189uPvvD3etmN5/63u71spveeCUCdE44v0/IakVCY8zzcd7Mc94AAMslnAvnWyScA9ClGs4zCUQJRqcGrTo1VGVav3aYGq4y5wasGrJqwKohKwGrhqwErBqyasA6FrJ+vHtfxpjD47yZ57wBAJZrKpwnRCdM13CekH0soGemAnmmvv1UMM/nUcP5pcF8KpwnmH/r17uPe8K04usjhrZ8q5V33tu9XnbzjV/tXke7qX+O+ef5dQnob/1493razVRA7+VbuQjnAJ0TzoVzY5Yyzpt5zhsAYLmEc+F8C4TzDwjnAJ1LOE8IShhKKMrUoJWpwSkh6typ7yfvPx83k8+nBqzMXAGrhqwErKmQVQNWJr+/737uc8aYI+O8mee8AQCW69RwnlB9LKBnagg/NvXtTw3m+TwvDec1mNdw/v3f7T6fE6YG2EdNK6Y/YpYiQfurv9i9bnaT36f8ub37+93rbzT1z7MG9Klw/ondjj7M0gO6cA7QuYSWhKAEogSjTELSOGINUwNUK1KdMvX95P2PI9Yw+Xx6C1mtSGiMeT7OG+EcANZOOBfObzFLIZw/J5wDdC6hJQEoQSihKOEoU8PSOGoNU4PUsalvn8n7rx+/Bqx83pkasGrISsCqIevSgHVqyPrBZz5jjDky9et9fNYMU8+J1plyaOrbZ/L+68fv9bwBAJbr6enN/SQ0XxvQMzWEH5u8Xd5f5lbBfCqcJ5gnnJ46Ca6Pntbn9ohpxfRHTMJ3Pq8E8p/98Y/7+eWf/rSf/P8/+cMf9vPd3+xej7tJcE84z7ds+dy7u9fVbj7zg93raDef/M7u9bObj+929GGWSjgH6FxCS0JQAlGCUQ1J44g1TA1QrVh1aOrbZ/L+68fvNWS1IqEx5vnUr/fxWTNMPSdaZ8qhqW+fyfuvH7/X8wYAWC7hXDi/xbQi9iNGOH9OOAdYiYSgBKJMwlGmhqVx1BqmFaUOTX37+v7rx8/nNY5Xw1wasGrISsCqISsBq4asqYCV+d6nPmWMOXHq13s9D+p50TpTDk19+/r+68fv7bwBAJYv36rl1HCemQromXFEPzT17Wooz+TjXhrMazivwbyG8wTXU2ccjR85rZj+iGl9bvechO78sM98Xgnkv/3zn/fz/l/+sp/8//n3+fV5+4T4Y+H8jd3OPsxrX/7yfpZGOAdYiQShhKJMDUk1NNUQ1YpVh6a+fX3/9ePn8xpHrGGEc2P6n/r1Xs+Del60zpRDU9++vv/68Xs7bwCA5RPOhfNbTOtzu+cI523COcBKJAQlDCUYZWpQytTwVGcqUE1Nff/186jhKnOrgFVDVg1Yx0LWdz75SWPMiZOv83oOZFpnxni2ft4AAMtXw3nm0oBep4bxTOvXDlNDeebcYF7DeQ3mNZwnmGcSSE+dVkx/xLQi8iMm4flRk9CdzyffoiXfmiXB/NJwPvXDQRPOP/qVr+xnaYRzgJVIEEooqgGpBqZMK0aNRzhvB0JjzKuTr/N6DmRaZ8Z4hHMAYOmEc+H8FjOO2I8Y4bxNOAdYifxQuYShBKNMDUo1OF079f1n6ucxjlfD1HB164BVQ1YrXg2T389v7v5vY8zhqV/n9RxonRnXTH3/mfp59HbeAADLl3Ce8FzDeaYG9EwN3Anf5059P3n/+biZfD41mGeuDeZvvPHN/eRbcJw644j+yGnF9EfMOKLfc956etrPVDhPGE8ozySoH/vhoJ//0e51tpupcJ4fDppwns9nKYRzgJVIeEkgqgGpBqZWjLpm6vvP1M9jHLGGEc6N6X/q13k9B1pnxjVT33+mfh69nTcAwPIJ58L5LWYcs+85wvlhwjnAyiQMJRTVkJRpRadrpvUxhhlHq2Hy+WUuDVg1ZE0FrBqyjgWszNc//nFjzImTr+/WGTBM68y4ZlofY5jxWTNML+cNANCPhPME5wToYwE9M47ow9QAfmzq22fy/uvHr8E8n3emBvMazhPMazhPMM98/ONf30++9caxacX0R0wrpj9iWjH9HlPDeb7VSr71SsJ4Anom/3zqW7S8/WL3+tvNsR8KmnCeHw4qnANwUwlECUetuDRMK0ZdM62PMcw4Yg0zjljDLDVkteKgMaY9+fpunQHDtM6Ma6b1MYYZnzXD9HLeAAD9EM6F81tMK2rfY4Tzw4RzgJV5/fXX95NQVENSKzbNOfXjjaPVeB4VsE4NWV/72MeMMSdOvq7r13/rjJhz6scbnzHjWfp5AwD0J+E5QTqTUJ2pIXsc0YdpRfBDU9++vv/68fN5jWP5MJcG8xrOE8wz+ZYbx2Yc0R8544j+yGnF9HvM05tv7iffWiVBPd+yJd+CJYE8k3+eYJ63SzA/9i1a8vv/sa99bT8J5/l8lkI4B1gZ4XyekNWKg8aY9uTrun79t86IOad+vPEZM56lnzcAQH8SoMfRfJgarmvYruG7FccPTX37+v7rx8/nNY7mwwjnH0wrYj9iWlH7HiOcHyacA6xMfshcDUc1ME1NK04N0/q1rakfN3NuuMrUcHVuwKohqxWtxpPfvy+/9pox5sSpX++ts6E1rbNmmNavbU39uJnezhsAoD8JzwnR43g+TA3YmRq660wF8amp779+HjWUZ+YO5h/72NeezUc/+pX9vPbal/fzkY984dm0YvojZhzRHzmtmH6PybdGSfCuAT0/7DOBPJN/Xr81y1Qwn/oWLflz+MgXdq+L3fhWLQDcVEJMDUmt6NSaVsQapvVrW1M/bqa3kNWKg8aY9tSv99bZ0JrWWTNM69e2pn7cTG/nDQDQnwRo4Vw4n2NaUfseI5wfJpwDrFS+ZUvCUSsuDdOKUYem9T5aM45W4zkWsBKu7h2wMnlQG2NOH+fNZecNANCv/JDQhOgE6kwN2DVwXzv1/Wfq5zGO5cPUUH7rYF7Def6LA6/Mh7+f9zaO6I+ccUS/52SfT/DOt3BJQM8kkGfyz6eCecJ8gnm+RUuC+SvfomW3iw+Tz2cphHOAlRKyLgtZeVAbY04f581l5w0A0C/hXDifc1pR+x6TfV44bxPOAVYuwagGpVZ8Omfq+6szjlXjqeEqI2BB//J1Xs+D1hlyztT3V2d8xoynddYM47wBAOaSEJ0wXcN1phW5r5nWxxhmHMmHyeeXuTSY13A+FcxrOD8azD+crWvF9HtOgncCeCYhvU7+/efe3b3udpO3r9+a5Vgwz7doSThfGuEcYOUSkGpoasWpc6a+vzrjeDWeVsQaRsiC/uXrvJ4HrTPknKnvr874jBlP66wZxnkDAMwlQTqhuhWzh2nF72um9TGGGUfzYcbRfBjhfJlaMfueI5y3CecAK5dFJCGpFZ2umXGkak0rWg1Tw1Xm3gHLogbzcd4cHucNAKzP09Ob+0mYruG6FbfnnPrxxpF8PI8K5sJ5HxK8E8AzCeM1kGfyLVlODeYJ9TWYC+cAPEQWkYSlVoy6ZsbRqjWtiDVMK2INI2RBv5w3h8d5AwDrI5wL52sgnLcJ5wAbkYWkFZvmnFa0GqYVrYY5Fq4ycwes/DBDYH7Om+fjvAGA9coPtayhugbtqWnF8GFav7Y19eNmzg3lmRrKzw3mNZxnL5ycB/1QUNoSwDMJ4zWQZ2oozw8d7T2Yh1cmwEZkMWnFpzmnFbGGaUWsYYQsWB/nzfNx3gDAegnnwvma1DAunAOwKQlIrdg0TCtODdP6tYdmHKvGU8NV5tJwdW7AygC3l6/71hkxTOusGab1aw/N+IwZT+usGcZ5AwDMLd+yJaG6FbOHacXvQ9N6H60ZR/LxHAvmCeV3D+YfDsvy1tPTfhLCE8ZrIM8klE8F86kfAprJx1sq4RxgYxKUWvFpmFbEGqb1aw/NOF6NpxWxhhGyYH3ydd86I4ZpnTXDtH7toRmfMeNpnTXDOG8AgLkJ58L5GgjnzwnnABuVgJTA1IpRh2Ycpw7NOFaNp4arjIAF65Ov+5wLrTPl0IzPlEMzPmPG0zprhnHeAABzS6CuAbsVu8+Z+v7qjOP4eGoozwjmHJKgnRA+FcgzCeX5liy9B/MQzgE2KkEpwakVqw7NOFYdmnG8Gk8rYg0jZMH65Os+50LrTDk04zPl0IzPmPG0zpphnDcAwNwSrGvYbsXwc6a+vzrjWD6eVjQfRjjnEOH8A8I5wMZlcUlgasWoQzOOU4emFa2GuXW48kP5YDm2ct7kAgEAbE9+2GXCdStyXzPjKN6aViQfpobyzL2DuR8G2qeE8ITxGsgzU6E80xuvVICNywKT4NSKVYdmHKsOTStiDXOvkAU83lbOG+EcALZLOD8ywnmXEsaFcwA24Ru/+tV+fvbHP+4ni0wCUytGHZpxnGpNDVaZGq4y1was/OcBlmet501+aJJwDgDUgH6raUXyYVqRfJhjoTwzezD/8Iensg75ViuZpzd3f767qf+8d8I5wEYJ58CjrPW8Ec4BgBDO6wjna1IDuXAOwCrUYP7bP/95P7/805/28/3f/W4/CU2tKHVoxpGqNa1oNcy14SoD9CfnQ+tMOTTjs6U1rbNmmLnPm8//6Ef7+cwPfrAfAR0AiATrVtwephXDh2n92kMzjuPjqaE8c2koPz+YfzDQI+EcYGOEc2Bpcj60zpRDMz5bWtM6a4aZ+7wRzgGAKQnYrdg9TCuaD9P6tYdmHMvH04rmwwjncJxwDrAxp4bzd957bz9ZdGp4akWqYeqvq1ODVaYVpU4ZixisRy/nTc7HL/70p/sRzgGAYxKsE7Rb8fvQjGP4oRnH8fHUUJ4RzGGacA6wMcI5sFS9nDfCOQBwrgTsBO5WHD804zh+aMaxfDytaD6McA7ThHOAjTg3mCcEfep739vPG9/cLWK7+ehXdgvVbrIItaLUoWnFqFPG4gXb9ajzJudgAnnOx6/+4hf7yf8voAMAp8oPDU3QbsXvQzOO4YemFcmHuXUo90NAWRPhHGAjhHOgV486b3IOCucAwFyEc+iHcA6wEbOH87d2S9Fuqro4taJUa+rbARxTz43W2dKa+nbVZ3/4w/3kHBTOAYC5JaAnaLfi96EZx/DW1ECeqaE8c3Uw//A/D6yJVzTARgjnwNrUc6N1trSmvl0lnAMAtyacw/J5RQOs3L2COcDaCOgAwL0kbLci+KEZR/HWtCL5MFeH8g8H1kw4B1g54RzgMsI5AHAvCd2tOH5oxpG8Na1oPoxwDscJ5wArJZgDXEc4BwDuLd/ypIbuVhQfpv66OjWQZ1oR/KTxLVnYEK90gJUSzgGuI5wDAPcmnMNyeKUDrJRwDjAPAR0AeLQE61YEPzTN+H3KCOQgnAOslXAOMA/hHAB4NOEc7s9XAMDKCOYAtyGgAwBLk8D9f9OK4K0pbwe8ylcGwMoI5wC3IZwDAEtTA3gzkremvB3wKl8ZACsjnAPchnAOAADbIZwDrIxwDnAbwjkAAGyHcA6wEoI5wH0I6AAAsH7COcBKCOcA9yGcAwDA+gnnAJ0TzAHuSzgHAID1E84BOiecA9yXcA4AAOsnnAN0TjgHeAwBHQAA1ks4B+iccA7wGMI5AACsl3AO0CnBHOCxhHMAAFgv4RygU8I5wGMJ5wAAsF7COUCnhHOAZRDQAQBgfYRzgE4J5wDLIJwDAMD6COcAnRHMAZZFOAcAgPURzgE6I5wDLItwDgAA6yOcA3RGOAdYJgEdAADWQzgH6IxwDrBMwjkAAKyHcA7QCcEcYNmEcwAAWA/hHKATwjnAsgnnAACwHsI5wMIJ5gB9EdABAKB/wjnAwgnnAH0RzgEAoH/COcDCCecAfRLQAQCgX8I5wMIJ5wB9Es4BAKBfwjnAQgnmAH0TzgEAoF/COcBCCecAfRPOAQCgX8I5wEIJ5wDrIKADAEB/hHOAhRLOAdZBOAcAgP4I5wALI5gDrItwDgAA/RHOARZGOAdYF+EcAAD6I5wDLIRgDrBuAjoAAPRDOAdYCOEcYN2EcwAA6IdwDrAQwjnAugnnAADQD+EcYCGEc4B1E84BAKAfwjnAgwnmANsioAMAwPIJ5wAPJpwDbItwDgAAyyecAzyYcA6wLcI5AAAsn3AO8GDCOcC2COcAALB8wjnAgwjmANsmoAMAwHIJ5wAPIpwDbJtwDgAAyyWcA9yZYA7AQDgHAIDlEs4B7kw4B2AgnAMAwHIJ5wB3JpwDMCagAwDA8gjnAHcmnAMwJpwDAMDyCOcAdyKYA3CIgA4AAMshnAPciXAOwCHCOQAALIdwDnAnwjkAhwjnAACwHMI5wJ0I5wAcIpwDAMByCOcANyaYA3AOAR0AAB5POAe4MeEcgHMI5wAA8HjCOcCNCOYAXEI4BwCAxxPOAW5EOAfgEsI5AAA8nnAOcCPCOQDXENABAOBxhHOAGxHOAbiGcA4AAI8jnAPMTDAHYA7COQAAPI5wDjAz4RyAOQjnAADwOMI5wMyEcwDmJKADAMD9CecAMxPOAZiTcA4AAPcnnAPMRDAH4BaEcwAAuD/hHGAmwjkAtyCcAwDA/QnnAFcSzAG4BwEdAADuRzgHuJJwDsA9COcAAHA/wjnAlYRzAO5BOAcAgPsRzgGuJJwDcA/COQAA3I9wDnAhwRyARxDQAQDg9oRzgAsJ5wA8gnAOAAC3J5wDXEg4B+ARhHMAALg94RzgQsI5AI8gnAMAwO0J5wBnEswBWAIBHQAAbkc4BziTcA7AEgjnAABwO8I5wIkEcwCWSEAHAID5CecAJxLOAVgi4RwAAOYnnAOcSDgHYImEcwAAmJ9wDnAi4RyAJRLOAQBgfsI5wBGCOQA9ENABAGA+wjnAEcI5AD0QzgEAYD7COcARwjkAPRDOAQBgPsI5wBHCOQA9EM4BAGA+wjnABMEcgB4J6AAAcD3hHGCCcA5Aj4RzAAC4nnAOUAjmAPRMOAcAgOsJ5wCFcA5Az4RzAAC4nnAOUAjnAKyBgA4AAJcTzgEK4RyANRDOAQDgcsI5wIcEcwDWRDgHAIDLCecAHxLOAVgT4RwAAC4nnAN8SDgHYI0EdAAAOJ9wDvAh4RyANRLOAQDgfMI5sHmCOQBrJpwDAMD5hHNg84RzANZMOAcAgPMJ58BmCeYAbImADgAApxPOgc0SzgHYEuEcAABOJ5wDmyWcA7BFAjoAABwnnAObJZwDsEXCOQAAHCecA5sjmAOwZcI5AAAcJ5wDmyOcA7BlwjkAABwnnAObI5wDgIAOAACHCOfA5gjnACCcAwDAIcI5sBmCOQC8JJwDAMA04RzYDOEcAF4SzgEAYJpwDmyGcA4ArxLQAQDgVcI5sBnCOQC8SjgHAIBXCefA6gnmADBNOAcAgFcJ58DqCecAME04BwCAVwnnwGoJ5gBwOgEdAABeEs6B1RLOAeB0wjkAALwknAOrJZwDwOmEcwAAeEk4B1ZLOAeA0wnnAADwknAOrI5gDgCXE9ABAEA4B1ZIOAeAywnnAAAgnAMrJJwDwOWEcwAAEM6BFRLOAeBywjkAAAjnwIoI5gAwHwEdAIAtE86B1RDOAWA+wjkAAFsmnAPdeOvp6dk8vfnmfgRzALgdAR0AgC0SzoFuCOcAcH/COQAAWyScA4uVi/eXfv7z5uTfv/3ixX6EcwCYn3AOAMAWCefAYuXi3Yrmw+TfC+cAcDvCOQAAWyScA4uRb8GSi3e+Bcu3fv3rZ5N/Xi/ob/34x/sRzAFgfrcK6Hn+AwDAkthQgcUQzgFguYRzAAC2xIYKPFwuzLlwJ5AnfL/7+98/m/zz/LqpC3ou+Pn3+efCOQCcb65wnn+eb7WWf5/3n+c0AAA8knAOPJxwDgDLl+dqnqd57uY5K5wDALAmwjnwcLlgJ4QnkOeHfeZbr+T//8kf/rCf7/7mN/vJRT0X8XzLls+9++5+clEXzAHgetcG9PrP89zOv68BPX/BDgAA92QDBR4uF2jhHACWTzgHAGALbKDAw+TCnB/2mW/BkkD+2z//eT/v/+Uv+8n/n3+fX5+3/9LPf76fqXCeH0aWcC6YA8D5Tg3n+YvwTJ7b+YvyGtCnwvknvv3t/QjoAADck80TeJhclIVzAOiHcA4AwBbYPIGHSejOBToX63xrlgTzS8P51MU74TzfqgUAOF+eszWg5zk917day198f/zrX98PAADcg3AOPIxwDgD9Es4BAFgz4Ry4u/xPrafCeS7YCeWZXMCPXbxzgZ8K57l4J5z7n34DwOnyvM1fXOcvsuvz+9K/+J4K5/mL79e+/OX9AADALSlFwN0J5wDQL+EcAIAtUIqAu6vhvF68E8Zzwc7kn09duN9+8WI/xy7cCee5eAvnAHC6PHfrX3znL7gTzC8N51N/8Z3neP7iGwAAbkkpAu5OOAeAfuW5K5wDALBmShFwd09vvrmf/E+933nvvf3kAp5vwZKLdSb/PBftvF2C+bFv0ZIL98e+9rX9JJzn8wEAptW/+K7hPGE8oTyToJ6/AM/z3LdaAwBgyWyawN0J5wDQH+EcAIAtsWkCd5eLboJ3Dei5SCeQZ/LPc2E/FsynvkVLLtwf+cIX9uPiDQDH5XmZ53Cez/kL7oTxBPRM/nl+Xd6uPs99qzUAAJbEpgncXS66uSgL5wCwfHle5jmc57NwDgDAGtk0gbvLRTfBOz8MLAE9kwt1Jv98KpjXi3b9n3a/8i1a3nprPy7eAHCcb7UGAMCWKEXA3QnnANAf4RwAgC1RioCHyQU5F+ZMQnqd/Pv8T7nrBfvUYJ5v0ZJwDgAcl79oTvCuAd23WgMAYE1smsDD5KKci3OmFc2Hyb8XzgHg/oRzAAC2xKYJPEwuyLkwZxLGayDP5Fuy1Av2VDCvF+0Ec+EcAE6XUJ3gnb/YTkDPJJBn8s+ngrlvtQYAwBLZNIGHEc4BoB/COQAAW2LTBB4uATyTC3Sm/vt6sa7/U27BHABuJ8E7ATyTkF4n/77+hfjUc30qmNfnOQAA3JJwDjzcOIoPI5wDwHIJ5wAAbIFwDjxc/qfWuTDnAl0v0pmE8qlgPnXBzvifdgPA5RK8E8AzCeM1kGfqX4jX53x9nvsLcAAAHkk5Ah5OOAeAfgjnAABsgXIELEaCdi7OU4E8Uy/WgjkA3E8CeCZhvAbyTA3l9fkumAMAsCQKErAYwjkA9KOGceEcAIA1UZCAxUoIzwU6k3+embpYZwCA+eUvpBPCE8ZrIM+M/zK8FcyPPdf9BTgAAPdk8wQWKxdo4RwAlkc4BwBgzWyeQDdyYc48vfnmfuo/BwDuJ8/fhPCpQJ5JKK9/IS6YAwCwJDZQoBu5OGeEcwB4vDx/E8aFcwAA1sAGCgAAzCYhPGG8BvLMVCjPAADAIwnnAADAbBLGhXMAAHomnAMAADeTb7WS8a3WAADogQ0VAAC4mRrIhXMAAHpgQwUAAAAAgBHhHAAAAAAARoRzAAAAAAAYEc4BAAAAAGBEOAcAAAAAgBHhHAAAAAAARoRzAAAAAAAYEc4BAAAAAGBEOAcAAAAAgBHhHAAAAAAARoRzAAAAAAAYEc4BAAAAAGBEOAcAAAAAgBHhHAAAAAAARoRzAAAAAAAYEc4BAAAAAGBEOAcAAAAAgBHhHAAAAAAARoRzAAAAAAAYEc4BAAAAAGBEOAcAAAAAgBHhHAAAAAAARoRzAAAAAAD4P//v//1/Zf9aSY8X+PQAAAAASUVORK5CYII=;rounded=1;rotation=-90;" parent="1" vertex="1">
          <mxGeometry x="-2127.9500000000003" y="-1523.02" width="93.02" height="103.29" as="geometry" />
        </mxCell>
        <mxCell id="xEzUvcs4P0c2zD8ZCyot-50" value="&lt;font size=&quot;1&quot; data-sider-select-id=&quot;ff24dfee-ffc2-4087-a43f-4c16d51d3167&quot; face=&quot;Times New Roman&quot;&gt;&lt;i data-sider-select-id=&quot;2a5394e0-1ae0-4264-bb97-6ebed8818760&quot;&gt;&lt;b style=&quot;font-size: 11px;&quot; data-sider-select-id=&quot;eeca12e5-d156-4b1b-9fae-8ad851d7e0c3&quot;&gt;Coordinates&lt;/b&gt;&lt;/i&gt;&lt;/font&gt;" style="text;html=1;align=center;verticalAlign=middle;resizable=0;points=[];autosize=1;strokeColor=none;fillColor=none;rotation=0;rounded=1;flipV=0;" parent="1" vertex="1">
          <mxGeometry x="-2191" y="-1075.71" width="80" height="30" as="geometry" />
        </mxCell>
        <mxCell id="xEzUvcs4P0c2zD8ZCyot-204" value="" style="shape=table;startSize=0;container=1;collapsible=0;childLayout=tableLayout;fillColor=#A9C4EB;rounded=1;" parent="1" vertex="1">
          <mxGeometry x="-2041.3800000000003" y="-1100.71" width="79.87" height="80" as="geometry" />
        </mxCell>
        <mxCell id="xEzUvcs4P0c2zD8ZCyot-210" value="" style="shape=tableRow;horizontal=0;startSize=0;swimlaneHead=0;swimlaneBody=0;strokeColor=inherit;top=0;left=0;bottom=0;right=0;collapsible=0;dropTarget=0;fillColor=none;points=[[0,0.5],[1,0.5]];portConstraint=eastwest;rounded=1;" parent="xEzUvcs4P0c2zD8ZCyot-204" vertex="1">
          <mxGeometry width="79.87" height="20" as="geometry" />
        </mxCell>
        <mxCell id="xEzUvcs4P0c2zD8ZCyot-211" value="" style="shape=partialRectangle;html=1;whiteSpace=wrap;connectable=0;strokeColor=inherit;overflow=hidden;fillColor=none;top=0;left=0;bottom=0;right=0;pointerEvents=1;rounded=1;" parent="xEzUvcs4P0c2zD8ZCyot-210" vertex="1">
          <mxGeometry width="20" height="20" as="geometry">
            <mxRectangle width="20" height="20" as="alternateBounds" />
          </mxGeometry>
        </mxCell>
        <mxCell id="xEzUvcs4P0c2zD8ZCyot-212" value="" style="shape=partialRectangle;html=1;whiteSpace=wrap;connectable=0;strokeColor=inherit;overflow=hidden;fillColor=none;top=0;left=0;bottom=0;right=0;pointerEvents=1;rounded=1;" parent="xEzUvcs4P0c2zD8ZCyot-210" vertex="1">
          <mxGeometry x="20" width="20" height="20" as="geometry">
            <mxRectangle width="20" height="20" as="alternateBounds" />
          </mxGeometry>
        </mxCell>
        <mxCell id="xEzUvcs4P0c2zD8ZCyot-213" value="" style="shape=partialRectangle;html=1;whiteSpace=wrap;connectable=0;strokeColor=inherit;overflow=hidden;fillColor=none;top=0;left=0;bottom=0;right=0;pointerEvents=1;rounded=1;" parent="xEzUvcs4P0c2zD8ZCyot-210" vertex="1">
          <mxGeometry x="40" width="20" height="20" as="geometry">
            <mxRectangle width="20" height="20" as="alternateBounds" />
          </mxGeometry>
        </mxCell>
        <mxCell id="xEzUvcs4P0c2zD8ZCyot-214" value="" style="shape=partialRectangle;html=1;whiteSpace=wrap;connectable=0;strokeColor=inherit;overflow=hidden;fillColor=none;top=0;left=0;bottom=0;right=0;pointerEvents=1;rounded=1;" parent="xEzUvcs4P0c2zD8ZCyot-210" vertex="1">
          <mxGeometry x="60" width="20" height="20" as="geometry">
            <mxRectangle width="20" height="20" as="alternateBounds" />
          </mxGeometry>
        </mxCell>
        <mxCell id="xEzUvcs4P0c2zD8ZCyot-215" value="" style="shape=tableRow;horizontal=0;startSize=0;swimlaneHead=0;swimlaneBody=0;strokeColor=inherit;top=0;left=0;bottom=0;right=0;collapsible=0;dropTarget=0;fillColor=none;points=[[0,0.5],[1,0.5]];portConstraint=eastwest;rounded=1;" parent="xEzUvcs4P0c2zD8ZCyot-204" vertex="1">
          <mxGeometry y="20" width="79.87" height="20" as="geometry" />
        </mxCell>
        <mxCell id="xEzUvcs4P0c2zD8ZCyot-216" value="" style="shape=partialRectangle;html=1;whiteSpace=wrap;connectable=0;strokeColor=inherit;overflow=hidden;fillColor=none;top=0;left=0;bottom=0;right=0;pointerEvents=1;rounded=1;" parent="xEzUvcs4P0c2zD8ZCyot-215" vertex="1">
          <mxGeometry width="20" height="20" as="geometry">
            <mxRectangle width="20" height="20" as="alternateBounds" />
          </mxGeometry>
        </mxCell>
        <mxCell id="xEzUvcs4P0c2zD8ZCyot-217" value="" style="shape=partialRectangle;html=1;whiteSpace=wrap;connectable=0;strokeColor=inherit;overflow=hidden;fillColor=none;top=0;left=0;bottom=0;right=0;pointerEvents=1;rounded=1;" parent="xEzUvcs4P0c2zD8ZCyot-215" vertex="1">
          <mxGeometry x="20" width="20" height="20" as="geometry">
            <mxRectangle width="20" height="20" as="alternateBounds" />
          </mxGeometry>
        </mxCell>
        <mxCell id="xEzUvcs4P0c2zD8ZCyot-218" value="" style="shape=partialRectangle;html=1;whiteSpace=wrap;connectable=0;strokeColor=inherit;overflow=hidden;fillColor=none;top=0;left=0;bottom=0;right=0;pointerEvents=1;rounded=1;" parent="xEzUvcs4P0c2zD8ZCyot-215" vertex="1">
          <mxGeometry x="40" width="20" height="20" as="geometry">
            <mxRectangle width="20" height="20" as="alternateBounds" />
          </mxGeometry>
        </mxCell>
        <mxCell id="xEzUvcs4P0c2zD8ZCyot-219" value="" style="shape=partialRectangle;html=1;whiteSpace=wrap;connectable=0;strokeColor=inherit;overflow=hidden;fillColor=none;top=0;left=0;bottom=0;right=0;pointerEvents=1;rounded=1;" parent="xEzUvcs4P0c2zD8ZCyot-215" vertex="1">
          <mxGeometry x="60" width="20" height="20" as="geometry">
            <mxRectangle width="20" height="20" as="alternateBounds" />
          </mxGeometry>
        </mxCell>
        <mxCell id="xEzUvcs4P0c2zD8ZCyot-205" value="" style="shape=tableRow;horizontal=0;startSize=0;swimlaneHead=0;swimlaneBody=0;strokeColor=inherit;top=0;left=0;bottom=0;right=0;collapsible=0;dropTarget=0;fillColor=none;points=[[0,0.5],[1,0.5]];portConstraint=eastwest;rounded=1;" parent="xEzUvcs4P0c2zD8ZCyot-204" vertex="1">
          <mxGeometry y="40" width="79.87" height="20" as="geometry" />
        </mxCell>
        <mxCell id="xEzUvcs4P0c2zD8ZCyot-206" value="" style="shape=partialRectangle;html=1;whiteSpace=wrap;connectable=0;strokeColor=inherit;overflow=hidden;fillColor=none;top=0;left=0;bottom=0;right=0;pointerEvents=1;rounded=1;" parent="xEzUvcs4P0c2zD8ZCyot-205" vertex="1">
          <mxGeometry width="20" height="20" as="geometry">
            <mxRectangle width="20" height="20" as="alternateBounds" />
          </mxGeometry>
        </mxCell>
        <mxCell id="xEzUvcs4P0c2zD8ZCyot-207" value="" style="shape=partialRectangle;html=1;whiteSpace=wrap;connectable=0;strokeColor=inherit;overflow=hidden;fillColor=none;top=0;left=0;bottom=0;right=0;pointerEvents=1;rounded=1;" parent="xEzUvcs4P0c2zD8ZCyot-205" vertex="1">
          <mxGeometry x="20" width="20" height="20" as="geometry">
            <mxRectangle width="20" height="20" as="alternateBounds" />
          </mxGeometry>
        </mxCell>
        <mxCell id="xEzUvcs4P0c2zD8ZCyot-208" value="" style="shape=partialRectangle;html=1;whiteSpace=wrap;connectable=0;strokeColor=inherit;overflow=hidden;fillColor=none;top=0;left=0;bottom=0;right=0;pointerEvents=1;rounded=1;" parent="xEzUvcs4P0c2zD8ZCyot-205" vertex="1">
          <mxGeometry x="40" width="20" height="20" as="geometry">
            <mxRectangle width="20" height="20" as="alternateBounds" />
          </mxGeometry>
        </mxCell>
        <mxCell id="xEzUvcs4P0c2zD8ZCyot-209" value="" style="shape=partialRectangle;html=1;whiteSpace=wrap;connectable=0;strokeColor=inherit;overflow=hidden;fillColor=none;top=0;left=0;bottom=0;right=0;pointerEvents=1;rounded=1;" parent="xEzUvcs4P0c2zD8ZCyot-205" vertex="1">
          <mxGeometry x="60" width="20" height="20" as="geometry">
            <mxRectangle width="20" height="20" as="alternateBounds" />
          </mxGeometry>
        </mxCell>
        <mxCell id="xEzUvcs4P0c2zD8ZCyot-220" value="" style="shape=tableRow;horizontal=0;startSize=0;swimlaneHead=0;swimlaneBody=0;strokeColor=inherit;top=0;left=0;bottom=0;right=0;collapsible=0;dropTarget=0;fillColor=none;points=[[0,0.5],[1,0.5]];portConstraint=eastwest;rounded=1;" parent="xEzUvcs4P0c2zD8ZCyot-204" vertex="1">
          <mxGeometry y="60" width="79.87" height="20" as="geometry" />
        </mxCell>
        <mxCell id="xEzUvcs4P0c2zD8ZCyot-221" value="" style="shape=partialRectangle;html=1;whiteSpace=wrap;connectable=0;strokeColor=inherit;overflow=hidden;fillColor=none;top=0;left=0;bottom=0;right=0;pointerEvents=1;rounded=1;" parent="xEzUvcs4P0c2zD8ZCyot-220" vertex="1">
          <mxGeometry width="20" height="20" as="geometry">
            <mxRectangle width="20" height="20" as="alternateBounds" />
          </mxGeometry>
        </mxCell>
        <mxCell id="xEzUvcs4P0c2zD8ZCyot-222" value="" style="shape=partialRectangle;html=1;whiteSpace=wrap;connectable=0;strokeColor=inherit;overflow=hidden;fillColor=none;top=0;left=0;bottom=0;right=0;pointerEvents=1;rounded=1;" parent="xEzUvcs4P0c2zD8ZCyot-220" vertex="1">
          <mxGeometry x="20" width="20" height="20" as="geometry">
            <mxRectangle width="20" height="20" as="alternateBounds" />
          </mxGeometry>
        </mxCell>
        <mxCell id="xEzUvcs4P0c2zD8ZCyot-223" value="" style="shape=partialRectangle;html=1;whiteSpace=wrap;connectable=0;strokeColor=inherit;overflow=hidden;fillColor=none;top=0;left=0;bottom=0;right=0;pointerEvents=1;rounded=1;" parent="xEzUvcs4P0c2zD8ZCyot-220" vertex="1">
          <mxGeometry x="40" width="20" height="20" as="geometry">
            <mxRectangle width="20" height="20" as="alternateBounds" />
          </mxGeometry>
        </mxCell>
        <mxCell id="xEzUvcs4P0c2zD8ZCyot-224" value="" style="shape=partialRectangle;html=1;whiteSpace=wrap;connectable=0;strokeColor=inherit;overflow=hidden;fillColor=none;top=0;left=0;bottom=0;right=0;pointerEvents=1;rounded=1;" parent="xEzUvcs4P0c2zD8ZCyot-220" vertex="1">
          <mxGeometry x="60" width="20" height="20" as="geometry">
            <mxRectangle width="20" height="20" as="alternateBounds" />
          </mxGeometry>
        </mxCell>
        <mxCell id="xEzUvcs4P0c2zD8ZCyot-295" value="&lt;font size=&quot;1&quot; data-sider-select-id=&quot;0093dcff-d91d-4139-bb9a-db35898fbf79&quot; style=&quot;&quot;&gt;&lt;b style=&quot;font-size: 11px;&quot; data-sider-select-id=&quot;89b25a30-2aa8-4108-b80b-62903c5db955&quot;&gt;Chemical Knowledge-Enhanced?&lt;/b&gt;&lt;/font&gt;" style="ellipse;whiteSpace=wrap;html=1;align=center;rotation=0;fillColor=#F8CECC;rounded=1;" parent="1" vertex="1">
          <mxGeometry x="-2061.38" y="-1282.21" width="83.27" height="59" as="geometry" />
        </mxCell>
        <mxCell id="xEzUvcs4P0c2zD8ZCyot-573" value="" style="shape=table;startSize=0;container=1;collapsible=0;childLayout=tableLayout;fillColor=#ABABAB;rounded=1;" parent="1" vertex="1">
          <mxGeometry x="-1615.58" y="-1461.3600000000001" width="80" height="20" as="geometry" />
        </mxCell>
        <mxCell id="xEzUvcs4P0c2zD8ZCyot-574" value="" style="shape=tableRow;horizontal=0;startSize=0;swimlaneHead=0;swimlaneBody=0;strokeColor=inherit;top=0;left=0;bottom=0;right=0;collapsible=0;dropTarget=0;fillColor=none;points=[[0,0.5],[1,0.5]];portConstraint=eastwest;rounded=1;" parent="xEzUvcs4P0c2zD8ZCyot-573" vertex="1">
          <mxGeometry width="80" height="20" as="geometry" />
        </mxCell>
        <mxCell id="xEzUvcs4P0c2zD8ZCyot-575" value="" style="shape=partialRectangle;html=1;whiteSpace=wrap;connectable=0;strokeColor=inherit;overflow=hidden;fillColor=none;top=0;left=0;bottom=0;right=0;pointerEvents=1;rounded=1;" parent="xEzUvcs4P0c2zD8ZCyot-574" vertex="1">
          <mxGeometry width="20" height="20" as="geometry">
            <mxRectangle width="20" height="20" as="alternateBounds" />
          </mxGeometry>
        </mxCell>
        <mxCell id="xEzUvcs4P0c2zD8ZCyot-576" value="" style="shape=partialRectangle;html=1;whiteSpace=wrap;connectable=0;strokeColor=inherit;overflow=hidden;fillColor=none;top=0;left=0;bottom=0;right=0;pointerEvents=1;rounded=1;" parent="xEzUvcs4P0c2zD8ZCyot-574" vertex="1">
          <mxGeometry x="20" width="20" height="20" as="geometry">
            <mxRectangle width="20" height="20" as="alternateBounds" />
          </mxGeometry>
        </mxCell>
        <mxCell id="xEzUvcs4P0c2zD8ZCyot-577" value="" style="shape=partialRectangle;html=1;whiteSpace=wrap;connectable=0;strokeColor=inherit;overflow=hidden;fillColor=none;top=0;left=0;bottom=0;right=0;pointerEvents=1;rounded=1;" parent="xEzUvcs4P0c2zD8ZCyot-574" vertex="1">
          <mxGeometry x="40" width="20" height="20" as="geometry">
            <mxRectangle width="20" height="20" as="alternateBounds" />
          </mxGeometry>
        </mxCell>
        <mxCell id="xEzUvcs4P0c2zD8ZCyot-578" value="" style="shape=partialRectangle;html=1;whiteSpace=wrap;connectable=0;strokeColor=inherit;overflow=hidden;fillColor=none;top=0;left=0;bottom=0;right=0;pointerEvents=1;rounded=1;" parent="xEzUvcs4P0c2zD8ZCyot-574" vertex="1">
          <mxGeometry x="60" width="20" height="20" as="geometry">
            <mxRectangle width="20" height="20" as="alternateBounds" />
          </mxGeometry>
        </mxCell>
        <mxCell id="xEzUvcs4P0c2zD8ZCyot-632" value="&lt;b&gt;&lt;font data-sider-select-id=&quot;e62efd42-cc8b-434a-af6e-2f5cee2ac099&quot; style=&quot;font-size: 12px;&quot;&gt;Pre-training Objective&lt;/font&gt;&lt;/b&gt;" style="text;html=1;align=center;verticalAlign=middle;resizable=0;points=[];autosize=1;strokeColor=none;fillColor=none;rotation=0;" parent="1" vertex="1">
          <mxGeometry x="-1525.8400000000001" y="-1531.3600000000001" width="150" height="30" as="geometry" />
        </mxCell>
        <mxCell id="VxqdtVdzdVgu5r6BKbT3-2" value="" style="shape=table;startSize=0;container=1;collapsible=0;childLayout=tableLayout;fillColor=#CCCCCC;direction=west;flipV=1;strokeWidth=1;rounded=1;" parent="1" vertex="1">
          <mxGeometry x="-1918.63" y="-1240.71" width="80.25" height="20" as="geometry" />
        </mxCell>
        <mxCell id="VxqdtVdzdVgu5r6BKbT3-3" value="" style="shape=tableRow;horizontal=0;startSize=0;swimlaneHead=0;swimlaneBody=0;strokeColor=inherit;top=0;left=0;bottom=0;right=0;collapsible=0;dropTarget=0;fillColor=none;points=[[0,0.5],[1,0.5]];portConstraint=eastwest;rounded=1;" parent="VxqdtVdzdVgu5r6BKbT3-2" vertex="1">
          <mxGeometry width="80.25" height="20" as="geometry" />
        </mxCell>
        <mxCell id="VxqdtVdzdVgu5r6BKbT3-4" value="" style="shape=partialRectangle;html=1;whiteSpace=wrap;connectable=0;strokeColor=inherit;overflow=hidden;fillColor=none;top=0;left=0;bottom=0;right=0;pointerEvents=1;rounded=1;" parent="VxqdtVdzdVgu5r6BKbT3-3" vertex="1">
          <mxGeometry width="20" height="20" as="geometry">
            <mxRectangle width="20" height="20" as="alternateBounds" />
          </mxGeometry>
        </mxCell>
        <mxCell id="VxqdtVdzdVgu5r6BKbT3-5" value="" style="shape=partialRectangle;html=1;whiteSpace=wrap;connectable=0;strokeColor=inherit;overflow=hidden;fillColor=none;top=0;left=0;bottom=0;right=0;pointerEvents=1;rounded=1;" parent="VxqdtVdzdVgu5r6BKbT3-3" vertex="1">
          <mxGeometry x="20" width="20" height="20" as="geometry">
            <mxRectangle width="20" height="20" as="alternateBounds" />
          </mxGeometry>
        </mxCell>
        <mxCell id="VxqdtVdzdVgu5r6BKbT3-6" value="" style="shape=partialRectangle;html=1;whiteSpace=wrap;connectable=0;strokeColor=inherit;overflow=hidden;fillColor=none;top=0;left=0;bottom=0;right=0;pointerEvents=1;rounded=1;" parent="VxqdtVdzdVgu5r6BKbT3-3" vertex="1">
          <mxGeometry x="40" width="20" height="20" as="geometry">
            <mxRectangle width="20" height="20" as="alternateBounds" />
          </mxGeometry>
        </mxCell>
        <mxCell id="VxqdtVdzdVgu5r6BKbT3-7" value="" style="shape=partialRectangle;html=1;whiteSpace=wrap;connectable=0;strokeColor=inherit;overflow=hidden;fillColor=none;top=0;left=0;bottom=0;right=0;pointerEvents=1;rounded=1;" parent="VxqdtVdzdVgu5r6BKbT3-3" vertex="1">
          <mxGeometry x="60" width="20" height="20" as="geometry">
            <mxRectangle width="20" height="20" as="alternateBounds" />
          </mxGeometry>
        </mxCell>
        <mxCell id="VxqdtVdzdVgu5r6BKbT3-8" value="" style="endArrow=classic;html=1;rounded=0;exitX=1;exitY=0.5;exitDx=0;exitDy=0;entryX=0;entryY=0.5;entryDx=0;entryDy=0;" parent="1" source="xEzUvcs4P0c2zD8ZCyot-41" target="VxqdtVdzdVgu5r6BKbT3-10" edge="1">
          <mxGeometry width="50" height="50" relative="1" as="geometry">
            <mxPoint x="-2017.95" y="-1453" as="sourcePoint" />
            <mxPoint x="-1967.95" y="-1503" as="targetPoint" />
          </mxGeometry>
        </mxCell>
        <mxCell id="VxqdtVdzdVgu5r6BKbT3-9" value="&lt;font style=&quot;font-size: 11px;&quot;&gt;&lt;b&gt;&lt;span data-sider-select-id=&quot;b02c1a80-9d7c-44f9-a044-0ade47ca06a0&quot; style=&quot;text-wrap: nowrap;&quot;&gt;&lt;font data-sider-select-id=&quot;0e33a698-68c0-431f-a662-bcf925057ea2&quot; face=&quot;Helvetica&quot;&gt;Contrastive&lt;/font&gt;&lt;/span&gt;&lt;br style=&quot;font-family: &amp;quot;Times New Roman&amp;quot;; text-wrap: nowrap;&quot;&gt;&lt;span data-sider-select-id=&quot;c95460db-b647-4c1d-ba7a-dd506a643c54&quot; style=&quot;text-wrap: nowrap;&quot;&gt;&lt;font data-sider-select-id=&quot;ca5abdf6-0867-49d9-b2cd-96ae7462cf49&quot; face=&quot;Helvetica&quot;&gt;Learning&lt;/font&gt;&lt;/span&gt;&lt;/b&gt;&lt;/font&gt;" style="rounded=0;whiteSpace=wrap;html=1;fillColor=#FFA5A2;" parent="1" vertex="1">
          <mxGeometry x="-1497.95" y="-1493.04" width="70" height="43.37" as="geometry" />
        </mxCell>
        <mxCell id="xEzUvcs4P0c2zD8ZCyot-579" value="" style="shape=table;startSize=0;container=1;collapsible=0;childLayout=tableLayout;fillColor=#FFA5A2;direction=west;flipV=1;strokeWidth=1;rounded=1;flipH=0;" parent="1" vertex="1">
          <mxGeometry x="-1615.58" y="-1501.36" width="80" height="20" as="geometry" />
        </mxCell>
        <mxCell id="xEzUvcs4P0c2zD8ZCyot-580" value="" style="shape=tableRow;horizontal=0;startSize=0;swimlaneHead=0;swimlaneBody=0;strokeColor=inherit;top=0;left=0;bottom=0;right=0;collapsible=0;dropTarget=0;fillColor=none;points=[[0,0.5],[1,0.5]];portConstraint=eastwest;rounded=1;" parent="xEzUvcs4P0c2zD8ZCyot-579" vertex="1">
          <mxGeometry width="80" height="20" as="geometry" />
        </mxCell>
        <mxCell id="xEzUvcs4P0c2zD8ZCyot-581" value="" style="shape=partialRectangle;html=1;whiteSpace=wrap;connectable=0;strokeColor=inherit;overflow=hidden;fillColor=none;top=0;left=0;bottom=0;right=0;pointerEvents=1;rounded=1;" parent="xEzUvcs4P0c2zD8ZCyot-580" vertex="1">
          <mxGeometry width="20" height="20" as="geometry">
            <mxRectangle width="20" height="20" as="alternateBounds" />
          </mxGeometry>
        </mxCell>
        <mxCell id="xEzUvcs4P0c2zD8ZCyot-582" value="" style="shape=partialRectangle;html=1;whiteSpace=wrap;connectable=0;strokeColor=inherit;overflow=hidden;fillColor=none;top=0;left=0;bottom=0;right=0;pointerEvents=1;rounded=1;" parent="xEzUvcs4P0c2zD8ZCyot-580" vertex="1">
          <mxGeometry x="20" width="20" height="20" as="geometry">
            <mxRectangle width="20" height="20" as="alternateBounds" />
          </mxGeometry>
        </mxCell>
        <mxCell id="xEzUvcs4P0c2zD8ZCyot-583" value="" style="shape=partialRectangle;html=1;whiteSpace=wrap;connectable=0;strokeColor=inherit;overflow=hidden;fillColor=none;top=0;left=0;bottom=0;right=0;pointerEvents=1;rounded=1;" parent="xEzUvcs4P0c2zD8ZCyot-580" vertex="1">
          <mxGeometry x="40" width="20" height="20" as="geometry">
            <mxRectangle width="20" height="20" as="alternateBounds" />
          </mxGeometry>
        </mxCell>
        <mxCell id="xEzUvcs4P0c2zD8ZCyot-584" value="" style="shape=partialRectangle;html=1;whiteSpace=wrap;connectable=0;strokeColor=inherit;overflow=hidden;fillColor=none;top=0;left=0;bottom=0;right=0;pointerEvents=1;rounded=1;" parent="xEzUvcs4P0c2zD8ZCyot-580" vertex="1">
          <mxGeometry x="60" width="20" height="20" as="geometry">
            <mxRectangle width="20" height="20" as="alternateBounds" />
          </mxGeometry>
        </mxCell>
        <mxCell id="VxqdtVdzdVgu5r6BKbT3-10" value="&lt;b style=&quot;font-size: 11px;&quot;&gt;&lt;font data-sider-select-id=&quot;cdb80e2b-8957-4674-9109-bf1e67b07d0e&quot; style=&quot;font-size: 11px;&quot;&gt;&lt;span style=&quot;&quot; data-sider-select-id=&quot;958d2bc0-8c10-4cf8-b9aa-cad3cb6ce39f&quot;&gt;&lt;span style=&quot;&quot; data-sider-select-id=&quot;8381ebb9-23ac-4e02-9cb9-2442b5ff856b&quot;&gt;&lt;span style=&quot;&quot; data-sider-select-id=&quot;62abd3d9-fa84-4c4a-a0b5-f961e3a03ff3&quot;&gt;&lt;span style=&quot;&quot; data-sider-select-id=&quot;9a0381f3-c6a7-41da-baf7-d997055eb336&quot;&gt;&lt;span style=&quot;&quot; data-sider-select-id=&quot;bb25a5a4-63d8-49ee-962b-71b40f6433d5&quot;&gt;Output&lt;/span&gt;&lt;/span&gt;&lt;/span&gt;&lt;/span&gt;&lt;/span&gt;&lt;/font&gt;&lt;/b&gt;&lt;div style=&quot;font-size: 11px;&quot;&gt;&lt;b style=&quot;&quot;&gt;&lt;span data-sider-select-id=&quot;0854d30e-4111-424d-8698-d0a3a96d2bf5&quot; style=&quot;background-color: initial;&quot;&gt;&lt;font style=&quot;font-size: 11px;&quot;&gt;Node&lt;/font&gt;&lt;/span&gt;&lt;/b&gt;&lt;/div&gt;&lt;div style=&quot;font-size: 11px;&quot;&gt;&lt;b style=&quot;&quot;&gt;&lt;span data-sider-select-id=&quot;329a0d23-54bf-46e6-affa-2896d8da9a58&quot; style=&quot;background-color: initial;&quot;&gt;&lt;font style=&quot;font-size: 11px;&quot;&gt;Rep.&lt;/font&gt;&lt;/span&gt;&lt;/b&gt;&lt;/div&gt;" style="rounded=1;whiteSpace=wrap;html=1;fillColor=#E1D5E7;" parent="1" vertex="1">
          <mxGeometry x="-1796.95" y="-1501.3600000000001" width="60" height="60" as="geometry" />
        </mxCell>
        <mxCell id="VxqdtVdzdVgu5r6BKbT3-11" value="&lt;b data-sider-select-id=&quot;83e606f3-8dd1-4212-94f8-dbe3770972c9&quot;&gt;&lt;font data-sider-select-id=&quot;63ddc8e8-7fac-4ffc-9700-af0d21936c02&quot; style=&quot;font-size: 11px;&quot;&gt;Readout&lt;/font&gt;&lt;/b&gt;" style="rounded=0;whiteSpace=wrap;html=1;fillColor=#FFF2CC;" parent="1" vertex="1">
          <mxGeometry x="-1707.95" y="-1485.97" width="50" height="29.17" as="geometry" />
        </mxCell>
        <mxCell id="VxqdtVdzdVgu5r6BKbT3-13" value="" style="endArrow=classic;html=1;rounded=0;exitX=1;exitY=0.5;exitDx=0;exitDy=0;entryX=0;entryY=0.5;entryDx=0;entryDy=0;" parent="1" source="VxqdtVdzdVgu5r6BKbT3-10" target="VxqdtVdzdVgu5r6BKbT3-11" edge="1">
          <mxGeometry width="50" height="50" relative="1" as="geometry">
            <mxPoint x="-1907.95" y="-1673" as="sourcePoint" />
            <mxPoint x="-1857.95" y="-1723" as="targetPoint" />
          </mxGeometry>
        </mxCell>
        <mxCell id="VxqdtVdzdVgu5r6BKbT3-14" value="" style="edgeStyle=elbowEdgeStyle;elbow=horizontal;endArrow=classic;html=1;curved=0;rounded=0;endSize=8;startSize=8;exitX=1;exitY=0.5;exitDx=0;exitDy=0;entryX=0;entryY=0.5;entryDx=0;entryDy=0;" parent="1" source="VxqdtVdzdVgu5r6BKbT3-11" target="xEzUvcs4P0c2zD8ZCyot-580" edge="1">
          <mxGeometry width="50" height="50" relative="1" as="geometry">
            <mxPoint x="-1650.58" y="-1583" as="sourcePoint" />
            <mxPoint x="-1600.58" y="-1633" as="targetPoint" />
            <Array as="points">
              <mxPoint x="-1637.95" y="-1483" />
            </Array>
          </mxGeometry>
        </mxCell>
        <mxCell id="VxqdtVdzdVgu5r6BKbT3-15" value="" style="edgeStyle=elbowEdgeStyle;elbow=horizontal;endArrow=classic;html=1;curved=0;rounded=0;endSize=8;startSize=8;exitX=1;exitY=0.5;exitDx=0;exitDy=0;entryX=0;entryY=0.5;entryDx=0;entryDy=0;" parent="1" source="VxqdtVdzdVgu5r6BKbT3-11" target="xEzUvcs4P0c2zD8ZCyot-574" edge="1">
          <mxGeometry width="50" height="50" relative="1" as="geometry">
            <mxPoint x="-1656.25" y="-1470.535" as="sourcePoint" />
            <mxPoint x="-1613.88" y="-1450.5400000000002" as="targetPoint" />
            <Array as="points">
              <mxPoint x="-1637.95" y="-1463" />
            </Array>
          </mxGeometry>
        </mxCell>
        <mxCell id="VxqdtVdzdVgu5r6BKbT3-17" value="" style="edgeStyle=elbowEdgeStyle;elbow=horizontal;endArrow=classic;html=1;curved=0;rounded=0;endSize=8;startSize=8;exitX=0;exitY=0.5;exitDx=0;exitDy=0;entryX=0;entryY=0.5;entryDx=0;entryDy=0;" parent="1" source="xEzUvcs4P0c2zD8ZCyot-579" target="VxqdtVdzdVgu5r6BKbT3-9" edge="1">
          <mxGeometry width="50" height="50" relative="1" as="geometry">
            <mxPoint x="-1527.95" y="-1493" as="sourcePoint" />
            <mxPoint x="-1485.58" y="-1442.17" as="targetPoint" />
          </mxGeometry>
        </mxCell>
        <mxCell id="VxqdtVdzdVgu5r6BKbT3-18" value="" style="edgeStyle=elbowEdgeStyle;elbow=horizontal;endArrow=classic;html=1;curved=0;rounded=0;endSize=8;startSize=8;entryX=0;entryY=0.5;entryDx=0;entryDy=0;exitX=1;exitY=0.5;exitDx=0;exitDy=0;" parent="1" source="xEzUvcs4P0c2zD8ZCyot-573" target="VxqdtVdzdVgu5r6BKbT3-9" edge="1">
          <mxGeometry width="50" height="50" relative="1" as="geometry">
            <mxPoint x="-1577.95" y="-1466.3600000000001" as="sourcePoint" />
            <mxPoint x="-1527.95" y="-1516.3600000000001" as="targetPoint" />
          </mxGeometry>
        </mxCell>
        <mxCell id="VxqdtVdzdVgu5r6BKbT3-19" value="&lt;font size=&quot;1&quot; data-sider-select-id=&quot;ff24dfee-ffc2-4087-a43f-4c16d51d3167&quot; face=&quot;Times New Roman&quot;&gt;&lt;i data-sider-select-id=&quot;2a5394e0-1ae0-4264-bb97-6ebed8818760&quot;&gt;&lt;b style=&quot;font-size: 11px;&quot; data-sider-select-id=&quot;eeca12e5-d156-4b1b-9fae-8ad851d7e0c3&quot;&gt;2D Graph&lt;/b&gt;&lt;/i&gt;&lt;/font&gt;" style="text;html=1;align=center;verticalAlign=middle;resizable=0;points=[];autosize=1;strokeColor=none;fillColor=none;rotation=0;rounded=1;flipV=0;" parent="1" vertex="1">
          <mxGeometry x="-2186" y="-1227.67" width="70" height="30" as="geometry" />
        </mxCell>
        <mxCell id="VxqdtVdzdVgu5r6BKbT3-21" value="" style="endArrow=classic;html=1;rounded=0;entryX=0.001;entryY=-0.02;entryDx=0;entryDy=0;entryPerimeter=0;" parent="1" target="xEzUvcs4P0c2zD8ZCyot-205" edge="1">
          <mxGeometry width="50" height="50" relative="1" as="geometry">
            <mxPoint x="-2111.5" y="-1061.2400000000002" as="sourcePoint" />
            <mxPoint x="-2032.0000000000002" y="-1061.71" as="targetPoint" />
          </mxGeometry>
        </mxCell>
        <mxCell id="VxqdtVdzdVgu5r6BKbT3-22" value="&lt;font size=&quot;1&quot; data-sider-select-id=&quot;ff24dfee-ffc2-4087-a43f-4c16d51d3167&quot; face=&quot;Times New Roman&quot;&gt;&lt;i data-sider-select-id=&quot;2a5394e0-1ae0-4264-bb97-6ebed8818760&quot;&gt;&lt;b style=&quot;font-size: 11px;&quot; data-sider-select-id=&quot;eeca12e5-d156-4b1b-9fae-8ad851d7e0c3&quot;&gt;Atomic Distances&lt;/b&gt;&lt;/i&gt;&lt;/font&gt;" style="text;html=1;align=center;verticalAlign=middle;resizable=0;points=[];autosize=1;strokeColor=none;fillColor=none;rotation=0;rounded=1;flipV=0;" parent="1" vertex="1">
          <mxGeometry x="-2051.45" y="-1018.71" width="100" height="30" as="geometry" />
        </mxCell>
        <mxCell id="VxqdtVdzdVgu5r6BKbT3-37" value="" style="shape=cube;whiteSpace=wrap;html=1;boundedLbl=1;backgroundOutline=1;darkOpacity=0.05;darkOpacity2=0.1;points=[[0,0,0,0,0],[0,0,0,0,12.5],[0,0,0,0,25],[0,0,0,10,35],[0,0,0,20,45],[0,0,0,50,0],[0,0,0,70,45],[0,0,0,100,0],[0,0,0,110,10],[0,0,0,120,20],[0,0,0,120,32.5],[0.08,0.22,0,0,0],[1,1,0,0,0]];rotation=-90;flipH=0;flipV=1;direction=south;size=6;fillColor=#A680B8;" parent="1" vertex="1">
          <mxGeometry x="-2025.3100000000002" y="-1210.7100000000003" width="18.84" height="73.89" as="geometry" />
        </mxCell>
        <mxCell id="VxqdtVdzdVgu5r6BKbT3-41" value="" style="shape=cube;whiteSpace=wrap;html=1;boundedLbl=1;backgroundOutline=1;darkOpacity=0.05;darkOpacity2=0.1;points=[[0,0,0,0,0],[0,0,0,0,12.5],[0,0,0,0,25],[0,0,0,10,35],[0,0,0,20,45],[0,0,0,50,0],[0,0,0,70,45],[0,0,0,100,0],[0,0,0,110,10],[0,0,0,120,20],[0,0,0,120,32.5],[0.08,0.22,0,0,0],[1,1,0,0,0]];rotation=-90;flipH=0;flipV=1;direction=south;size=6;fillColor=#A680B8;" parent="1" vertex="1">
          <mxGeometry x="-2031.3600000000004" y="-1204.65" width="18.84" height="73.89" as="geometry" />
        </mxCell>
        <mxCell id="VxqdtVdzdVgu5r6BKbT3-43" value="&lt;font size=&quot;1&quot; data-sider-select-id=&quot;ff24dfee-ffc2-4087-a43f-4c16d51d3167&quot; face=&quot;Times New Roman&quot;&gt;&lt;i data-sider-select-id=&quot;2a5394e0-1ae0-4264-bb97-6ebed8818760&quot;&gt;&lt;b style=&quot;font-size: 11px;&quot; data-sider-select-id=&quot;eeca12e5-d156-4b1b-9fae-8ad851d7e0c3&quot;&gt;h&lt;sub data-sider-select-id=&quot;45b2b460-2f4b-4892-8360-2609940a5ab5&quot;&gt;i&lt;/sub&gt;&lt;/b&gt;&lt;/i&gt;&lt;/font&gt;" style="text;html=1;align=center;verticalAlign=middle;resizable=0;points=[];autosize=1;strokeColor=none;fillColor=none;rotation=0;rounded=1;flipV=0;" parent="1" vertex="1">
          <mxGeometry x="-1893.5100000000002" y="-1212.75" width="30" height="30" as="geometry" />
        </mxCell>
        <mxCell id="VxqdtVdzdVgu5r6BKbT3-45" value="&lt;font size=&quot;1&quot; data-sider-select-id=&quot;ff24dfee-ffc2-4087-a43f-4c16d51d3167&quot; face=&quot;Times New Roman&quot;&gt;&lt;i data-sider-select-id=&quot;2a5394e0-1ae0-4264-bb97-6ebed8818760&quot;&gt;&lt;b style=&quot;font-size: 11px;&quot; data-sider-select-id=&quot;eeca12e5-d156-4b1b-9fae-8ad851d7e0c3&quot;&gt;e&lt;sub data-sider-select-id=&quot;45b2b460-2f4b-4892-8360-2609940a5ab5&quot;&gt;ij&lt;/sub&gt;&lt;/b&gt;&lt;/i&gt;&lt;/font&gt;" style="text;html=1;align=center;verticalAlign=middle;resizable=0;points=[];autosize=1;strokeColor=none;fillColor=none;rotation=0;rounded=1;flipV=0;" parent="1" vertex="1">
          <mxGeometry x="-2034.7500000000002" y="-1160.78" width="30" height="30" as="geometry" />
        </mxCell>
        <mxCell id="VxqdtVdzdVgu5r6BKbT3-50" value="" style="shape=curlyBracket;whiteSpace=wrap;html=1;rounded=1;labelPosition=left;verticalLabelPosition=middle;align=right;verticalAlign=middle;points=[[0,0.75,0,0,0],[0.1,0.5,0,0,0],[0.25,0.2,0,0,0],[0.25,1,0,0,0],[0.5,0,0,0,0],[0.5,1,0,0,0],[0.75,0,0,0,0],[0.75,0.25,0,0,0],[0.75,1,0,0,0],[0.9,0.5,0,0,0],[1,0.75,0,0,0]];" parent="1" vertex="1">
          <mxGeometry x="-1971.3800000000003" y="-1270.71" width="25" height="40" as="geometry" />
        </mxCell>
        <mxCell id="VxqdtVdzdVgu5r6BKbT3-51" value="&lt;font data-sider-select-id=&quot;63570242-16fb-403c-85af-a124bc819baa&quot; style=&quot;font-size: 11px;&quot;&gt;&lt;span data-sider-select-id=&quot;c2a56f76-c708-47e8-ba66-e6e6f471ab05&quot;&gt;&lt;span style=&quot;&quot; data-sider-select-id=&quot;09a1a5fd-d9d1-4263-8edf-f2c0f2a3f451&quot;&gt;yes&lt;/span&gt;&lt;/span&gt;&lt;/font&gt;" style="text;strokeColor=none;fillColor=none;align=center;verticalAlign=middle;spacingLeft=4;spacingRight=4;overflow=hidden;points=[[0,0.5],[1,0.5]];portConstraint=eastwest;rotatable=0;whiteSpace=wrap;html=1;" parent="1" vertex="1">
          <mxGeometry x="-1962.1200000000003" y="-1295.71" width="29" height="30" as="geometry" />
        </mxCell>
        <mxCell id="VxqdtVdzdVgu5r6BKbT3-52" value="&lt;font data-sider-select-id=&quot;63570242-16fb-403c-85af-a124bc819baa&quot; style=&quot;font-size: 11px;&quot;&gt;&lt;span data-sider-select-id=&quot;c2a56f76-c708-47e8-ba66-e6e6f471ab05&quot;&gt;&lt;span style=&quot;&quot; data-sider-select-id=&quot;09a1a5fd-d9d1-4263-8edf-f2c0f2a3f451&quot;&gt;no&lt;/span&gt;&lt;/span&gt;&lt;/font&gt;" style="text;strokeColor=none;fillColor=none;align=center;verticalAlign=middle;spacingLeft=4;spacingRight=4;overflow=hidden;points=[[0,0.5],[1,0.5]];portConstraint=eastwest;rotatable=0;whiteSpace=wrap;html=1;" parent="1" vertex="1">
          <mxGeometry x="-1962.1200000000003" y="-1238.73" width="29" height="30" as="geometry" />
        </mxCell>
        <mxCell id="VxqdtVdzdVgu5r6BKbT3-53" value="" style="endArrow=classic;html=1;rounded=0;entryX=1;entryY=0.5;entryDx=0;entryDy=0;exitX=0.75;exitY=0;exitDx=0;exitDy=0;exitPerimeter=0;" parent="1" source="VxqdtVdzdVgu5r6BKbT3-50" target="xEzUvcs4P0c2zD8ZCyot-264" edge="1">
          <mxGeometry width="50" height="50" relative="1" as="geometry">
            <mxPoint x="-1939.38" y="-1280.71" as="sourcePoint" />
            <mxPoint x="-1899.38" y="-1340.71" as="targetPoint" />
          </mxGeometry>
        </mxCell>
        <mxCell id="VxqdtVdzdVgu5r6BKbT3-54" value="" style="endArrow=classic;html=1;rounded=0;entryX=0;entryY=0.5;entryDx=0;entryDy=0;exitX=0.75;exitY=1;exitDx=0;exitDy=0;" parent="1" source="VxqdtVdzdVgu5r6BKbT3-50" target="VxqdtVdzdVgu5r6BKbT3-3" edge="1">
          <mxGeometry width="50" height="50" relative="1" as="geometry">
            <mxPoint x="-1899.38" y="-1220.71" as="sourcePoint" />
            <mxPoint x="-1849.38" y="-1270.71" as="targetPoint" />
          </mxGeometry>
        </mxCell>
        <mxCell id="VxqdtVdzdVgu5r6BKbT3-63" value="&lt;font size=&quot;1&quot; data-sider-select-id=&quot;ff24dfee-ffc2-4087-a43f-4c16d51d3167&quot; face=&quot;Times New Roman&quot;&gt;&lt;i data-sider-select-id=&quot;2a5394e0-1ae0-4264-bb97-6ebed8818760&quot;&gt;&lt;b style=&quot;font-size: 11px;&quot; data-sider-select-id=&quot;eeca12e5-d156-4b1b-9fae-8ad851d7e0c3&quot;&gt;Positional Encoding&lt;/b&gt;&lt;/i&gt;&lt;/font&gt;" style="text;html=1;align=center;verticalAlign=middle;resizable=0;points=[];autosize=1;strokeColor=none;fillColor=none;rotation=0;rounded=1;flipV=0;" parent="1" vertex="1">
          <mxGeometry x="-1905.3800000000006" y="-1018.71" width="120" height="30" as="geometry" />
        </mxCell>
        <mxCell id="VxqdtVdzdVgu5r6BKbT3-64" value="" style="endArrow=classic;html=1;rounded=0;exitX=1.013;exitY=-0.003;exitDx=0;exitDy=0;exitPerimeter=0;" parent="1" edge="1">
          <mxGeometry width="50" height="50" relative="1" as="geometry">
            <mxPoint x="-1948.9500000000005" y="-1060.7850000000003" as="sourcePoint" />
            <mxPoint x="-1891.3800000000003" y="-1060.71" as="targetPoint" />
          </mxGeometry>
        </mxCell>
        <mxCell id="VxqdtVdzdVgu5r6BKbT3-72" value="" style="endArrow=classic;html=1;rounded=0;entryX=0.5;entryY=1;entryDx=0;entryDy=0;" parent="1" target="VxqdtVdzdVgu5r6BKbT3-65" edge="1">
          <mxGeometry width="50" height="50" relative="1" as="geometry">
            <mxPoint x="-1845.3800000000003" y="-1090.71" as="sourcePoint" />
            <mxPoint x="-1761.0000000000002" y="-1139.71" as="targetPoint" />
            <Array as="points" />
          </mxGeometry>
        </mxCell>
        <mxCell id="VxqdtVdzdVgu5r6BKbT3-75" value="" style="ellipse;whiteSpace=wrap;html=1;align=center;aspect=fixed;fillColor=none;strokeColor=none;resizable=0;perimeter=centerPerimeter;rotatable=0;allowArrows=0;points=[];outlineConnect=1;" parent="1" vertex="1">
          <mxGeometry x="-1978.3300000000002" y="-1192.75" width="10" height="10" as="geometry" />
        </mxCell>
        <mxCell id="VxqdtVdzdVgu5r6BKbT3-65" value="" style="shape=orEllipse;perimeter=ellipsePerimeter;whiteSpace=wrap;html=1;backgroundOutline=1;" parent="1" vertex="1">
          <mxGeometry x="-1855.38" y="-1180.78" width="20" height="20" as="geometry" />
        </mxCell>
        <mxCell id="VxqdtVdzdVgu5r6BKbT3-85" value="" style="rounded=0;orthogonalLoop=1;jettySize=auto;html=1;endArrow=halfCircle;endFill=0;endSize=15;strokeWidth=1;sketch=0;fontSize=12;curved=1;startSize=20;exitX=0.5;exitY=1;exitDx=0;exitDy=0;" parent="1" edge="1">
          <mxGeometry relative="1" as="geometry">
            <mxPoint x="-1558.0049999999999" y="-1058.96" as="sourcePoint" />
            <mxPoint x="-1557.89" y="-1018.94" as="targetPoint" />
          </mxGeometry>
        </mxCell>
        <mxCell id="VxqdtVdzdVgu5r6BKbT3-86" value="&lt;span style=&quot;font-size: 11px;&quot;&gt;&lt;b&gt;Node&lt;/b&gt;&lt;/span&gt;&lt;br&gt;&lt;div style=&quot;font-size: 11px;&quot;&gt;&lt;b&gt;Rep.&lt;/b&gt;&lt;/div&gt;" style="rounded=1;whiteSpace=wrap;html=1;direction=east;flipH=0;flipV=0;fillColor=#E1D5E7;" parent="1" vertex="1">
          <mxGeometry x="-1589.94" y="-1019" width="30" height="30" as="geometry" />
        </mxCell>
        <mxCell id="VxqdtVdzdVgu5r6BKbT3-89" value="&lt;b data-sider-select-id=&quot;83e606f3-8dd1-4212-94f8-dbe3770972c9&quot;&gt;&lt;font style=&quot;font-size: 11px;&quot; data-sider-select-id=&quot;63ddc8e8-7fac-4ffc-9700-af0d21936c02&quot;&gt;Concat&lt;/font&gt;&lt;/b&gt;" style="rounded=0;whiteSpace=wrap;html=1;direction=east;flipH=0;flipV=0;fillColor=#dae8fc;strokeColor=#6c8ebf;" parent="1" vertex="1">
          <mxGeometry x="-1585.9400000000003" y="-1063.98" width="56.11" height="20" as="geometry" />
        </mxCell>
        <mxCell id="VxqdtVdzdVgu5r6BKbT3-90" value="&lt;span style=&quot;font-size: 11px;&quot;&gt;&lt;b data-sider-select-id=&quot;328ef837-c884-45be-9133-4523d07ab932&quot;&gt;Edge&lt;/b&gt;&lt;/span&gt;&lt;br&gt;&lt;div style=&quot;font-size: 11px;&quot;&gt;&lt;b&gt;Rep.&lt;/b&gt;&lt;/div&gt;" style="rounded=1;whiteSpace=wrap;html=1;direction=east;flipH=0;flipV=0;fillColor=#E1D5E7;" parent="1" vertex="1">
          <mxGeometry x="-1555.8300000000002" y="-1018.71" width="30" height="30" as="geometry" />
        </mxCell>
        <mxCell id="VxqdtVdzdVgu5r6BKbT3-94" value="" style="edgeStyle=elbowEdgeStyle;elbow=vertical;endArrow=classic;html=1;curved=0;rounded=0;endSize=8;startSize=8;exitX=0.5;exitY=0;exitDx=0;exitDy=0;entryX=0.75;entryY=1;entryDx=0;entryDy=0;" parent="1" source="VxqdtVdzdVgu5r6BKbT3-89" target="VxqdtVdzdVgu5r6BKbT3-97" edge="1">
          <mxGeometry width="50" height="50" relative="1" as="geometry">
            <mxPoint x="-1579.4800000000002" y="-1132.96" as="sourcePoint" />
            <mxPoint x="-1527.4800000000002" y="-1132.96" as="targetPoint" />
            <Array as="points">
              <mxPoint x="-1541.7700000000002" y="-1073.96" />
            </Array>
          </mxGeometry>
        </mxCell>
        <mxCell id="VxqdtVdzdVgu5r6BKbT3-95" value="" style="edgeStyle=elbowEdgeStyle;elbow=vertical;endArrow=classic;html=1;curved=0;rounded=0;endSize=8;startSize=8;exitX=0.5;exitY=0;exitDx=0;exitDy=0;entryX=0.25;entryY=1;entryDx=0;entryDy=0;" parent="1" source="VxqdtVdzdVgu5r6BKbT3-89" target="VxqdtVdzdVgu5r6BKbT3-97" edge="1">
          <mxGeometry width="50" height="50" relative="1" as="geometry">
            <mxPoint x="-1566.0400000000002" y="-1121.32" as="sourcePoint" />
            <mxPoint x="-1597.4800000000002" y="-1132.96" as="targetPoint" />
            <Array as="points">
              <mxPoint x="-1571.7700000000002" y="-1073.96" />
            </Array>
          </mxGeometry>
        </mxCell>
        <mxCell id="VxqdtVdzdVgu5r6BKbT3-96" value="" style="endArrow=classic;html=1;rounded=0;exitX=0.5;exitY=0;exitDx=0;exitDy=0;entryX=0.5;entryY=1;entryDx=0;entryDy=0;" parent="1" source="VxqdtVdzdVgu5r6BKbT3-89" target="VxqdtVdzdVgu5r6BKbT3-97" edge="1">
          <mxGeometry width="50" height="50" relative="1" as="geometry">
            <mxPoint x="-1557.4800000000002" y="-1122.96" as="sourcePoint" />
            <mxPoint x="-1562.4800000000002" y="-1132.96" as="targetPoint" />
          </mxGeometry>
        </mxCell>
        <mxCell id="VxqdtVdzdVgu5r6BKbT3-97" value="&lt;font data-sider-select-id=&quot;addaec93-30c8-47f1-8c8e-a56f1d95561a&quot; style=&quot;font-size: 11px;&quot;&gt;&lt;b data-sider-select-id=&quot;6be3259e-6ca5-4552-8bbf-cc417b6c57a0&quot;&gt;Multi-Head Attention&lt;/b&gt;&lt;/font&gt;" style="rounded=1;whiteSpace=wrap;html=1;fillColor=#d5e8d4;strokeColor=#82b366;" parent="1" vertex="1">
          <mxGeometry x="-1601.7700000000002" y="-1137.07" width="87.78" height="45.09" as="geometry" />
        </mxCell>
        <mxCell id="VxqdtVdzdVgu5r6BKbT3-98" value="" style="endArrow=classic;html=1;rounded=0;exitX=0.5;exitY=0;exitDx=0;exitDy=0;entryX=0.5;entryY=1;entryDx=0;entryDy=0;" parent="1" source="VxqdtVdzdVgu5r6BKbT3-97" target="VxqdtVdzdVgu5r6BKbT3-99" edge="1">
          <mxGeometry width="50" height="50" relative="1" as="geometry">
            <mxPoint x="-1407.4800000000002" y="-1222.96" as="sourcePoint" />
            <mxPoint x="-1562.4800000000002" y="-1182.96" as="targetPoint" />
          </mxGeometry>
        </mxCell>
        <mxCell id="VxqdtVdzdVgu5r6BKbT3-99" value="&lt;b data-sider-select-id=&quot;99af81d3-6ce7-4da8-977c-a1c27620e26a&quot;&gt;&lt;font data-sider-select-id=&quot;a26363cb-6b6c-4fa7-8f63-68c9f33c8ffb&quot; style=&quot;font-size: 11px;&quot;&gt;Feed Forward&lt;/font&gt;&lt;/b&gt;" style="rounded=1;whiteSpace=wrap;html=1;fillColor=#ffe6cc;strokeColor=#d79b00;" parent="1" vertex="1">
          <mxGeometry x="-1600.2900000000002" y="-1183.96" width="84.81" height="30" as="geometry" />
        </mxCell>
        <mxCell id="VxqdtVdzdVgu5r6BKbT3-101" value="&lt;b data-sider-select-id=&quot;ae041995-5304-4954-b535-f2804b6ba88e&quot;&gt;&lt;font data-sider-select-id=&quot;fd85521a-da44-4fdb-8fb6-c2f733ed943b&quot; style=&quot;font-size: 11px;&quot;&gt;Add &amp;amp; Norm&lt;/font&gt;&lt;/b&gt;" style="rounded=1;whiteSpace=wrap;html=1;fillColor=#f8cecc;strokeColor=#b85450;" parent="1" vertex="1">
          <mxGeometry x="-1598.44" y="-1223.96" width="81.11" height="20" as="geometry" />
        </mxCell>
        <mxCell id="VxqdtVdzdVgu5r6BKbT3-102" value="" style="endArrow=classic;html=1;rounded=0;exitX=0.5;exitY=0;exitDx=0;exitDy=0;entryX=0.5;entryY=1;entryDx=0;entryDy=0;" parent="1" source="VxqdtVdzdVgu5r6BKbT3-99" target="VxqdtVdzdVgu5r6BKbT3-101" edge="1">
          <mxGeometry width="50" height="50" relative="1" as="geometry">
            <mxPoint x="-1591.7700000000002" y="-1303.96" as="sourcePoint" />
            <mxPoint x="-1541.7700000000002" y="-1353.96" as="targetPoint" />
          </mxGeometry>
        </mxCell>
        <mxCell id="VxqdtVdzdVgu5r6BKbT3-103" value="&lt;b data-sider-select-id=&quot;6c39fb15-bda7-4d28-9dc9-1e1981b1cfbc&quot;&gt;&lt;font data-sider-select-id=&quot;6492635c-df46-4af9-b0d8-b41adec81a2a&quot; style=&quot;font-size: 11px;&quot;&gt;Updated&lt;/font&gt;&lt;/b&gt;&lt;div data-sider-select-id=&quot;361f2ca5-ff3f-4253-9dfd-0a0b5e5de7fa&quot;&gt;&lt;font data-sider-select-id=&quot;e1b936b2-6928-4998-9f68-2956cca25b60&quot; style=&quot;font-size: 11px;&quot;&gt;&lt;b data-sider-select-id=&quot;6efdd3a1-6abf-41b4-9da0-aa0b5ee4c7df&quot;&gt;Node&lt;/b&gt;&lt;/font&gt;&lt;/div&gt;&lt;div data-sider-select-id=&quot;e38e5786-623a-41f8-9f98-ffc73bfbd846&quot;&gt;&lt;b&gt;&lt;span data-sider-select-id=&quot;b589dc3e-d75e-4086-b40a-b1f712e49459&quot;&gt;&lt;font data-sider-select-id=&quot;374eaa25-17cb-4fbc-908d-dc330ec10ec4&quot; style=&quot;font-size: 11px;&quot;&gt;Rep&lt;/font&gt;&lt;/span&gt;.&lt;/b&gt;&lt;/div&gt;" style="rounded=1;whiteSpace=wrap;html=1;fillColor=#E1D5E7;" parent="1" vertex="1">
          <mxGeometry x="-1582.88" y="-1297" width="50" height="50" as="geometry" />
        </mxCell>
        <mxCell id="VxqdtVdzdVgu5r6BKbT3-105" value="" style="endArrow=classic;html=1;rounded=0;exitX=0.5;exitY=0;exitDx=0;exitDy=0;entryX=0.5;entryY=1;entryDx=0;entryDy=0;" parent="1" source="VxqdtVdzdVgu5r6BKbT3-101" target="VxqdtVdzdVgu5r6BKbT3-103" edge="1">
          <mxGeometry width="50" height="50" relative="1" as="geometry">
            <mxPoint x="-1581.7700000000002" y="-1283.96" as="sourcePoint" />
            <mxPoint x="-1531.7700000000002" y="-1333.96" as="targetPoint" />
          </mxGeometry>
        </mxCell>
        <mxCell id="VxqdtVdzdVgu5r6BKbT3-148" value="" style="shape=table;startSize=0;container=1;collapsible=0;childLayout=tableLayout;fontSize=12;direction=east;flipH=1;aspect=fixed;fillColor=#ffe6cc;strokeColor=#000000;" parent="1" vertex="1">
          <mxGeometry x="-1481.88" y="-1068.96" width="20" height="80" as="geometry" />
        </mxCell>
        <mxCell id="VxqdtVdzdVgu5r6BKbT3-179" style="shape=tableRow;horizontal=0;startSize=0;swimlaneHead=0;swimlaneBody=0;strokeColor=inherit;top=0;left=0;bottom=0;right=0;collapsible=0;dropTarget=0;fillColor=none;points=[[0,0.5],[1,0.5]];portConstraint=eastwest;fontSize=16;" parent="VxqdtVdzdVgu5r6BKbT3-148" vertex="1">
          <mxGeometry width="20" height="20" as="geometry" />
        </mxCell>
        <mxCell id="VxqdtVdzdVgu5r6BKbT3-180" style="shape=partialRectangle;html=1;whiteSpace=wrap;connectable=0;strokeColor=inherit;overflow=hidden;fillColor=none;top=0;left=0;bottom=0;right=0;pointerEvents=1;fontSize=16;" parent="VxqdtVdzdVgu5r6BKbT3-179" vertex="1">
          <mxGeometry width="20" height="20" as="geometry">
            <mxRectangle width="20" height="20" as="alternateBounds" />
          </mxGeometry>
        </mxCell>
        <mxCell id="VxqdtVdzdVgu5r6BKbT3-167" style="shape=tableRow;horizontal=0;startSize=0;swimlaneHead=0;swimlaneBody=0;strokeColor=inherit;top=0;left=0;bottom=0;right=0;collapsible=0;dropTarget=0;fillColor=none;points=[[0,0.5],[1,0.5]];portConstraint=eastwest;fontSize=16;" parent="VxqdtVdzdVgu5r6BKbT3-148" vertex="1">
          <mxGeometry y="20" width="20" height="20" as="geometry" />
        </mxCell>
        <mxCell id="VxqdtVdzdVgu5r6BKbT3-168" style="shape=partialRectangle;html=1;whiteSpace=wrap;connectable=0;strokeColor=inherit;overflow=hidden;fillColor=none;top=0;left=0;bottom=0;right=0;pointerEvents=1;fontSize=16;" parent="VxqdtVdzdVgu5r6BKbT3-167" vertex="1">
          <mxGeometry width="20" height="20" as="geometry">
            <mxRectangle width="20" height="20" as="alternateBounds" />
          </mxGeometry>
        </mxCell>
        <mxCell id="VxqdtVdzdVgu5r6BKbT3-149" value="" style="shape=tableRow;horizontal=0;startSize=0;swimlaneHead=0;swimlaneBody=0;strokeColor=inherit;top=0;left=0;bottom=0;right=0;collapsible=0;dropTarget=0;fillColor=none;points=[[0,0.5],[1,0.5]];portConstraint=eastwest;fontSize=16;" parent="VxqdtVdzdVgu5r6BKbT3-148" vertex="1">
          <mxGeometry y="40" width="20" height="20" as="geometry" />
        </mxCell>
        <mxCell id="VxqdtVdzdVgu5r6BKbT3-150" value="" style="shape=partialRectangle;html=1;whiteSpace=wrap;connectable=0;strokeColor=inherit;overflow=hidden;fillColor=none;top=0;left=0;bottom=0;right=0;pointerEvents=1;fontSize=16;" parent="VxqdtVdzdVgu5r6BKbT3-149" vertex="1">
          <mxGeometry width="20" height="20" as="geometry">
            <mxRectangle width="20" height="20" as="alternateBounds" />
          </mxGeometry>
        </mxCell>
        <mxCell id="VxqdtVdzdVgu5r6BKbT3-153" value="" style="shape=tableRow;horizontal=0;startSize=0;swimlaneHead=0;swimlaneBody=0;strokeColor=inherit;top=0;left=0;bottom=0;right=0;collapsible=0;dropTarget=0;fillColor=none;points=[[0,0.5],[1,0.5]];portConstraint=eastwest;fontSize=16;" parent="VxqdtVdzdVgu5r6BKbT3-148" vertex="1">
          <mxGeometry y="60" width="20" height="20" as="geometry" />
        </mxCell>
        <mxCell id="VxqdtVdzdVgu5r6BKbT3-154" value="" style="shape=partialRectangle;html=1;whiteSpace=wrap;connectable=0;strokeColor=inherit;overflow=hidden;fillColor=none;top=0;left=0;bottom=0;right=0;pointerEvents=1;fontSize=16;" parent="VxqdtVdzdVgu5r6BKbT3-153" vertex="1">
          <mxGeometry width="20" height="20" as="geometry">
            <mxRectangle width="20" height="20" as="alternateBounds" />
          </mxGeometry>
        </mxCell>
        <mxCell id="VxqdtVdzdVgu5r6BKbT3-187" value="" style="shape=table;startSize=0;container=1;collapsible=0;childLayout=tableLayout;fontSize=12;direction=east;flipH=1;aspect=fixed;fillColor=#ffe6cc;strokeColor=#000000;" parent="1" vertex="1">
          <mxGeometry x="-1458.91" y="-1068.96" width="20" height="80" as="geometry" />
        </mxCell>
        <mxCell id="VxqdtVdzdVgu5r6BKbT3-188" style="shape=tableRow;horizontal=0;startSize=0;swimlaneHead=0;swimlaneBody=0;strokeColor=inherit;top=0;left=0;bottom=0;right=0;collapsible=0;dropTarget=0;fillColor=none;points=[[0,0.5],[1,0.5]];portConstraint=eastwest;fontSize=16;" parent="VxqdtVdzdVgu5r6BKbT3-187" vertex="1">
          <mxGeometry width="20" height="20" as="geometry" />
        </mxCell>
        <mxCell id="VxqdtVdzdVgu5r6BKbT3-189" style="shape=partialRectangle;html=1;whiteSpace=wrap;connectable=0;strokeColor=inherit;overflow=hidden;fillColor=none;top=0;left=0;bottom=0;right=0;pointerEvents=1;fontSize=16;" parent="VxqdtVdzdVgu5r6BKbT3-188" vertex="1">
          <mxGeometry width="20" height="20" as="geometry">
            <mxRectangle width="20" height="20" as="alternateBounds" />
          </mxGeometry>
        </mxCell>
        <mxCell id="VxqdtVdzdVgu5r6BKbT3-190" style="shape=tableRow;horizontal=0;startSize=0;swimlaneHead=0;swimlaneBody=0;strokeColor=inherit;top=0;left=0;bottom=0;right=0;collapsible=0;dropTarget=0;fillColor=none;points=[[0,0.5],[1,0.5]];portConstraint=eastwest;fontSize=16;" parent="VxqdtVdzdVgu5r6BKbT3-187" vertex="1">
          <mxGeometry y="20" width="20" height="20" as="geometry" />
        </mxCell>
        <mxCell id="VxqdtVdzdVgu5r6BKbT3-191" style="shape=partialRectangle;html=1;whiteSpace=wrap;connectable=0;strokeColor=inherit;overflow=hidden;fillColor=none;top=0;left=0;bottom=0;right=0;pointerEvents=1;fontSize=16;" parent="VxqdtVdzdVgu5r6BKbT3-190" vertex="1">
          <mxGeometry width="20" height="20" as="geometry">
            <mxRectangle width="20" height="20" as="alternateBounds" />
          </mxGeometry>
        </mxCell>
        <mxCell id="VxqdtVdzdVgu5r6BKbT3-192" value="" style="shape=tableRow;horizontal=0;startSize=0;swimlaneHead=0;swimlaneBody=0;strokeColor=inherit;top=0;left=0;bottom=0;right=0;collapsible=0;dropTarget=0;fillColor=none;points=[[0,0.5],[1,0.5]];portConstraint=eastwest;fontSize=16;" parent="VxqdtVdzdVgu5r6BKbT3-187" vertex="1">
          <mxGeometry y="40" width="20" height="20" as="geometry" />
        </mxCell>
        <mxCell id="VxqdtVdzdVgu5r6BKbT3-193" value="" style="shape=partialRectangle;html=1;whiteSpace=wrap;connectable=0;strokeColor=inherit;overflow=hidden;fillColor=none;top=0;left=0;bottom=0;right=0;pointerEvents=1;fontSize=16;" parent="VxqdtVdzdVgu5r6BKbT3-192" vertex="1">
          <mxGeometry width="20" height="20" as="geometry">
            <mxRectangle width="20" height="20" as="alternateBounds" />
          </mxGeometry>
        </mxCell>
        <mxCell id="VxqdtVdzdVgu5r6BKbT3-194" value="" style="shape=tableRow;horizontal=0;startSize=0;swimlaneHead=0;swimlaneBody=0;strokeColor=inherit;top=0;left=0;bottom=0;right=0;collapsible=0;dropTarget=0;fillColor=none;points=[[0,0.5],[1,0.5]];portConstraint=eastwest;fontSize=16;" parent="VxqdtVdzdVgu5r6BKbT3-187" vertex="1">
          <mxGeometry y="60" width="20" height="20" as="geometry" />
        </mxCell>
        <mxCell id="VxqdtVdzdVgu5r6BKbT3-195" value="" style="shape=partialRectangle;html=1;whiteSpace=wrap;connectable=0;strokeColor=inherit;overflow=hidden;fillColor=none;top=0;left=0;bottom=0;right=0;pointerEvents=1;fontSize=16;" parent="VxqdtVdzdVgu5r6BKbT3-194" vertex="1">
          <mxGeometry width="20" height="20" as="geometry">
            <mxRectangle width="20" height="20" as="alternateBounds" />
          </mxGeometry>
        </mxCell>
        <mxCell id="VxqdtVdzdVgu5r6BKbT3-197" value="&lt;font size=&quot;1&quot; data-sider-select-id=&quot;ff24dfee-ffc2-4087-a43f-4c16d51d3167&quot; face=&quot;Times New Roman&quot;&gt;&lt;i data-sider-select-id=&quot;2a5394e0-1ae0-4264-bb97-6ebed8818760&quot;&gt;&lt;b style=&quot;font-size: 11px;&quot; data-sider-select-id=&quot;eeca12e5-d156-4b1b-9fae-8ad851d7e0c3&quot;&gt;h&lt;sub data-sider-select-id=&quot;45b2b460-2f4b-4892-8360-2609940a5ab5&quot;&gt;i&lt;/sub&gt;&lt;span data-sider-select-id=&quot;45b2b460-2f4b-4892-8360-2609940a5ab5&quot;&gt;&lt;sup data-sider-select-id=&quot;fe0ce7c0-441e-48ad-8312-7e834b47188f&quot;&gt;&#39;&lt;/sup&gt;&lt;/span&gt;&lt;/b&gt;&lt;/i&gt;&lt;/font&gt;" style="text;html=1;align=center;verticalAlign=middle;resizable=0;points=[];autosize=1;strokeColor=none;fillColor=none;rotation=0;rounded=1;flipV=0;" parent="1" vertex="1">
          <mxGeometry x="-1486.88" y="-993.96" width="30" height="30" as="geometry" />
        </mxCell>
        <mxCell id="VxqdtVdzdVgu5r6BKbT3-198" value="&lt;font size=&quot;1&quot; data-sider-select-id=&quot;ff24dfee-ffc2-4087-a43f-4c16d51d3167&quot; face=&quot;Times New Roman&quot;&gt;&lt;i data-sider-select-id=&quot;2a5394e0-1ae0-4264-bb97-6ebed8818760&quot;&gt;&lt;b style=&quot;font-size: 11px;&quot; data-sider-select-id=&quot;eeca12e5-d156-4b1b-9fae-8ad851d7e0c3&quot;&gt;h&lt;sub data-sider-select-id=&quot;45b2b460-2f4b-4892-8360-2609940a5ab5&quot;&gt;j&lt;/sub&gt;&lt;span data-sider-select-id=&quot;45b2b460-2f4b-4892-8360-2609940a5ab5&quot;&gt;&lt;sup data-sider-select-id=&quot;fe0ce7c0-441e-48ad-8312-7e834b47188f&quot;&gt;&#39;&lt;/sup&gt;&lt;/span&gt;&lt;/b&gt;&lt;/i&gt;&lt;/font&gt;" style="text;html=1;align=center;verticalAlign=middle;resizable=0;points=[];autosize=1;strokeColor=none;fillColor=none;rotation=0;rounded=1;flipV=0;" parent="1" vertex="1">
          <mxGeometry x="-1463.91" y="-993.96" width="30" height="30" as="geometry" />
        </mxCell>
        <mxCell id="VxqdtVdzdVgu5r6BKbT3-199" value="" style="shape=cube;whiteSpace=wrap;html=1;boundedLbl=1;backgroundOutline=1;darkOpacity=0.05;darkOpacity2=0.1;points=[[0,0,0,0,0],[0,0,0,0,12.5],[0,0,0,0,25],[0,0,0,10,35],[0,0,0,20,45],[0,0,0,50,0],[0,0,0,70,45],[0,0,0,100,0],[0,0,0,110,10],[0,0,0,120,20],[0,0,0,120,32.5],[0.08,0.22,0,0,0],[1,1,0,0,0]];rotation=-90;flipH=0;flipV=0;direction=south;size=6;fillColor=#A680B8;" parent="1" vertex="1">
          <mxGeometry x="-1444.39" y="-1038.2" width="63.38" height="12.96" as="geometry" />
        </mxCell>
        <mxCell id="VxqdtVdzdVgu5r6BKbT3-200" value="" style="shape=cube;whiteSpace=wrap;html=1;boundedLbl=1;backgroundOutline=1;darkOpacity=0.05;darkOpacity2=0.1;points=[[0,0,0,0,0],[0,0,0,0,12.5],[0,0,0,0,25],[0,0,0,10,35],[0,0,0,20,45],[0,0,0,50,0],[0,0,0,70,45],[0,0,0,100,0],[0,0,0,110,10],[0,0,0,120,20],[0,0,0,120,32.5],[0.08,0.22,0,0,0],[1,1,0,0,0]];rotation=-90;flipH=0;flipV=0;direction=south;size=6;fillColor=#A680B8;" parent="1" vertex="1">
          <mxGeometry x="-1439.07" y="-1032.68" width="63.38" height="12.96" as="geometry" />
        </mxCell>
        <mxCell id="VxqdtVdzdVgu5r6BKbT3-201" value="&lt;font size=&quot;1&quot; data-sider-select-id=&quot;ff24dfee-ffc2-4087-a43f-4c16d51d3167&quot; face=&quot;Times New Roman&quot;&gt;&lt;i data-sider-select-id=&quot;2a5394e0-1ae0-4264-bb97-6ebed8818760&quot;&gt;&lt;b style=&quot;font-size: 11px;&quot; data-sider-select-id=&quot;eeca12e5-d156-4b1b-9fae-8ad851d7e0c3&quot;&gt;e&lt;sub data-sider-select-id=&quot;45b2b460-2f4b-4892-8360-2609940a5ab5&quot;&gt;ij&lt;/sub&gt;&lt;/b&gt;&lt;/i&gt;&lt;/font&gt;" style="text;html=1;align=center;verticalAlign=middle;resizable=0;points=[];autosize=1;strokeColor=none;fillColor=none;rotation=0;rounded=1;flipV=0;" parent="1" vertex="1">
          <mxGeometry x="-1427.7" y="-993.96" width="30" height="30" as="geometry" />
        </mxCell>
        <mxCell id="VxqdtVdzdVgu5r6BKbT3-202" value="&lt;b data-sider-select-id=&quot;83e606f3-8dd1-4212-94f8-dbe3770972c9&quot;&gt;&lt;font style=&quot;font-size: 11px;&quot; data-sider-select-id=&quot;63ddc8e8-7fac-4ffc-9700-af0d21936c02&quot;&gt;Concat&lt;/font&gt;&lt;/b&gt;" style="rounded=0;whiteSpace=wrap;html=1;direction=east;flipH=0;flipV=0;fillColor=#dae8fc;strokeColor=#6c8ebf;" parent="1" vertex="1">
          <mxGeometry x="-1464.9400000000003" y="-1109.96" width="56.11" height="20" as="geometry" />
        </mxCell>
        <mxCell id="VxqdtVdzdVgu5r6BKbT3-204" value="" style="strokeWidth=1;html=1;shape=mxgraph.flowchart.annotation_2;align=left;labelPosition=right;pointerEvents=1;rotation=90;" parent="1" vertex="1">
          <mxGeometry x="-1444.99" y="-1108.56" width="16.21" height="53.02" as="geometry" />
        </mxCell>
        <mxCell id="VxqdtVdzdVgu5r6BKbT3-206" value="" style="edgeStyle=elbowEdgeStyle;elbow=vertical;endArrow=classic;html=1;curved=0;rounded=0;endSize=8;startSize=8;exitX=0.5;exitY=0;exitDx=0;exitDy=0;entryX=0.75;entryY=1;entryDx=0;entryDy=0;" parent="1" target="VxqdtVdzdVgu5r6BKbT3-209" edge="1">
          <mxGeometry width="50" height="50" relative="1" as="geometry">
            <mxPoint x="-1436.78" y="-1109.96" as="sourcePoint" />
            <mxPoint x="-1406.49" y="-1178.96" as="targetPoint" />
            <Array as="points">
              <mxPoint x="-1420.78" y="-1119.96" />
            </Array>
          </mxGeometry>
        </mxCell>
        <mxCell id="VxqdtVdzdVgu5r6BKbT3-207" value="" style="edgeStyle=elbowEdgeStyle;elbow=vertical;endArrow=classic;html=1;curved=0;rounded=0;endSize=8;startSize=8;exitX=0.5;exitY=0;exitDx=0;exitDy=0;entryX=0.25;entryY=1;entryDx=0;entryDy=0;" parent="1" target="VxqdtVdzdVgu5r6BKbT3-209" edge="1">
          <mxGeometry width="50" height="50" relative="1" as="geometry">
            <mxPoint x="-1436.78" y="-1109.96" as="sourcePoint" />
            <mxPoint x="-1476.49" y="-1178.96" as="targetPoint" />
            <Array as="points">
              <mxPoint x="-1450.78" y="-1119.96" />
            </Array>
          </mxGeometry>
        </mxCell>
        <mxCell id="VxqdtVdzdVgu5r6BKbT3-208" value="" style="endArrow=classic;html=1;rounded=0;exitX=0.5;exitY=0;exitDx=0;exitDy=0;entryX=0.5;entryY=1;entryDx=0;entryDy=0;" parent="1" target="VxqdtVdzdVgu5r6BKbT3-209" edge="1">
          <mxGeometry width="50" height="50" relative="1" as="geometry">
            <mxPoint x="-1436.78" y="-1109.96" as="sourcePoint" />
            <mxPoint x="-1441.49" y="-1178.96" as="targetPoint" />
          </mxGeometry>
        </mxCell>
        <mxCell id="VxqdtVdzdVgu5r6BKbT3-209" value="&lt;font data-sider-select-id=&quot;addaec93-30c8-47f1-8c8e-a56f1d95561a&quot; style=&quot;font-size: 11px;&quot;&gt;&lt;b data-sider-select-id=&quot;6be3259e-6ca5-4552-8bbf-cc417b6c57a0&quot;&gt;Multi-Head Attention&lt;/b&gt;&lt;/font&gt;" style="rounded=1;whiteSpace=wrap;html=1;fillColor=#d5e8d4;strokeColor=#82b366;" parent="1" vertex="1">
          <mxGeometry x="-1475.67" y="-1174" width="77.55" height="40.13" as="geometry" />
        </mxCell>
        <mxCell id="VxqdtVdzdVgu5r6BKbT3-210" value="" style="endArrow=classic;html=1;rounded=0;exitX=0.5;exitY=0;exitDx=0;exitDy=0;entryX=0.5;entryY=1;entryDx=0;entryDy=0;" parent="1" source="VxqdtVdzdVgu5r6BKbT3-209" target="VxqdtVdzdVgu5r6BKbT3-211" edge="1">
          <mxGeometry width="50" height="50" relative="1" as="geometry">
            <mxPoint x="-1286.49" y="-1268.96" as="sourcePoint" />
            <mxPoint x="-1441.49" y="-1228.96" as="targetPoint" />
          </mxGeometry>
        </mxCell>
        <mxCell id="VxqdtVdzdVgu5r6BKbT3-211" value="&lt;b data-sider-select-id=&quot;99af81d3-6ce7-4da8-977c-a1c27620e26a&quot;&gt;&lt;font data-sider-select-id=&quot;a26363cb-6b6c-4fa7-8f63-68c9f33c8ffb&quot; style=&quot;font-size: 11px;&quot;&gt;Feed Forward&lt;/font&gt;&lt;/b&gt;" style="rounded=1;whiteSpace=wrap;html=1;fillColor=#ffe6cc;strokeColor=#d79b00;" parent="1" vertex="1">
          <mxGeometry x="-1478.4" y="-1214" width="83.01" height="25.04" as="geometry" />
        </mxCell>
        <mxCell id="VxqdtVdzdVgu5r6BKbT3-212" value="&lt;b data-sider-select-id=&quot;ae041995-5304-4954-b535-f2804b6ba88e&quot;&gt;&lt;font data-sider-select-id=&quot;fd85521a-da44-4fdb-8fb6-c2f733ed943b&quot; style=&quot;font-size: 11px;&quot;&gt;Add &amp;amp; Norm&lt;/font&gt;&lt;/b&gt;" style="rounded=1;whiteSpace=wrap;html=1;fillColor=#f8cecc;strokeColor=#b85450;" parent="1" vertex="1">
          <mxGeometry x="-1477.45" y="-1250.97" width="81.11" height="20" as="geometry" />
        </mxCell>
        <mxCell id="VxqdtVdzdVgu5r6BKbT3-213" value="" style="endArrow=classic;html=1;rounded=0;exitX=0.5;exitY=0;exitDx=0;exitDy=0;entryX=0.5;entryY=1;entryDx=0;entryDy=0;" parent="1" source="VxqdtVdzdVgu5r6BKbT3-211" target="VxqdtVdzdVgu5r6BKbT3-212" edge="1">
          <mxGeometry width="50" height="50" relative="1" as="geometry">
            <mxPoint x="-1470.78" y="-1349.96" as="sourcePoint" />
            <mxPoint x="-1420.78" y="-1399.96" as="targetPoint" />
          </mxGeometry>
        </mxCell>
        <mxCell id="VxqdtVdzdVgu5r6BKbT3-214" value="&lt;b data-sider-select-id=&quot;6c39fb15-bda7-4d28-9dc9-1e1981b1cfbc&quot;&gt;&lt;font data-sider-select-id=&quot;6492635c-df46-4af9-b0d8-b41adec81a2a&quot; style=&quot;font-size: 11px;&quot;&gt;Updated&lt;/font&gt;&lt;/b&gt;&lt;div data-sider-select-id=&quot;361f2ca5-ff3f-4253-9dfd-0a0b5e5de7fa&quot;&gt;&lt;span style=&quot;font-size: 11px;&quot;&gt;&lt;b&gt;Edge&lt;/b&gt;&lt;/span&gt;&lt;/div&gt;&lt;div data-sider-select-id=&quot;e38e5786-623a-41f8-9f98-ffc73bfbd846&quot;&gt;&lt;b&gt;&lt;span data-sider-select-id=&quot;b589dc3e-d75e-4086-b40a-b1f712e49459&quot;&gt;&lt;font data-sider-select-id=&quot;374eaa25-17cb-4fbc-908d-dc330ec10ec4&quot; style=&quot;font-size: 11px;&quot;&gt;Rep&lt;/font&gt;&lt;/span&gt;.&lt;/b&gt;&lt;/div&gt;" style="rounded=1;whiteSpace=wrap;html=1;fillColor=#E1D5E7;" parent="1" vertex="1">
          <mxGeometry x="-1461.88" y="-1319" width="50" height="50" as="geometry" />
        </mxCell>
        <mxCell id="VxqdtVdzdVgu5r6BKbT3-215" value="" style="endArrow=classic;html=1;rounded=0;exitX=0.5;exitY=0;exitDx=0;exitDy=0;entryX=0.5;entryY=1;entryDx=0;entryDy=0;" parent="1" source="VxqdtVdzdVgu5r6BKbT3-212" target="VxqdtVdzdVgu5r6BKbT3-214" edge="1">
          <mxGeometry width="50" height="50" relative="1" as="geometry">
            <mxPoint x="-1436.78" y="-1270.6399999999999" as="sourcePoint" />
            <mxPoint x="-1410.78" y="-1380.6399999999999" as="targetPoint" />
          </mxGeometry>
        </mxCell>
        <mxCell id="VxqdtVdzdVgu5r6BKbT3-216" value="" style="edgeStyle=elbowEdgeStyle;elbow=horizontal;endArrow=classic;html=1;curved=0;rounded=0;endSize=8;startSize=8;exitX=1;exitY=0.5;exitDx=0;exitDy=0;entryX=0;entryY=0.5;entryDx=0;entryDy=0;" parent="1" target="VxqdtVdzdVgu5r6BKbT3-196" edge="1">
          <mxGeometry width="50" height="50" relative="1" as="geometry">
            <mxPoint x="-1532.88" y="-1272.28" as="sourcePoint" />
            <mxPoint x="-1503.88" y="-1078.96" as="targetPoint" />
            <Array as="points">
              <mxPoint x="-1503.88" y="-1271.96" />
            </Array>
          </mxGeometry>
        </mxCell>
        <mxCell id="VxqdtVdzdVgu5r6BKbT3-217" value="" style="endArrow=none;html=1;rounded=0;entryX=0.5;entryY=1;entryDx=0;entryDy=0;exitX=0.221;exitY=1.002;exitDx=0;exitDy=0;exitPerimeter=0;" parent="1" target="VxqdtVdzdVgu5r6BKbT3-86" edge="1" source="dQ3tJeeBxROogiF2pBiH-23">
          <mxGeometry width="50" height="50" relative="1" as="geometry">
            <mxPoint x="-1574.94" y="-959" as="sourcePoint" />
            <mxPoint x="-1433.88" y="-1139" as="targetPoint" />
          </mxGeometry>
        </mxCell>
        <mxCell id="VxqdtVdzdVgu5r6BKbT3-221" value="" style="endArrow=none;html=1;rounded=0;exitX=0.5;exitY=1;exitDx=0;exitDy=0;entryX=0.326;entryY=0.999;entryDx=0;entryDy=0;entryPerimeter=0;" parent="1" source="VxqdtVdzdVgu5r6BKbT3-90" edge="1" target="dQ3tJeeBxROogiF2pBiH-23">
          <mxGeometry width="50" height="50" relative="1" as="geometry">
            <mxPoint x="-1623.88" y="-1009" as="sourcePoint" />
            <mxPoint x="-1540.83" y="-959" as="targetPoint" />
          </mxGeometry>
        </mxCell>
        <mxCell id="VxqdtVdzdVgu5r6BKbT3-224" value="" style="edgeStyle=elbowEdgeStyle;elbow=vertical;endArrow=classic;html=1;curved=0;rounded=0;endSize=8;startSize=8;exitX=0;exitY=0.5;exitDx=0;exitDy=0;entryX=0;entryY=0.5;entryDx=0;entryDy=0;" parent="1" source="VxqdtVdzdVgu5r6BKbT3-86" target="VxqdtVdzdVgu5r6BKbT3-101" edge="1">
          <mxGeometry width="50" height="50" relative="1" as="geometry">
            <mxPoint x="-1283.88" y="-1039" as="sourcePoint" />
            <mxPoint x="-1633.88" y="-1109" as="targetPoint" />
            <Array as="points">
              <mxPoint x="-1613.88" y="-1109" />
            </Array>
          </mxGeometry>
        </mxCell>
        <mxCell id="VxqdtVdzdVgu5r6BKbT3-227" value="" style="edgeStyle=elbowEdgeStyle;elbow=vertical;endArrow=classic;html=1;curved=0;rounded=0;endSize=8;startSize=8;exitX=0.998;exitY=0.5;exitDx=0;exitDy=0;entryX=1;entryY=0.5;entryDx=0;entryDy=0;exitPerimeter=0;" parent="1" source="VxqdtVdzdVgu5r6BKbT3-200" target="VxqdtVdzdVgu5r6BKbT3-212" edge="1">
          <mxGeometry width="50" height="50" relative="1" as="geometry">
            <mxPoint x="-1323.88" y="-989" as="sourcePoint" />
            <mxPoint x="-1293.88" y="-1219" as="targetPoint" />
            <Array as="points">
              <mxPoint x="-1373.88" y="-1169" />
            </Array>
          </mxGeometry>
        </mxCell>
        <mxCell id="VxqdtVdzdVgu5r6BKbT3-230" value="" style="endArrow=classic;html=1;rounded=0;exitX=0.5;exitY=0;exitDx=0;exitDy=0;entryX=0.253;entryY=0.001;entryDx=0;entryDy=0;entryPerimeter=0;" parent="1" source="VxqdtVdzdVgu5r6BKbT3-103" target="dQ3tJeeBxROogiF2pBiH-27" edge="1">
          <mxGeometry width="50" height="50" relative="1" as="geometry">
            <mxPoint x="-1558.88" y="-1299" as="sourcePoint" />
            <mxPoint x="-1558.88" y="-1329" as="targetPoint" />
          </mxGeometry>
        </mxCell>
        <mxCell id="VxqdtVdzdVgu5r6BKbT3-231" value="" style="endArrow=classic;html=1;rounded=0;exitX=0.5;exitY=0;exitDx=0;exitDy=0;" parent="1" source="VxqdtVdzdVgu5r6BKbT3-214" edge="1">
          <mxGeometry width="50" height="50" relative="1" as="geometry">
            <mxPoint x="-1405.88" y="-1159" as="sourcePoint" />
            <mxPoint x="-1436.88" y="-1339" as="targetPoint" />
          </mxGeometry>
        </mxCell>
        <mxCell id="VxqdtVdzdVgu5r6BKbT3-235" value="&lt;b data-sider-select-id=&quot;cbc95f3d-d891-4220-ac2d-762e0aadd5b2&quot;&gt;&lt;b data-sider-select-id=&quot;cbc95f3d-d891-4220-ac2d-762e0aadd5b2&quot;&gt;✖️&lt;/b&gt;K&lt;/b&gt;" style="text;html=1;align=center;verticalAlign=middle;resizable=0;points=[];autosize=1;strokeColor=none;fillColor=none;rotation=0;" parent="1" vertex="1">
          <mxGeometry x="-1356.88" y="-1174" width="40" height="30" as="geometry" />
        </mxCell>
        <mxCell id="VxqdtVdzdVgu5r6BKbT3-240" value="&lt;b data-sider-select-id=&quot;472a4f83-8acd-415a-954c-25e4097bd5b3&quot;&gt;&lt;font data-sider-select-id=&quot;2f9319e3-8b72-4ff8-ad8a-b8a892861590&quot; face=&quot;Times New Roman&quot;&gt;(A) Overall Pre-training Framework&lt;/font&gt;&lt;/b&gt;" style="text;html=1;align=center;verticalAlign=middle;whiteSpace=wrap;rounded=0;" parent="1" vertex="1">
          <mxGeometry x="-1877.68" y="-1558" width="208.49" height="30" as="geometry" />
        </mxCell>
        <mxCell id="VxqdtVdzdVgu5r6BKbT3-242" value="&lt;b data-sider-select-id=&quot;472a4f83-8acd-415a-954c-25e4097bd5b3&quot;&gt;&lt;font data-sider-select-id=&quot;2f9319e3-8b72-4ff8-ad8a-b8a892861590&quot; face=&quot;Times New Roman&quot;&gt;(B) Geometry and&amp;nbsp;&lt;span style=&quot;color: rgb(51, 51, 51); font-family: Helvetica; font-size: 11px;&quot;&gt;Chemical Knowledge&lt;/span&gt;-Enhanced Graph Transformer&lt;/font&gt;&lt;/b&gt;" style="text;html=1;align=center;verticalAlign=middle;whiteSpace=wrap;rounded=0;" parent="1" vertex="1">
          <mxGeometry x="-2146.57" y="-1369" width="412.13" height="30" as="geometry" />
        </mxCell>
        <mxCell id="dQ3tJeeBxROogiF2pBiH-2" value="" style="edgeStyle=elbowEdgeStyle;elbow=horizontal;endArrow=classic;html=1;curved=0;rounded=0;endSize=8;startSize=8;" edge="1" parent="1">
          <mxGeometry width="50" height="50" relative="1" as="geometry">
            <mxPoint x="-2121.38" y="-1210.65" as="sourcePoint" />
            <mxPoint x="-2071.38" y="-1252.71" as="targetPoint" />
          </mxGeometry>
        </mxCell>
        <mxCell id="dQ3tJeeBxROogiF2pBiH-5" value="" style="edgeStyle=elbowEdgeStyle;elbow=horizontal;endArrow=classic;html=1;curved=0;rounded=0;endSize=8;startSize=8;" edge="1" parent="1">
          <mxGeometry width="50" height="50" relative="1" as="geometry">
            <mxPoint x="-2121.38" y="-1210.73" as="sourcePoint" />
            <mxPoint x="-2071.38" y="-1168.67" as="targetPoint" />
          </mxGeometry>
        </mxCell>
        <mxCell id="xEzUvcs4P0c2zD8ZCyot-264" value="" style="shape=table;startSize=0;container=1;collapsible=0;childLayout=tableLayout;fillColor=#FCD2D0;direction=west;flipV=1;strokeWidth=1;rounded=1;" parent="1" vertex="1">
          <mxGeometry x="-1918.63" y="-1280.71" width="80.25" height="20" as="geometry" />
        </mxCell>
        <mxCell id="xEzUvcs4P0c2zD8ZCyot-265" value="" style="shape=tableRow;horizontal=0;startSize=0;swimlaneHead=0;swimlaneBody=0;strokeColor=inherit;top=0;left=0;bottom=0;right=0;collapsible=0;dropTarget=0;fillColor=none;points=[[0,0.5],[1,0.5]];portConstraint=eastwest;rounded=1;" parent="xEzUvcs4P0c2zD8ZCyot-264" vertex="1">
          <mxGeometry width="80.25" height="20" as="geometry" />
        </mxCell>
        <mxCell id="xEzUvcs4P0c2zD8ZCyot-266" value="" style="shape=partialRectangle;html=1;whiteSpace=wrap;connectable=0;strokeColor=inherit;overflow=hidden;fillColor=none;top=0;left=0;bottom=0;right=0;pointerEvents=1;rounded=1;" parent="xEzUvcs4P0c2zD8ZCyot-265" vertex="1">
          <mxGeometry width="20" height="20" as="geometry">
            <mxRectangle width="20" height="20" as="alternateBounds" />
          </mxGeometry>
        </mxCell>
        <mxCell id="xEzUvcs4P0c2zD8ZCyot-267" value="" style="shape=partialRectangle;html=1;whiteSpace=wrap;connectable=0;strokeColor=inherit;overflow=hidden;fillColor=none;top=0;left=0;bottom=0;right=0;pointerEvents=1;rounded=1;" parent="xEzUvcs4P0c2zD8ZCyot-265" vertex="1">
          <mxGeometry x="20" width="20" height="20" as="geometry">
            <mxRectangle width="20" height="20" as="alternateBounds" />
          </mxGeometry>
        </mxCell>
        <mxCell id="xEzUvcs4P0c2zD8ZCyot-268" value="" style="shape=partialRectangle;html=1;whiteSpace=wrap;connectable=0;strokeColor=inherit;overflow=hidden;fillColor=none;top=0;left=0;bottom=0;right=0;pointerEvents=1;rounded=1;" parent="xEzUvcs4P0c2zD8ZCyot-265" vertex="1">
          <mxGeometry x="40" width="20" height="20" as="geometry">
            <mxRectangle width="20" height="20" as="alternateBounds" />
          </mxGeometry>
        </mxCell>
        <mxCell id="xEzUvcs4P0c2zD8ZCyot-269" value="" style="shape=partialRectangle;html=1;whiteSpace=wrap;connectable=0;strokeColor=inherit;overflow=hidden;fillColor=none;top=0;left=0;bottom=0;right=0;pointerEvents=1;rounded=1;" parent="xEzUvcs4P0c2zD8ZCyot-265" vertex="1">
          <mxGeometry x="60" width="20" height="20" as="geometry">
            <mxRectangle width="20" height="20" as="alternateBounds" />
          </mxGeometry>
        </mxCell>
        <mxCell id="dQ3tJeeBxROogiF2pBiH-15" value="" style="endArrow=classic;html=1;rounded=0;entryX=0;entryY=0.5;entryDx=0;entryDy=0;" edge="1" parent="1" target="VxqdtVdzdVgu5r6BKbT3-65">
          <mxGeometry width="50" height="50" relative="1" as="geometry">
            <mxPoint x="-1971.3800000000003" y="-1170.71" as="sourcePoint" />
            <mxPoint x="-1831.3800000000003" y="-1180.71" as="targetPoint" />
          </mxGeometry>
        </mxCell>
        <mxCell id="dQ3tJeeBxROogiF2pBiH-17" value="Graph Transformer" style="rounded=1;absoluteArcSize=1;arcSize=14;whiteSpace=wrap;strokeWidth=1;direction=east;fillColor=#D5E8D4;fontColor=#333333;strokeColor=#000000;fontStyle=1;rotation=0;fontSize=11;labelBackgroundColor=none;" vertex="1" parent="1">
          <mxGeometry x="-1786.8900000000003" y="-1290.71" width="80" height="160" as="geometry" />
        </mxCell>
        <mxCell id="dQ3tJeeBxROogiF2pBiH-21" value="" style="endArrow=classic;html=1;rounded=0;exitX=1;exitY=0.5;exitDx=0;exitDy=0;entryX=0;entryY=0.25;entryDx=0;entryDy=0;" edge="1" parent="1" source="VxqdtVdzdVgu5r6BKbT3-48" target="dQ3tJeeBxROogiF2pBiH-17">
          <mxGeometry width="50" height="50" relative="1" as="geometry">
            <mxPoint x="-1761.3800000000003" y="-1142.71" as="sourcePoint" />
            <mxPoint x="-1711.3800000000003" y="-1192.71" as="targetPoint" />
          </mxGeometry>
        </mxCell>
        <mxCell id="dQ3tJeeBxROogiF2pBiH-22" value="" style="endArrow=classic;html=1;rounded=0;exitX=1;exitY=0.5;exitDx=0;exitDy=0;entryX=0;entryY=0.75;entryDx=0;entryDy=0;" edge="1" parent="1" source="VxqdtVdzdVgu5r6BKbT3-65" target="dQ3tJeeBxROogiF2pBiH-17">
          <mxGeometry width="50" height="50" relative="1" as="geometry">
            <mxPoint x="-1761.3800000000003" y="-1172.71" as="sourcePoint" />
            <mxPoint x="-1711.3800000000003" y="-1222.71" as="targetPoint" />
          </mxGeometry>
        </mxCell>
        <mxCell id="dQ3tJeeBxROogiF2pBiH-25" value="&lt;b data-sider-select-id=&quot;472a4f83-8acd-415a-954c-25e4097bd5b3&quot;&gt;&lt;font data-sider-select-id=&quot;2f9319e3-8b72-4ff8-ad8a-b8a892861590&quot; face=&quot;Times New Roman&quot;&gt;(C) Graph Transformer&lt;/font&gt;&lt;/b&gt;" style="text;html=1;align=center;verticalAlign=middle;whiteSpace=wrap;rounded=0;" vertex="1" parent="1">
          <mxGeometry x="-1551.4" y="-1374" width="135.03" height="30" as="geometry" />
        </mxCell>
        <mxCell id="VxqdtVdzdVgu5r6BKbT3-60" value="" style="shape=cube;whiteSpace=wrap;html=1;boundedLbl=1;backgroundOutline=1;darkOpacity=0.05;darkOpacity2=0.1;points=[[0,0,0,0,0],[0,0,0,0,12.5],[0,0,0,0,25],[0,0,0,10,35],[0,0,0,20,45],[0,0,0,50,0],[0,0,0,70,45],[0,0,0,100,0],[0,0,0,110,10],[0,0,0,120,20],[0,0,0,120,32.5],[0.08,0.22,0,0,0],[1,1,0,0,0]];rotation=-90;flipH=0;flipV=1;direction=south;size=17;fillColor=#67AB9F;" parent="1" vertex="1">
          <mxGeometry x="-1859.8900000000003" y="-1095.48" width="23.78" height="79.33" as="geometry" />
        </mxCell>
      </root>
    </mxGraphModel>
  </diagram>
</mxfile>
